<?xml version="1.0" encoding="UTF-8" standalone="no"?>
<!-- Created with Inkscape (http://www.inkscape.org/) -->

<svg
   xmlns:dc="http://purl.org/dc/elements/1.1/"
   xmlns:cc="http://creativecommons.org/ns#"
   xmlns:rdf="http://www.w3.org/1999/02/22-rdf-syntax-ns#"
   xmlns:svg="http://www.w3.org/2000/svg"
   xmlns="http://www.w3.org/2000/svg"
   xmlns:sodipodi="http://sodipodi.sourceforge.net/DTD/sodipodi-0.dtd"
   xmlns:inkscape="http://www.inkscape.org/namespaces/inkscape"
   width="36"
   height="31"
   id="svg2"
   version="1.1"
   inkscape:version="0.48.3.1 r9886"
   sodipodi:docname="orchestra-logo.svg"
   inkscape:export-filename="/home/glic3rinu/orchestra/django-orchestra/orchestra/static/orchestra/images/orchestra-logo.png"
   inkscape:export-xdpi="81.290321"
   inkscape:export-ydpi="81.290321">
  <defs
     id="defs4">
    <linearGradient
       x1="0"
       y1="0"
       x2="1"
       y2="0"
       gradientUnits="userSpaceOnUse"
       gradientTransform="matrix(168.98854,168.98854,168.98854,-168.98854,349.09961,209.33105)"
       spreadMethod="pad"
       id="linearGradient3955">
      <stop
         style="stop-opacity:1;stop-color:#47b754"
         offset="0"
         id="stop3957" />
      <stop
         style="stop-opacity:1;stop-color:#d8e037"
         offset="1"
         id="stop3959" />
    </linearGradient>
    <clipPath
       clipPathUnits="userSpaceOnUse"
       id="clipPath3947">
      <path
         d="m 469.867,371.425 c -0.25,-1.418 -0.383,-2.876 -0.383,-4.364 l 0,0 c 0,0 2.021,-16.608 -7.708,-24.797 l 0,0 c -9.711,-8.172 -29.435,-6.144 -29.435,-6.144 l 0,0 c -9.789,0 -18.517,-4.542 -24.197,-11.628 l 0,0 c 0.003,-0.002 -29.189,-14.312 -51.272,-14.312 l 0,0 c -25.496,0 -45.945,5.249 -45.944,5.249 l 0,0 c -3.911,8.549 -12.541,14.489 -22.556,14.489 l 0,0 c -13.695,0 -24.797,-11.1 -24.797,-24.793 l 0,0 c 0,-13.697 11.102,-24.792 24.797,-24.792 l 0,0 c 9.968,0 18.563,5.876 22.501,14.359 l 0,0 c 0,0 20.929,8.126 45.999,8.126 l 0,0 c 28.682,0 49.379,-14.876 49.96,-15.298 l 0,0 c 5.591,-8.087 14.931,-13.385 25.509,-13.385 l 0,0 c 0.701,0 1.401,0.023 2.09,0.069 l 0,0 0.735,0.068 c 0,0 19.647,0.878 28.172,-8.778 l 0,0 c 9.359,-10.604 6.971,-33.929 6.971,-33.929 l 0,0 c -0.077,-0.967 -0.116,-1.946 -0.116,-2.928 l 0,0 c 0,-20.544 16.654,-37.193 37.195,-37.193 l 0,0 c 20.543,0 37.196,16.649 37.196,37.193 l 0,0 c 0,20.535 -16.653,37.18 -37.196,37.18 l 0,0 c -4.765,0 -9.32,-0.895 -13.509,-2.527 l 0,0 c -6.852,0 -20.735,1.785 -26.055,6.408 l 0,0 c -8.796,7.646 -6.103,25.549 -6.103,25.549 l 0,0 0.003,-0.004 c 1.046,3.105 1.614,6.426 1.614,9.882 l 0,0 c 0,2.334 -0.256,4.605 -0.744,6.79 l 0,0 c -0.518,2.746 -3.119,18.313 2.864,25.609 l 0,0 c 8.387,10.23 21.583,5.695 28.826,4.74 l 0,0 c 13.573,-1.79 24.79,11.103 24.79,24.797 l 0,0 c 0,13.695 -11.097,24.795 -24.79,24.795 l 0,0 c -12.207,0 -22.353,-8.817 -24.417,-20.431 m -7.191,-59.927 0,-10e-4 c 0,0 0,0 0,10e-4"
         id="path3949"
         inkscape:connector-curvature="0" />
    </clipPath>
    <linearGradient
       x1="0"
       y1="0"
       x2="1"
       y2="0"
       gradientUnits="userSpaceOnUse"
       gradientTransform="matrix(-133.60844,-115.5714,-115.5714,133.60844,452.78516,414.26855)"
       spreadMethod="pad"
       id="linearGradient3935">
      <stop
         style="stop-opacity:1;stop-color:#f1623b"
         offset="0"
         id="stop3937" />
      <stop
         style="stop-opacity:1;stop-color:#fcb24c"
         offset="1"
         id="stop3939" />
    </linearGradient>
    <clipPath
       clipPathUnits="userSpaceOnUse"
       id="clipPath3927">
      <path
         d="m 421.468,407.869 c 0,-1.506 0.211,-2.964 0.606,-4.344 l 0,0 0.111,0.351 c 0,0 -4.257,-15.118 -14.038,-22.973 l 0,0 c -10.835,-8.695 -23.869,-16.298 -23.869,-16.298 l 0,0 0.069,0.116 c -3.936,2.622 -8.658,4.153 -13.741,4.153 l 0,0 c -4.117,0 -8.002,-1.004 -11.421,-2.781 l 0,0 c 0,0 -8.407,-0.714 -12.334,2.781 l 0,0 c -4.14,3.684 -4.454,14.548 -4.454,15.873 l 0,0 c 0,8.761 -7.105,15.866 -15.869,15.866 l 0,0 c -8.765,0 -15.87,-7.105 -15.87,-15.866 l 0,0 c 0,-8.766 7.105,-15.873 15.87,-15.873 l 0,0 c 0.706,0 1.399,0.045 2.075,0.136 l 0,0 c 0,0 12.983,0.717 17.207,-2.826 l 0,0 c 4.275,-3.588 2.293,-11.636 2.293,-11.636 l 0,0 0.011,-0.007 c -1.48,-3.181 -2.304,-6.727 -2.304,-10.462 l 0,0 c 0,-11.327 7.596,-20.88 17.971,-23.847 l 0,0 -0.011,0.069 c 0,0 5.364,-8.712 5.836,-21.247 l 0,0 c 0.393,-10.51 -4.814,-20.803 -4.811,-20.799 l 0,0 c -5.893,-2.32 -10.056,-8.056 -10.056,-14.763 l 0,0 c 0,-8.757 7.105,-15.862 15.868,-15.862 l 0,0 c 8.763,0 15.87,7.105 15.87,15.862 l 0,0 c 0.004,6.107 -3.454,11.407 -8.522,14.062 l 0,0 c 0,0 -3.774,11.26 -3.122,22.501 l 0,0 c 0.554,9.525 4.276,20.726 4.272,20.723 l 0,0 c 9.511,3.467 16.302,12.593 16.302,23.301 l 0,0 c 0,3.514 -0.729,6.857 -2.051,9.89 l 0,0 -0.015,0.021 c 0,0 5.188,14.475 17.688,25.077 l 0,0 c 9.457,8.018 23.244,13.226 23.247,13.226 l 0,0 c 0.994,-0.195 2.017,-0.294 3.062,-0.294 l 0,0 c 8.766,0 15.871,7.109 15.871,15.87 l 0,0 c 0,8.764 -7.105,15.871 -15.871,15.871 l 0,0 c -8.761,0 -15.87,-7.107 -15.87,-15.871"
         id="path3929"
         inkscape:connector-curvature="0" />
    </clipPath>
    <linearGradient
       x1="0"
       y1="0"
       x2="1"
       y2="0"
       gradientUnits="userSpaceOnUse"
       gradientTransform="matrix(-70.985504,70.985519,70.985519,70.985519,469.8125,189.90332)"
       spreadMethod="pad"
       id="linearGradient3915">
      <stop
         style="stop-opacity:1;stop-color:#337abe"
         offset="0"
         id="stop3917" />
      <stop
         style="stop-opacity:1;stop-color:#3bade2"
         offset="1"
         id="stop3919" />
    </linearGradient>
    <clipPath
       clipPathUnits="userSpaceOnUse"
       id="clipPath3907">
      <path
         d="m 472.865,307.345 c 0,-1.901 0.266,-3.745 0.77,-5.49 l 0,0 0.003,-0.01 c 0,0 -4.958,-15.571 -17.105,-27.71 l 0,0 C 442.513,260.127 422.264,255.17 422.264,255.17 l 0,0 -0.138,0.032 c -1.614,0.333 -3.286,0.503 -4.998,0.503 l 0,0 c -13.689,0 -24.792,-11.1 -24.792,-24.791 l 0,0 c -0.002,-3.612 0.77,-7.041 2.157,-10.133 l 0,0 c 0.1,-0.301 2.204,-6.831 -2.329,-10.645 l 0,0 c -4.629,-3.898 -11.677,-1.203 -11.68,-1.199 l 0,0 c -4.653,2.218 -9.857,3.461 -15.356,3.461 l 0,0 c -19.721,0 -35.709,-15.987 -35.709,-35.703 l 0,0 c 0,-19.715 15.988,-35.702 35.709,-35.702 l 0,0 c 19.716,0 35.709,15.987 35.709,35.702 l 0,0 c 0.002,6.11 -1.535,11.862 -4.243,16.886 l 0,0 c 0,0 -3.299,6.354 -0.166,10.179 l 0,0 c 4,4.88 12.571,3.78 12.571,3.78 l 0,0 0.004,-0.058 c 2.547,-0.883 5.277,-1.363 8.125,-1.363 l 0,0 c 5.084,0 9.807,1.524 13.741,4.145 l 0,0 -2.258,-1.331 c 0,0 5.244,4.052 7.988,0.943 l 0,0 c 2.777,-3.151 2.13,-9.768 2.011,-10.789 l 0,0 c -0.101,-0.726 -0.153,-1.468 -0.153,-2.224 l 0,0 c 0,-8.761 7.104,-15.871 15.875,-15.871 l 0,0 c 8.761,0 15.866,7.11 15.866,15.871 l 0,0 c 0,8.766 -7.105,15.866 -15.866,15.866 l 0,0 c -1.166,0 -2.3,-0.124 -3.396,-0.363 l 0,0 c -1.219,-0.219 -8.526,-1.394 -11.577,1.254 l 0,0 c -2.829,2.462 0.418,7.172 0.418,7.172 l 0,0 -1.084,-2.14 c 2.06,3.617 3.238,7.802 3.238,12.262 l 0,0 c 0,1.129 -0.077,2.241 -0.223,3.329 l 0,0 c -0.004,-0.004 5.32,22.772 19.106,36.55 l 0,0 c 15.999,15.986 24.261,18.241 24.261,18.241 l 0,0 -0.005,-0.002 c 2.349,-0.98 4.93,-1.521 7.635,-1.521 l 0,0 c 10.955,0 19.832,8.884 19.832,19.834 l 0,0 c 0,10.96 -8.877,19.836 -19.832,19.836 l 0,0 c -10.959,0 -19.84,-8.876 -19.84,-19.836"
         id="path3909"
         inkscape:connector-curvature="0" />
    </clipPath>
    <filter
       color-interpolation-filters="sRGB"
       inkscape:collect="always"
       id="filter4011">
      <feGaussianBlur
         inkscape:collect="always"
         stdDeviation="0.21832283"
         id="feGaussianBlur4013" />
    </filter>
    <filter
       color-interpolation-filters="sRGB"
       height="2.2549138"
       y="-0.6274569"
       width="1.2392732"
       x="-0.1196366"
       id="filter3952"
       inkscape:collect="always">
      <feGaussianBlur
         id="feGaussianBlur3954"
         stdDeviation="2.153169"
         inkscape:collect="always" />
    </filter>
  </defs>
  <sodipodi:namedview
     id="base"
     pagecolor="#ffffff"
     bordercolor="#666666"
     borderopacity="1.0"
     inkscape:pageopacity="0.0"
     inkscape:pageshadow="2"
     inkscape:zoom="5.6"
     inkscape:cx="95.850241"
     inkscape:cy="-25.641161"
     inkscape:document-units="px"
     inkscape:current-layer="layer1"
     showgrid="false"
     inkscape:window-width="1920"
     inkscape:window-height="1024"
     inkscape:window-x="0"
     inkscape:window-y="27"
     inkscape:window-maximized="1" />
  <metadata
     id="metadata7">
    <rdf:RDF>
      <cc:Work
         rdf:about="">
        <dc:format>image/svg+xml</dc:format>
        <dc:type
           rdf:resource="http://purl.org/dc/dcmitype/StillImage" />
        <dc:title></dc:title>
      </cc:Work>
    </rdf:RDF>
  </metadata>
  <g
     inkscape:label="Layer 1"
     inkscape:groupmode="layer"
     id="layer1"
     transform="translate(0,-1021.3622)">
    <path
       id="path4340-6"
       d="m 32.848928,1037.0745 c 0,8.0939 -6.561561,14.6551 -14.655666,14.6551 -8.094099,0 -14.6556623,-6.5612 -14.6556623,-14.6551 0,-8.0944 6.5615633,-14.6557 14.6556623,-14.6557 8.094105,0 14.655666,6.5613 14.655666,14.6557 z"
       style="fill:#8bade8;fill-opacity:1;stroke:#000000;stroke-width:0.43225229;stroke-opacity:1;display:inline"
       inkscape:connector-curvature="0" />
    <path
       id="path4145"
       d="m 32.848928,1037.0745 c 0,8.0939 -6.561568,14.6551 -14.655666,14.6551 -8.094099,0 -14.6556623,-6.5612 -14.6556623,-14.6551 0,-8.0944 6.5615633,-14.6557 14.6556623,-14.6557 8.094098,0 14.655666,6.5613 14.655666,14.6557 z"
       style="fill:none;stroke:#000000;stroke-width:0.95095509;stroke-miterlimit:4;stroke-opacity:1;stroke-dasharray:none;display:inline"
       inkscape:connector-curvature="0" />
    <path
       sodipodi:nodetypes="cccccccsscccccscccccccccccccccccccc"
       id="path4374-9"
       d="m 27.711493,1026.2355 c -0.483999,0.5976 -2.063431,0.8081 -3.001564,0.325 -0.491811,-0.5018 -0.828071,-0.3632 -1.470614,-0.447 -0.272629,0.082 -0.709954,-0.2329 -0.706661,0.087 0.01868,0.3644 -0.27245,0.9044 -0.05521,0.9284 0.380664,0.049 0.499627,0.3089 0.880286,0.3571 -0.07929,0.4752 -0.03966,0.7133 -0.11896,1.1894 -0.373344,0.06 -0.694241,-0.1273 -1.090334,0.017 -0.144476,0.048 -0.0084,0.4666 -0.159234,0.5293 -0.47303,0.1949 -1.131561,-0.062 -1.676811,0.1247 -0.174474,0.3491 -0.229986,0.7455 -0.09514,1.1899 0.507557,0.3882 1.395782,0.063 2.093663,0.093 -0.03173,0.6027 -0.06343,1.2052 -0.09514,1.8082 0.776642,0.5231 2.164317,-0.1539 2.662276,0.4509 -0.288527,1.0338 -1.822368,0.7389 -2.502865,1.2244 -0.08558,0.062 0.04356,0.5577 0.0037,0.673 0.266454,0.4294 1.45807,0.1355 2.08984,0.5977 0.272238,1.0697 -2.156238,0.025 -1.39922,1.3362 0.127959,0.698 0.291593,1.8957 0.479017,1.9274 0.142754,0.1626 2.890686,0.23 2.962068,0.038 0.202224,-0.019 0.365794,-2.2766 0.368765,-2.4389 0.08033,-0.069 1.237172,0 1.85575,0 0,0.46 0,0.92 0,1.38 1.073,0.2056 -1.144162,1.119 0.132219,1.2453 0.85494,0.311 1.350411,-0.5884 1.352329,-1.2027 0.663076,-0.2518 0.37455,1.5475 1.233308,0.8072 1.361748,-0.2591 0.373537,1.9733 -0.600635,1.5259 -0.784047,0.092 -1.617612,-0.083 -2.402714,0.017 0.105449,-0.9729 -1.740666,-0.4938 -1.760011,-0.3283 -0.27495,0.956 -2.000187,-0.2216 -2.298989,1.0964 -0.28936,1.0052 0.199925,2.4164 -0.989693,2.9469 -0.323106,0.6567 -1.038172,2.2325 0.260911,2.0032 0.870249,-0.1127 1.698328,-0.565 2.600471,-0.2766 1.080174,-0.2103 1.404934,1.0014 0.761269,1.7027 -0.539463,1.0206 0.09826,0.039 -0.427727,1.0675"
       style="opacity:0.71799999;color:#000000;fill:none;stroke:#478397;stroke-width:0.64837855;stroke-linecap:butt;stroke-linejoin:round;stroke-miterlimit:4;stroke-opacity:1;stroke-dasharray:none;stroke-dashoffset:0;marker:none;visibility:visible;display:inline;overflow:visible;enable-background:accumulate"
       inkscape:connector-curvature="0" />
    <path
       sodipodi:nodetypes="cccccccsscccccscccccccccccccccccccc"
       id="path4374"
       d="m 27.669445,1025.9289 c -0.929822,0.3786 -2.189616,0.7117 -3.127746,0.2275 -0.491821,-0.5018 -0.828073,-0.3633 -1.47062,-0.4469 -0.272623,0.082 -0.709949,-0.2322 -0.706665,0.086 0.01868,0.3646 -0.272442,0.9046 -0.0552,0.9283 0.380671,0.048 0.499635,0.3097 0.880299,0.3569 -0.07929,0.4757 -0.03965,0.7139 -0.118974,1.1901 -0.373336,0.056 -0.694232,-0.1277 -1.090333,0.017 -0.144471,0.048 -0.0084,0.4664 -0.159229,0.5289 -0.473036,0.195 -1.131558,-0.062 -1.676809,0.1249 -0.174473,0.3492 -0.229985,0.7456 -0.09514,1.1894 0.50755,0.3887 1.395777,0.063 2.093661,0.094 -0.03173,0.6027 -0.06343,1.2054 -0.09514,1.8083 0.776642,0.5228 2.164313,-0.1539 2.662276,0.4504 -0.288528,1.0341 -1.822368,0.7391 -2.502868,1.225 -0.08556,0.062 0.04363,0.5573 0.0037,0.673 0.266456,0.4292 1.45807,0.1354 2.089841,0.5975 0.272238,1.0695 -2.156238,0.025 -1.399218,1.3361 0.127945,0.6979 0.291591,1.8955 0.479013,1.9277 0.142758,0.1622 2.890692,0.2295 2.962072,0.037 0.202224,-0.019 0.365793,-2.2761 0.368765,-2.4386 0.08033,-0.069 1.237169,0 1.855749,0 0,0.46 0,0.92 0,1.38 1.073001,0.2062 -1.144161,1.1192 0.132219,1.2455 0.85494,0.3108 1.350411,-0.5882 1.352331,-1.2025 0.663073,-0.2524 0.374546,1.5475 1.233308,0.8069 1.361744,-0.2589 0.373536,1.9734 -0.600637,1.5263 -0.784047,0.092 -1.617612,-0.084 -2.402711,0.017 0.105449,-0.973 -1.740671,-0.494 -1.760016,-0.3285 -0.274947,0.9564 -2.000186,-0.2212 -2.298987,1.0969 -0.289359,1.0047 0.199926,2.4162 -0.989694,2.9464 -0.323101,0.6572 -1.038176,2.2331 0.26091,2.0037 0.870252,-0.1126 1.69833,-0.5649 2.600474,-0.2766 1.080174,-0.2106 1.404935,1.0014 0.761273,1.7026 -0.539466,1.0202 -1.045723,2.0588 -1.571714,3.0858"
       style="color:#000000;fill:none;stroke:#000000;stroke-width:0.21612614;stroke-linecap:butt;stroke-linejoin:round;stroke-miterlimit:4;stroke-opacity:1;stroke-dasharray:none;stroke-dashoffset:0;marker:none;visibility:visible;display:inline;overflow:visible;enable-background:accumulate"
       inkscape:connector-curvature="0" />
    <path
       sodipodi:nodetypes="cssssssssssssscccsssssssssssssscccccssssssssssssssssscccssssssssssscccssscccssssssssssssccc"
       id="path4405"
       d="m 25.635911,1049.4007 c 0,-0.04 1.291,-2.5299 1.452139,-2.8031 0.186752,-0.3172 0.241789,-0.6004 0.176851,-0.9099 -0.06937,-0.3309 -0.249397,-0.5744 -0.505626,-0.6844 -0.210138,-0.09 -0.906755,-0.1674 -1.408868,-0.1564 -0.170109,0.017 -0.648622,0.085 -1.063353,0.177 -1.181161,0.2657 -1.410981,0.2303 -1.410981,-0.2176 0,-0.3864 0.367065,-1.3951 0.525865,-1.4453 0.134458,-0.041 0.459879,-0.3812 0.56539,-0.5879 0.143625,-0.2813 0.190074,-0.5308 0.240412,-1.2912 0.05166,-0.7793 0.128831,-1.2963 0.221553,-1.4823 0.0958,-0.1934 0.330394,-0.2487 0.903273,-0.2135 0.782519,0.048 1.190686,-0.086 1.274434,-0.4207 0.0544,-0.2168 0.661399,-0.3786 1.122575,-0.2994 0.274353,0.048 0.42825,0.2119 0.42825,0.459 l 0,0.1798 1.20148,0.017 c 0.660816,0.017 1.31397,0.023 1.451452,0.04 0.211539,0.026 0.289886,0.017 0.509517,-0.094 0.564299,-0.2762 0.905695,-1.0621 0.646209,-1.4877 -0.151175,-0.2478 -0.564263,-0.3106 -0.833393,-0.1261 -0.176876,0.1204 -0.28935,0.083 -0.381259,-0.1383 -0.234293,-0.5568 -0.315213,-0.6924 -0.444857,-0.7462 -0.09044,-0.039 -0.171831,-0.039 -0.25377,-0.017 -0.100513,0.04 -0.125327,0.085 -0.148877,0.2846 -0.03604,0.3038 -0.172224,0.5704 -0.38845,0.7603 -0.209042,0.1835 -0.34082,0.2193 -0.667831,0.1806 -0.307529,-0.039 -0.404933,-0.069 -0.404063,-0.1419 3.79e-4,-0.026 0.118134,-0.1927 0.261709,-0.3616 0.172951,-0.2032 0.261054,-0.3493 0.261054,-0.4326 0,-0.1275 -0.126866,-0.2834 -0.229771,-0.2834 -0.04008,0 -0.05571,-0.2 -0.05571,-0.7135 l 0,-0.7136 -1.039299,0 -1.009548,0.019 -0.06035,0.613 c -0.07591,0.8338 -0.05282,1.4079 -0.114184,1.6786 -0.04045,0.1785 -0.181131,0.2936 -0.278819,0.3179 -0.169183,0.04 -1.985929,0.026 -2.333474,-0.018 -0.157032,-0.019 -0.38174,-0.066 -0.426656,-0.089 -0.104036,-0.053 -0.217396,-0.4728 -0.364575,-1.2693 -0.06437,-0.3484 -0.07065,-0.743 -0.115605,-0.8699 -0.10077,-0.2839 -0.05178,-0.3662 0.238622,-0.4014 1.008764,-0.1236 1.118079,-0.1595 1.221035,-0.408 0.177079,-0.4277 -0.183702,-0.6316 -1.34153,-0.7588 -0.253869,-0.025 -0.513983,-0.074 -0.578035,-0.1061 -0.121663,-0.06 -0.173758,-0.2059 -0.173758,-0.5025 0,-0.1425 0.02174,-0.1721 0.17391,-0.2356 0.09568,-0.04 0.368664,-0.114 0.606689,-0.1642 1.130846,-0.2395 1.501504,-0.4362 1.693446,-0.8996 0.07905,-0.191 0.03695,-0.269 -0.21717,-0.4022 -0.166101,-0.087 -0.298673,-0.1028 -1.186247,-0.1236 -1.241631,-0.027 -1.232695,-0.025 -1.19495,-0.4671 0.01501,-0.1741 0.04099,-0.5898 0.05774,-0.9234 l 0.0304,-0.6068 -0.255537,-10e-5 c -0.140539,0 -0.481612,0.026 -0.757936,0.051 -0.57244,0.062 -0.914564,0.025 -1.047477,-0.106 -0.112907,-0.1126 -0.128091,-0.6264 -0.02573,-0.8715 0.08103,-0.1937 0.222747,-0.2254 0.830126,-0.1858 0.485719,0.027 0.888461,-0.042 0.960631,-0.1781 0.02568,-0.048 0.04663,-0.1611 0.04663,-0.252 0,-0.2168 0.05785,-0.2344 0.650247,-0.1947 0.485877,0.029 0.486804,0.029 0.510539,-0.085 0.02548,-0.1192 0.124315,-1.1081 0.124093,-1.2383 -1.05e-4,-0.063 -0.08492,-0.091 -0.401545,-0.1384 -0.220787,-0.029 -0.519411,-0.2642 -0.547313,-0.2813 -0.03408,-0.021 -0.123715,-0.067 0.01611,-0.386 l 0.0193,-0.486 0.48046,-0.062 c 0.08103,0.017 0.121193,0.13 0.409065,0.1456 0.616791,0.031 0.792993,0.082 1.04044,0.2738 0.337432,0.2644 0.608336,0.3399 1.219772,0.339 0.562711,0 1.053971,-0.1028 1.697081,-0.3485 l 0.245798,-0.092 0.460508,0.4123 c 0.212457,0.1903 0.564961,0.3026 0.783183,0.5317 0.435162,0.4575 0.725752,0.9123 1.217234,1.3801 0.242432,0.2312 0.23765,0.8361 0.474584,1.0532 0.475511,0.4356 1.243186,1.8776 1.478326,2.5166 0.403598,1.0971 0.593772,2.3247 0.746011,3.5072 0.03812,0.2962 0.206142,0.8527 0.186636,1.4515 -0.02336,0.7165 -0.242509,1.487 -0.288306,1.8488 -0.103275,0.8154 -0.05808,1.6875 -0.273929,2.4346 -0.232342,0.8043 -0.732323,1.481 -1.112018,2.2524 -0.23322,0.4736 -0.417066,1.2504 -0.802515,1.7954 -0.650069,0.9185 -1.514659,1.6707 -2.385836,2.4837 -0.381165,0.356 -1.379056,1.0483 -1.872158,1.4092 -0.479326,0.351 -0.610842,0.7806 -0.45943,0.3028 l 0,0 0,0 z"
       style="fill:#a40000;fill-opacity:1;fill-rule:evenodd;stroke:#000000;stroke-width:0.02379167;stroke-miterlimit:4;stroke-opacity:1;stroke-dasharray:none;display:inline"
       inkscape:connector-curvature="0" />
    <path
       sodipodi:nodetypes="cscccccccccccccccccscccccccccccccccccccccccccc"
       id="path4386-7"
       d="m 15.57792,1023.13 c 0.0892,0.5482 2.52e-4,0.8711 -0.07179,1.5449 -0.08052,0.7543 -0.07003,1.5863 -0.11223,2.3027 -0.346524,0.2257 -0.911935,0.2703 -0.912106,0.7805 0.03566,0.5654 -0.523688,0.3376 -0.887215,0.3715 -0.507214,0.1017 -1.223957,0.5428 -1.094277,0.017 0.19025,-0.586 -0.538645,-0.6126 -0.915819,-0.648 -0.502249,-0.019 -0.383924,-0.092 -0.847736,-0.1356 -0.120114,0.2707 -0.283679,0.6625 0.197146,0.701 0.382655,0.1039 0.858625,0.1246 0.748155,0.6502 0.0042,0.3749 0.256502,1.1359 0.08144,1.1752 -0.372437,0.142 -0.935823,0.188 -1.161893,0.5825 -0.233488,0.3686 -0.422948,0.6116 -0.295938,1.0692 0.07413,0.3405 0.737426,0.063 1.04972,0.1524 0.451326,-0.093 0.764147,0.052 0.908177,0.5028 0.208491,0.3132 0.193207,0.7828 0.141584,1.0785 -0.182864,0.4143 -0.373801,0.7332 -0.774869,0.9455 -0.491913,0.375 -1.067543,0.6861 -1.507341,1.1012 -0.2842292,0.7868 -1.020493,1.8116 -0.8526863,2.3609 -0.034064,0.3047 0.3801106,0.453 0.6717603,0.7954 0.199425,0.2333 0.55658,0.6119 0.404924,0.887 -0.06146,0.3051 -0.7891617,0.5979 -1.2313285,0.6294 -0.5182818,-0.094 -1.631353,-2.2154 -1.8641397,-2.1096 -0.6510926,-0.069 -0.8142879,0.4602 -0.7492662,0.7892 0.4343133,0.8164 0.797304,1.699 1.2761585,2.4739 0.7914602,0.4484 1.5575435,0.9881 2.3645339,1.3799 2.109241,0 6.32404,-0.2619 6.327706,0 0.546278,0.4587 0.605279,1.9123 0.999711,2.0492 0.05079,0.2258 2.468811,1.0585 2.364939,1.2479 0.154569,0.3457 0.224388,0.9472 -0.06169,1.0947 -0.607485,0.083 -1.82165,0.048 -1.822454,0.2514 -0.102376,0.425 -0.07795,0.941 -0.259577,1.3089 -0.441631,0.27 -0.848795,0.532 -1.219387,0.8577 -0.74632,0.3487 0.0049,0.4928 -0.169709,1.212 -0.631476,-0.092 -1.514099,-0.066 -2.052437,-0.2493 -0.28703,-1.0727 0.188011,-1.6845 -0.541727,-2.7533 -0.551368,-1.0322 -0.203939,-1.347 -0.683052,-1.2245 -0.532211,-0.025 -0.58001,-0.3259 -1.087701,-0.4215 -0.286218,-0.2932 -0.930857,0.019 -1.040646,-0.479 0.06202,-0.3438 -0.679482,-0.039 -0.397648,-0.2113 0.516056,-0.1849 0.278807,-0.5677 0.168791,-1.0328 -0.210281,-0.5159 0.238852,-0.9501 -0.101187,-1.0602 -0.854998,-0.141 -2.4101548,-0.6285 -3.2443977,-0.8208 -0.2709481,-0.2895 -0.7700715,-0.026 -0.6750314,-0.5109 -0.060548,-0.3645 -0.095879,-0.8976 -0.2603338,-1.1579 -0.5166412,-0.023 -0.7953847,-1.3279 -1.3120349,-1.3493"
       style="opacity:0.71219512;fill:none;stroke:#478397;stroke-width:1.16708136;stroke-linecap:butt;stroke-linejoin:miter;stroke-miterlimit:3.4000001;stroke-opacity:1;stroke-dasharray:none;display:inline"
       inkscape:connector-curvature="0" />
    <path
       sodipodi:nodetypes="ccccccccccccccccccscccccccccccccccccccccccccc"
       id="path4386"
       d="m 14.933147,1022.7381 c -0.06734,1.3464 -0.13458,2.692 -0.20188,4.0382 -0.346528,0.2247 -0.911939,0.2692 -0.912107,0.7796 0.03566,0.5657 -0.52369,0.3384 -0.887217,0.3714 -0.507215,0.1017 -0.752906,-0.063 -0.623223,-0.5935 0.190244,-0.5861 -0.404056,-0.4113 -0.781233,-0.4456 -0.502253,-0.019 -1.5279094,0.017 -1.5543199,0.1334 -0.1201153,0.2706 -0.1827326,0.7977 0.2980899,0.8354 0.38266,0.105 0.858621,0.1252 0.748155,0.6501 0.0042,0.3755 0.256502,1.1369 0.08144,1.1753 -0.372442,0.1423 -0.935826,0.1887 -1.1618856,0.5825 -0.2334998,0.3685 -0.4229493,0.6119 -0.2959457,1.0695 0.074129,0.341 0.7374283,0.063 1.0497263,0.1521 0.45132,-0.093 0.764141,0.051 0.908171,0.5026 0.208492,0.3136 0.193202,0.7833 0.141585,1.0794 -0.182866,0.414 -0.373802,0.733 -0.774872,0.945 -0.491915,0.3747 -1.0675389,0.6863 -1.5073377,1.1009 -0.2842314,0.7872 -1.0204949,1.8124 -0.8526892,2.3614 -0.034063,0.3051 0.3801099,0.4528 0.671762,0.7948 0.1994216,0.2334 0.5565787,0.6119 0.404924,0.887 -0.061473,0.305 -0.7891618,0.5982 -1.2313303,0.6295 -0.5182804,-0.094 -1.631361,-2.215 -1.8641384,-2.1094 -0.6510924,-0.067 -0.814288,0.4602 -0.7492663,0.7898 0.4343138,0.8156 0.7973046,1.6982 1.2761577,2.474 0.7914618,0.4478 1.5575413,0.9872 2.3645365,1.379 2.1092357,0 6.3240387,-0.261 6.3277037,0 0.546282,0.459 0.605279,1.9126 0.999709,2.0491 0.0508,0.2259 2.468822,1.0586 2.364949,1.2489 0.154563,0.3444 0.224379,0.9468 -0.06168,1.0942 -0.607487,0.084 -1.821664,0.048 -1.822462,0.2512 -0.102376,0.4249 -0.07795,0.9411 -0.259578,1.3092 -0.441633,0.2698 -1.000206,0.4482 -1.370797,0.7728 -0.174339,0.7196 -0.348664,1.4387 -0.523003,2.158 -0.538337,-0.1796 -1.076682,-0.3593 -1.615033,-0.5385 -0.287022,-1.0728 -0.07775,-2.1614 -0.807512,-3.2304 -0.07556,-0.2229 -0.584599,-0.7281 -1.063716,-0.6056 -0.532208,-0.026 -1.103425,0.051 -1.611117,-0.04 -0.2862166,-0.2931 -0.5977719,-0.4599 -0.7075652,-0.955 0.061998,-0.3435 -0.2036483,-0.9436 0.078202,-1.1155 0.5160524,-0.1846 0.7070502,-0.2819 0.5970402,-0.7469 -0.2102817,-0.5159 -0.6176532,-0.3787 -0.957664,-0.4887 -0.8549977,-0.1418 -1.7439885,-0.2012 -2.5782235,-0.3932 -0.2709565,-0.2894 -0.8652473,-0.4083 -0.770207,-0.8917 -0.060547,-0.3646 0.046877,-0.8976 -0.117578,-1.1578 -0.5166499,-0.022 -1.0332998,-0.042 -1.5499586,-0.065"
       style="fill:none;stroke:#000000;stroke-width:0.21612614;stroke-linecap:butt;stroke-linejoin:miter;stroke-miterlimit:4;stroke-opacity:1;stroke-dasharray:none;display:inline"
       inkscape:connector-curvature="0" />
    <path
       sodipodi:nodetypes="cssssccccccsssssssscccsssssssssssssssssssscccsssssssssssssssssccccccssssssssssscccc"
       id="path4403"
       d="m 14.336336,1050.817 c -0.358751,-0.1206 -0.673375,-0.2439 -0.699158,-0.2703 -0.02579,-0.026 -0.08117,-0.3042 -0.123168,-0.6186 -0.197597,-1.479 -0.278314,-1.8039 -0.584637,-2.352 -0.207234,-0.3706 -0.388204,-0.5822 -0.620657,-0.7271 -0.164283,-0.1039 -0.237501,-0.1104 -1.184516,-0.1333 l -1.009411,-0.025 -0.2434935,-0.2382 c -0.348895,-0.3408 -0.4086031,-0.4844 -0.4483349,-1.0779 l -0.033959,-0.507 0.3136082,-0.1497 c 0.3797719,-0.1814 0.4814699,-0.3343 0.4337299,-0.6526 -0.03762,-0.2506 -0.2462561,-0.5106 -0.4675683,-0.5831 -0.083712,-0.025 -0.6875738,-0.1248 -1.34185,-0.2179 -1.7212483,-0.2435 -1.7114314,-0.2409 -2.0862175,-0.4933 -0.1791008,-0.1193 -0.3461347,-0.2576 -0.3711856,-0.3043 -0.02505,-0.048 -0.057999,-0.3469 -0.0732,-0.6668 -0.015202,-0.3198 -0.055878,-0.651 -0.090322,-0.7361 -0.061392,-0.1513 -0.068954,-0.1547 -0.3625412,-0.1549 -0.1649024,-2e-4 -0.4765007,-0.019 -0.692456,-0.027 l -0.3926273,-0.027 -0.051632,-0.1918 c -0.221135,-0.821 -0.5729847,-1.7034 -0.6546165,-2.5685 -0.093936,-0.9956 0.109918,-2.0076 0.2883822,-3.5114 0.1176369,-0.9916 0.607818,-2.3141 0.9796143,-3.209 0.6045491,-1.4547 1.3613391,-2.5197 2.2994723,-3.7377 1.5800344,-2.0516 4.3817813,-3.603 7.0893583,-4.3819 0.294725,-0.085 0.60079,-0.048 0.618439,-0.025 0.03108,0.028 -0.188429,3.4109 -0.223376,3.4697 -0.0093,0.019 -0.153254,0.092 -0.319383,0.1733 -0.375337,0.1791 -0.534388,0.3612 -0.579555,0.6627 -0.01887,0.126 -0.05902,0.2449 -0.08919,0.2644 -0.03015,0.018 -0.29309,0.037 -0.584305,0.039 -0.398681,0 -0.543265,-0.018 -0.585255,-0.067 -0.03835,-0.047 -0.04583,-0.1771 -0.02378,-0.4199 0.03151,-0.3481 0.03009,-0.3548 -0.10472,-0.4611 -0.134516,-0.106 -0.152894,-0.1072 -1.159724,-0.087 -0.5818,0.017 -1.076965,0.042 -1.148057,0.067 -0.146561,0.063 -0.2318625,0.2686 -0.2318625,0.5645 0,0.3086 0.171799,0.4777 0.5808145,0.5703 0.458813,0.1049 0.561191,0.1989 0.561191,0.519 0,0.1408 0.01985,0.3588 0.04419,0.4843 0.02429,0.1263 0.05441,0.305 0.06697,0.3984 l 0.02286,0.1699 -0.388207,0.1275 c -0.527709,0.1726 -0.6678672,0.2686 -0.8884578,0.6101 -0.2749148,0.4254 -0.3466775,0.7533 -0.2349249,1.0741 0.076763,0.2201 0.2016113,0.2505 0.9114597,0.2227 0.770441,-0.026 0.814506,-0.017 1.024067,0.4095 0.195865,0.3948 0.217826,0.8804 0.05441,1.2033 -0.185989,0.3676 -0.277887,0.4543 -1.054081,0.9941 -0.7485528,0.5207 -1.1761223,0.8653 -1.1761223,0.9481 0,0.023 -0.1599269,0.3795 -0.3553828,0.7946 -0.4182559,0.888 -0.5017384,1.1681 -0.4548984,1.5261 0.032109,0.2458 0.0501,0.2718 0.4440363,0.6426 0.7841862,0.738 0.8436212,1.0221 0.2744985,1.3125 -0.2846713,0.1452 -0.7112487,0.2458 -0.8121234,0.1923 -0.1405311,-0.073 -0.4979327,-0.499 -0.9566091,-1.1343 -0.6381432,-0.8835 -0.6694607,-0.9122 -1.0002082,-0.9122 -0.2245659,0 -0.2985718,0.024 -0.4206252,0.125 -0.1985129,0.1671 -0.2953699,0.3674 -0.2953699,0.6106 0,0.1568 0.086318,0.3753 0.3884489,0.9824 0.2136454,0.4291 0.5066467,0.9948 0.6511013,1.2562 l 0.2626518,0.4759 0.9350076,0.5551 c 0.5142551,0.3051 1.060991,0.6247 1.2149659,0.7097 l 0.2799573,0.1554 2.0754157,-0.06 c 2.505012,-0.069 3.953828,-0.069 4.118804,-0.017 0.184925,0.07 0.375678,0.4154 0.572971,1.0361 0.321746,1.0123 0.375497,1.0682 1.523395,1.5809 1.176703,0.5261 1.292454,0.5935 1.357873,0.7919 0.07855,0.2379 0.08358,0.6527 0.009,0.7429 -0.04492,0.06 -0.204823,0.082 -0.618587,0.106 -0.780446,0.048 -1.148923,0.1037 -1.246307,0.1908 -0.0576,0.049 -0.101777,0.2123 -0.141884,0.5143 -0.113581,0.8557 -0.08058,0.8021 -0.685838,1.1106 -0.89819,0.4573 -0.835723,0.3705 -1.123723,1.5647 -0.135676,0.5627 -0.261014,1.0212 -0.278522,1.0191 -0.01749,0 -0.325364,-0.106 -0.684117,-0.2261 l 0,0 -10e-6,0 -4e-6,0 z"
       style="fill:#a40000;fill-opacity:1;fill-rule:evenodd;stroke:none;display:inline"
       inkscape:connector-curvature="0" />
  </g>
</svg>
