<?xml version="1.0" encoding="UTF-8" standalone="no"?>
<!-- Created with Inkscape (http://www.inkscape.org/) -->
<svg
   xmlns:dc="http://purl.org/dc/elements/1.1/"
   xmlns:cc="http://creativecommons.org/ns#"
   xmlns:rdf="http://www.w3.org/1999/02/22-rdf-syntax-ns#"
   xmlns:svg="http://www.w3.org/2000/svg"
   xmlns="http://www.w3.org/2000/svg"
   xmlns:xlink="http://www.w3.org/1999/xlink"
   xmlns:sodipodi="http://sodipodi.sourceforge.net/DTD/sodipodi-0.dtd"
   xmlns:inkscape="http://www.inkscape.org/namespaces/inkscape"
   width="744.47455"
   height="194.78339"
   id="svg2"
   sodipodi:version="0.32"
   inkscape:version="0.46"
   version="1.0"
   sodipodi:docname="Moodle-logo.svg"
   inkscape:output_extension="org.inkscape.output.svg.inkscape">
  <sodipodi:namedview
     id="base"
     pagecolor="#ffffff"
     bordercolor="#666666"
     borderopacity="1.0"
     inkscape:pageopacity="0.0"
     inkscape:pageshadow="2"
     inkscape:zoom="1.7059012"
     inkscape:cx="268.1867"
     inkscape:cy="97.391695"
     inkscape:document-units="px"
     inkscape:current-layer="layer1"
     showgrid="false"
     inkscape:window-width="1366"
     inkscape:window-height="749"
     inkscape:window-x="-4"
     inkscape:window-y="-4" />
  <defs
     id="defs4">
    <linearGradient
       id="linearGradient3203">
      <stop
         style="stop-color:#333333;stop-opacity:1;"
         offset="0"
         id="stop3205" />
      <stop
         style="stop-color:#606060;stop-opacity:1;"
         offset="1"
         id="stop3207" />
    </linearGradient>
    <linearGradient
       id="linearGradient3195">
      <stop
         style="stop-color:#404040;stop-opacity:1;"
         offset="0"
         id="stop3197" />
      <stop
         style="stop-color:#1a1a1a;stop-opacity:1;"
         offset="1"
         id="stop3199" />
    </linearGradient>
    <linearGradient
       id="linearGradient3187">
      <stop
         style="stop-color:#606060;stop-opacity:1;"
         offset="0"
         id="stop3189" />
      <stop
         style="stop-color:#404040;stop-opacity:1;"
         offset="1"
         id="stop3191" />
    </linearGradient>
    <inkscape:perspective
       sodipodi:type="inkscape:persp3d"
       inkscape:vp_x="0 : 526.18109 : 1"
       inkscape:vp_y="0 : 1000 : 0"
       inkscape:vp_z="744.09448 : 526.18109 : 1"
       inkscape:persp3d-origin="372.04724 : 350.78739 : 1"
       id="perspective10" />
    <clipPath
       id="clipPath2472"
       clipPathUnits="userSpaceOnUse">
      <path
         id="path2474"
         d="M 130.32,642 L 462.24,642 L 462.24,653.04 L 130.32,653.04 L 130.32,642 z" />
    </clipPath>
    <inkscape:perspective
       id="perspective2390"
       inkscape:persp3d-origin="372.04724 : 350.78739 : 1"
       inkscape:vp_z="744.09448 : 526.18109 : 1"
       inkscape:vp_y="0 : 1000 : 0"
       inkscape:vp_x="0 : 526.18109 : 1"
       sodipodi:type="inkscape:persp3d" />
    <filter
       inkscape:collect="always"
       id="filter3416">
      <feGaussianBlur
         inkscape:collect="always"
         stdDeviation="4.180625"
         id="feGaussianBlur3418" />
    </filter>
    <clipPath
       id="clipPath">
      <path
         id="path3991"
         transform="translate(-0.1900293,428.7894)"
         d="M 519.375 8.375 L 519.375 75.375 C 511.0626 67.666325 500.46308 63.031246 488.90625 63.03125 C 462.23293 63.031248 440.59375 87.64964 440.59375 118 C 440.59374 148.35035 462.23293 172.96876 488.90625 172.96875 C 500.46308 172.96875 511.06259 168.33367 519.375 160.625 L 519.375 170.15625 L 549.84375 170.15625 L 549.84375 8.375 L 519.375 8.375 z M 566.84375 8.375 L 566.84375 170.15625 L 597.34375 170.15625 L 597.34375 8.375 L 566.84375 8.375 z M 267.90625 62.4375 C 237.57007 62.437502 212.9375 87.55776 212.9375 118.5625 C 212.93751 149.56725 237.57006 174.71875 267.90625 174.71875 C 298.24243 174.71876 322.84375 149.56725 322.84375 118.5625 C 322.84374 87.557759 298.24242 62.4375 267.90625 62.4375 z M 381.625 62.4375 C 351.28883 62.437502 326.65625 87.55776 326.65625 118.5625 C 326.65623 149.56725 351.28881 174.71875 381.625 174.71875 C 411.96119 174.71876 436.5625 149.56725 436.5625 118.5625 C 436.5625 87.557759 411.96117 62.4375 381.625 62.4375 z M 661.84375 62.4375 C 630.5369 62.437502 605.09375 88.21738 605.09375 120.03125 C 605.09375 151.84513 630.5369 177.65625 661.84375 177.65625 C 686.36034 177.65626 707.2511 161.83229 715.15625 139.6875 L 683.5 139.6875 C 678.81627 149.13629 670.87716 155.375 661.84375 155.375 C 649.756 155.375 639.54353 144.22185 636.5625 129.125 L 674.125 129.125 L 674.125 127.375 L 718.0625 127.375 C 718.3643 124.96737 718.53125 122.52197 718.53125 120.03125 C 718.53123 88.217379 693.15058 62.4375 661.84375 62.4375 z M 94.875 64.15625 C 64.45091 64.49593 53.84799 78.71241 51.6875 98.65625 L 52.1875 98.65625 L 52.1875 170.15625 L 82.65625 170.15625 L 82.65625 98.65625 L 83.8125 98.65625 C 87.42654 91.67994 92.84159 87.25 98.875 87.25 C 104.78875 87.25 110.09998 91.511773 113.71875 98.25 L 113.71875 170.15625 L 144.21875 170.15625 L 144.21875 98.65625 L 144.6875 98.65625 C 148.30911 91.679939 153.71659 87.25 159.75 87.25 C 165.78341 87.250001 171.19846 91.67994 174.8125 98.65625 L 175.875 98.65625 L 175.875 170.15625 L 206.34375 170.15625 L 206.34375 98.65625 L 206.9375 98.65625 C 204.77701 78.712412 194.17409 64.495926 163.75 64.15625 C 162.45229 64.141761 161.12068 64.150863 159.75 64.1875 C 148.13737 64.187501 137.52006 69.142274 129.3125 77.34375 C 121.10494 69.142273 110.48762 64.1875 98.875 64.1875 C 97.50432 64.15086 96.17271 64.14176 94.875 64.15625 z M 495.5625 84.1875 C 506.93717 84.187497 516.51158 94.557631 519.375 108.625 L 519.375 126.15625 C 516.51156 140.22362 506.93714 150.5625 495.5625 150.5625 C 481.93 150.56249 470.875 135.68738 470.875 117.375 C 470.875 99.062623 481.92998 84.1875 495.5625 84.1875 z M 661.84375 84.71875 C 673.30982 84.718752 683.02806 94.717 686.53125 108.625 L 637.09375 108.625 C 640.61313 94.717002 650.37767 84.71875 661.84375 84.71875 z M 267.90625 85.84375 C 280.62036 85.843748 290.9375 100.49993 290.9375 118.5625 C 290.9375 136.62508 280.62036 151.3125 267.90625 151.3125 C 255.19213 151.31249 244.84375 136.62508 244.84375 118.5625 C 244.84375 100.49994 255.19214 85.84375 267.90625 85.84375 z M 381.625 85.84375 C 394.33912 85.843748 404.65625 100.49993 404.65625 118.5625 C 404.65623 136.62508 394.33911 151.3125 381.625 151.3125 C 368.91089 151.31249 358.59375 136.62508 358.59375 118.5625 C 358.59375 100.49994 368.91089 85.84375 381.625 85.84375 z "
         style="opacity:1;fill:#fb9c02;fill-opacity:1;stroke:none;stroke-width:5.29165649000000030;stroke-linejoin:round;stroke-miterlimit:4;stroke-dasharray:none;stroke-opacity:1" />
    </clipPath>
    <filter
       id="filter"
       height="2.0"
       width="2.0"
       x="-0.5"
       y="-0.5">
      <feGaussianBlur
         stdDeviation="5.0"
         id="feGaussianBlur4083" />
    </filter>
    <clipPath
       id="clipPathd">
      <path
         sodipodi:nodetypes="ccssscccccccccccsssccsssccssccsccsccccccccscccccsccccccscccccccssccccccsssccsssc"
         transform="translate(-0.1900293,428.7894)"
         style="opacity:1;fill:#fb9c02;fill-opacity:1;stroke:none;stroke-width:5.29165649000000030;stroke-linejoin:round;stroke-miterlimit:4;stroke-dasharray:none;stroke-opacity:1"
         d="M 519.375,8.375 L 519.375,75.375 C 511.0626,67.666325 500.46308,63.031246 488.90625,63.03125 C 462.23293,63.031248 440.59375,87.64964 440.59375,118 C 440.59374,148.35035 462.23293,172.96876 488.90625,172.96875 C 500.46308,172.96875 511.06259,168.33367 519.375,160.625 L 519.375,170.15625 L 549.84375,170.15625 L 549.84375,8.375 L 519.375,8.375 z M 566.84375,8.375 L 566.84375,170.15625 L 597.34375,170.15625 L 597.34375,8.375 L 566.84375,8.375 z M 267.90625,62.4375 C 237.57007,62.437502 212.9375,87.55776 212.9375,118.5625 C 212.93751,149.56725 237.57006,174.71875 267.90625,174.71875 C 298.24243,174.71876 322.84375,149.56725 322.84375,118.5625 C 322.84374,87.557759 298.24242,62.4375 267.90625,62.4375 z M 381.625,62.4375 C 351.28883,62.437502 326.65625,87.55776 326.65625,118.5625 C 326.65623,149.56725 351.28881,174.71875 381.625,174.71875 C 411.96119,174.71876 436.5625,149.56725 436.5625,118.5625 C 436.5625,87.557759 411.96117,62.4375 381.625,62.4375 z M 661.84375,62.4375 C 630.5369,62.437502 605.09375,88.21738 605.09375,120.03125 C 605.09375,151.84513 630.5369,177.65625 661.84375,177.65625 C 686.36034,177.65626 707.2511,161.83229 715.15625,139.6875 L 683.5,139.6875 C 678.81627,149.13629 670.87716,155.375 661.84375,155.375 C 649.756,155.375 639.54353,144.22185 636.5625,129.125 L 717.4763,128.5474 C 717.7781,126.13977 718.53125,122.52197 718.53125,120.03125 C 718.53123,88.217379 693.15058,62.4375 661.84375,62.4375 z M 94.875,64.15625 C 64.45091,64.49593 53.84799,78.71241 51.6875,98.65625 L 52.1875,98.65625 L 52.1875,170.15625 L 82.65625,170.15625 L 82.65625,98.65625 L 83.8125,98.65625 C 87.42654,91.67994 92.84159,87.25 98.875,87.25 C 104.78875,87.25 110.09998,91.511773 113.71875,98.25 L 113.71875,170.15625 L 144.21875,170.15625 L 144.21875,98.65625 L 144.6875,98.65625 C 148.30911,91.679939 153.71659,87.25 159.75,87.25 C 165.78341,87.250001 171.19846,91.67994 174.8125,98.65625 L 175.875,98.65625 L 175.875,170.15625 L 206.34375,170.15625 L 206.34375,98.65625 L 206.9375,98.65625 C 204.77701,78.712412 194.17409,64.495926 163.75,64.15625 C 162.45229,64.141761 161.12068,64.150863 159.75,64.1875 C 148.13737,64.187501 137.52006,69.142274 129.3125,77.34375 C 121.10494,69.142273 110.48762,64.1875 98.875,64.1875 C 97.50432,64.15086 96.17271,64.14176 94.875,64.15625 z M 495.5625,84.1875 C 506.93717,84.187497 516.51158,94.557631 519.375,108.625 L 519.375,126.15625 C 516.51156,140.22362 506.93714,150.5625 495.5625,150.5625 C 481.93,150.56249 470.875,135.68738 470.875,117.375 C 470.875,99.062623 481.92998,84.1875 495.5625,84.1875 z M 661.84375,84.71875 C 673.30982,84.718752 683.02806,94.717 686.53125,108.625 L 637.09375,108.625 C 640.61313,94.717002 650.37767,84.71875 661.84375,84.71875 z M 267.90625,85.84375 C 280.62036,85.843748 290.9375,100.49993 290.9375,118.5625 C 290.9375,136.62508 280.62036,151.3125 267.90625,151.3125 C 255.19213,151.31249 244.84375,136.62508 244.84375,118.5625 C 244.84375,100.49994 255.19214,85.84375 267.90625,85.84375 z M 381.625,85.84375 C 394.33912,85.843748 404.65625,100.49993 404.65625,118.5625 C 404.65623,136.62508 394.33911,151.3125 381.625,151.3125 C 368.91089,151.31249 358.59375,136.62508 358.59375,118.5625 C 358.59375,100.49994 368.91089,85.84375 381.625,85.84375 z"
         id="path2586" />
    </clipPath>
    <filter
       y="-0.5"
       x="-0.5"
       width="2.0"
       height="2.0"
       id="filterK">
      <feGaussianBlur
         id="feGaussianBlur4147"
         stdDeviation="5.0" />
    </filter>
    <radialGradient
       inkscape:collect="always"
       xlink:href="#linearGradient3187"
       id="radialGradient3193"
       cx="71.30822"
       cy="535.04962"
       fx="71.30822"
       fy="535.04962"
       r="63.818954"
       gradientTransform="matrix(0.5223717,-8.5541217e-3,3.5724983e-3,0.2181606,32.349443,377.08216)"
       gradientUnits="userSpaceOnUse" />
    <linearGradient
       inkscape:collect="always"
       xlink:href="#linearGradient3195"
       id="linearGradient3201"
       x1="94.776047"
       y1="511.9057"
       x2="103.21809"
       y2="502.52649"
       gradientUnits="userSpaceOnUse" />
    <linearGradient
       inkscape:collect="always"
       xlink:href="#linearGradient3203"
       id="linearGradient3209"
       x1="64.697289"
       y1="502.40942"
       x2="72.317894"
       y2="519.99542"
       gradientUnits="userSpaceOnUse" />
  </defs>
  <metadata
     id="metadata7">
    <rdf:RDF>
      <cc:Work
         rdf:about="">
        <dc:format>image/svg+xml</dc:format>
        <dc:type
           rdf:resource="http://purl.org/dc/dcmitype/StillImage" />
      </cc:Work>
    </rdf:RDF>
  </metadata>
  <g
     inkscape:label="Ebene 1"
     inkscape:groupmode="layer"
     id="layer1"
     transform="translate(0.1900293,-428.7894)">
    <path
       style="opacity:1;fill:#b3b3b3;fill-opacity:1;stroke:none;stroke-width:5.29165649;stroke-linejoin:round;stroke-miterlimit:4;stroke-dasharray:none;stroke-opacity:1;filter:url(#filter3416)"
       d="M 525.25 13.65625 L 525.25 80.65625 C 516.93761 72.947577 506.33808 68.3125 494.78125 68.3125 C 468.10794 68.312497 446.46875 92.93089 446.46875 123.28125 C 446.46875 153.6316 468.10793 178.25001 494.78125 178.25 C 506.33809 178.25 516.93759 173.61492 525.25 165.90625 L 525.25 175.4375 L 555.71875 175.4375 L 555.71875 13.65625 L 525.25 13.65625 z M 572.71875 13.65625 L 572.71875 175.4375 L 603.21875 175.4375 L 603.21875 13.65625 L 572.71875 13.65625 z M 145.03125 31.78125 L 73.125 38.375 L 17.40625 72.53125 L 34.40625 72.25 C 34.230904 72.579427 34.062078 72.89615 33.84375 73.28125 C 33.609972 74.373857 33.631564 75.48193 33.625 76.59375 C 33.62666 77.676047 33.955105 78.73964 34.09375 79.8125 C 34.213312 80.389787 34.216211 80.94686 34.15625 81.5 C 34.343811 81.295797 34.514496 81.1112 34.71875 80.875 C 34.700454 80.857777 34.67428 80.86319 34.65625 80.84375 C 34.707377 80.832997 34.737368 80.8488 34.78125 80.84375 C 34.808438 80.812167 34.81627 80.78218 34.84375 80.75 C 34.882083 80.705117 34.895403 80.74862 34.9375 80.8125 C 35.149487 80.823787 35.254077 80.91699 35.25 81.09375 C 35.488507 81.071037 35.718827 80.92796 35.875 80.65625 C 35.671917 81.015457 35.646355 81.0581 35.46875 81.375 C 35.516749 81.418157 35.560171 81.44141 35.625 81.5 C 35.823915 81.690927 36.008319 81.87024 36.1875 82.0625 C 36.818931 80.903887 37.265043 79.75534 37.46875 78.1875 C 37.666236 77.111857 37.691254 76.05149 37.5 74.96875 C 37.356679 74.055297 37.112323 73.14471 37.09375 72.21875 L 59.53125 71.84375 L 56.34375 89.3125 L 60.8125 90.5 C 59.117893 94.562718 58.089119 99.076189 57.5625 103.9375 L 58.0625 103.9375 L 58.0625 175.4375 L 88.53125 175.4375 L 88.53125 103.9375 L 89.6875 103.9375 C 90.643938 102.09125 91.719457 100.4234 92.90625 98.96875 L 98.78125 100.53125 L 98.875 100.71875 L 98.96875 100.59375 L 99.5 100.71875 L 99.3125 100.15625 L 105.34375 92.5625 C 111.01598 92.840075 116.09784 97.021805 119.59375 103.53125 L 119.59375 175.4375 L 150.09375 175.4375 L 150.09375 103.9375 L 150.5625 103.9375 C 154.1841 96.961187 159.59159 92.53125 165.625 92.53125 C 171.6584 92.531247 177.07346 96.96119 180.6875 103.9375 L 181.75 103.9375 L 181.75 175.4375 L 212.21875 175.4375 L 212.21875 103.9375 L 212.8125 103.9375 C 210.652 83.993667 200.04909 69.77718 169.625 69.4375 C 168.32728 69.423007 166.99568 69.43212 165.625 69.46875 C 154.01236 69.468747 143.39506 74.42353 135.1875 82.625 C 131.01562 78.456221 126.20006 75.110547 120.96875 72.84375 L 124.0625 68.9375 L 112.6875 55 L 145.03125 31.78125 z M 36.1875 82.0625 C 35.52369 83.280527 34.681671 84.49847 33.71875 86.15625 C 33.250406 86.552647 32.671294 86.51238 32.15625 86.28125 C 32.331801 86.428297 32.543902 86.54663 32.5625 86.5625 C 33.202853 87.173127 33.677873 87.65647 33.71875 88.5625 C 33.749315 89.705777 33.444336 90.80962 33.28125 91.9375 C 33.022473 93.160507 33.127798 94.35311 33.34375 95.5625 C 33.53512 96.645177 33.594681 97.71589 33.625 98.8125 C 33.557142 99.951867 33.104662 100.98781 32.78125 102.0625 C 32.21622 102.91723 32.023548 103.90753 31.90625 104.90625 C 31.687198 106.04863 32.040315 107.04549 32.4375 108.09375 C 32.957409 108.95731 33.340947 109.86226 33.96875 110.65625 C 34.565242 111.34833 35.068237 112.08057 35.46875 112.90625 C 35.939299 113.84682 35.706616 114.79049 35.59375 115.78125 C 35.472295 116.90394 35.457495 118.05937 35.4375 119.1875 C 35.424853 120.2633 35.740877 121.27732 35.875 122.34375 C 35.873553 123.43386 36.115259 124.47459 36.34375 125.53125 C 36.349666 125.57116 36.337701 125.61622 36.34375 125.65625 C 36.763289 125.23923 37.491202 125.27749 38.03125 125.28125 C 38.292225 125.23321 38.383742 125.26776 38.59375 125.09375 C 38.694 125.01068 38.936785 124.69791 38.875 124.8125 C 37.802601 126.80154 37.193432 127.91028 36.6875 128.875 C 36.723756 129.09285 36.773656 129.31145 36.8125 129.53125 C 36.853469 129.76645 36.845786 130.01349 36.875 130.25 C 38.811414 129.20541 39.682553 126.13995 40.03125 123.9375 C 40.061094 122.8404 39.946749 121.72978 39.71875 120.65625 C 39.487181 119.61414 39.394303 118.56406 39.3125 117.5 C 39.154581 116.46242 38.861536 115.4648 38.9375 114.40625 C 38.968301 113.28435 39.020782 112.14623 39.15625 111.03125 C 39.266369 109.95327 39.258164 108.95332 38.71875 107.96875 C 38.275247 107.13449 37.731926 106.37798 37.125 105.65625 C 36.575032 104.87996 36.183641 104.00024 35.75 103.15625 C 35.395904 102.15981 35.241781 101.20946 35.46875 100.15625 C 35.650947 99.178057 36.034929 98.28058 36.4375 97.375 C 36.79704 96.285597 37.068339 95.19036 37.0625 94.03125 C 37.017658 92.915327 36.957145 91.78708 36.75 90.6875 C 36.561105 89.522057 36.587131 88.38343 36.8125 87.21875 C 36.998581 86.056297 37.293854 84.87097 37.125 83.6875 C 36.970332 83.017817 36.62465 82.53157 36.1875 82.0625 z M 36.875 130.25 C 36.550896 130.42484 36.198631 130.51399 35.8125 130.5625 C 35.699127 130.78876 35.661371 130.81883 35.78125 130.5625 C 35.644789 130.57824 35.519577 130.59599 35.375 130.59375 C 35.028178 130.54395 34.692115 130.54801 34.4375 130.71875 C 34.30134 130.9473 34.169474 131.17893 34.03125 131.40625 C 33.966668 131.51246 34.107567 131.17687 34.15625 131.0625 C 34.224619 130.90188 34.32616 130.79341 34.4375 130.71875 C 35.15858 129.50838 35.854417 128.28061 36.5625 127.0625 C 36.518539 126.59415 36.413251 126.11625 36.34375 125.65625 C 36.283817 125.71582 36.233063 125.79492 36.1875 125.875 C 35.149075 127.70018 34.165899 129.53376 33.15625 131.375 C 32.924937 132.39904 33.239306 133.40104 33.40625 134.40625 C 33.570732 135.51707 33.604286 136.62924 33.625 137.75 C 33.530839 138.89887 33.711945 139.97732 33.9375 141.09375 C 34.011467 142.13363 34.28822 143.11807 34.53125 144.125 C 34.811193 145.04108 35.034761 146.0192 35.40625 146.90625 C 35.514347 147.28495 35.850253 147.73685 35.71875 148.15625 C 35.692048 148.24141 35.527344 148.28582 35.53125 148.375 C 35.545973 148.71111 35.784418 148.96765 35.90625 149.28125 C 36.323953 150.37468 36.472697 151.5602 36.5625 152.71875 C 36.677854 153.93107 36.657291 155.08841 36.4375 156.28125 L 39.96875 151.5625 C 40.141407 150.34193 40.107779 149.10144 40 147.875 C 39.874038 146.68168 39.670666 145.50436 39.25 144.375 C 39.031941 143.59455 39.19976 142.73968 38.71875 142 C 38.422789 141.09663 38.124781 140.17485 37.90625 139.25 C 37.650975 138.25502 37.49214 137.26617 37.34375 136.25 C 37.126422 135.16063 37.061043 134.08073 37.09375 132.96875 C 37.068187 132.06519 36.98584 131.14733 36.875 130.25 z M 36.5625 127.0625 C 36.589265 127.34762 36.60015 127.62228 36.59375 127.90625 C 36.587331 127.5052 36.62596 127.09026 36.78125 126.6875 C 36.708258 126.81237 36.635191 126.93745 36.5625 127.0625 z M 36.59375 127.90625 C 36.587809 128.16992 36.549444 128.4275 36.5 128.6875 C 36.330539 129.36063 36.020248 130.11742 35.8125 130.5625 C 35.923285 130.34141 36.183703 129.83565 36.6875 128.875 C 36.632533 128.54471 36.599004 128.23447 36.59375 127.90625 z M 35.46875 81.375 C 35.389184 81.303467 35.324929 81.19602 35.25 81.125 C 35.217518 81.612027 34.530439 82.56367 33.78125 83.5 C 33.287771 85.827517 31.713636 88.0753 35.46875 81.375 z M 33.78125 83.5 C 33.822871 83.303697 33.887001 83.09398 33.90625 82.90625 C 34.00104 82.425107 34.105055 81.97228 34.15625 81.5 C 31.028939 84.904857 30.187631 84.11563 31.59375 85.9375 C 31.747189 86.054757 31.916653 86.1643 32.09375 86.25 C 31.910096 86.092867 31.757065 85.91673 31.78125 85.875 C 31.84359 85.767437 32.866103 84.64375 33.78125 83.5 z M 35.25 81.125 C 35.250539 81.116937 35.24982 81.10155 35.25 81.09375 C 35.228514 81.095797 35.209218 81.09414 35.1875 81.09375 C 35.203758 81.109397 35.234832 81.11063 35.25 81.125 z M 35.1875 81.09375 C 35.155313 81.062777 35.132722 81.03847 35.09375 81 C 35.051743 80.958537 34.979597 80.87639 34.9375 80.8125 C 34.892872 80.810127 34.8371 80.83734 34.78125 80.84375 C 34.765244 80.862347 34.734656 80.85661 34.71875 80.875 C 34.872489 81.019737 35.030291 81.09097 35.1875 81.09375 z M 273.78125 67.71875 C 243.44508 67.718757 218.8125 92.83901 218.8125 123.84375 C 218.8125 154.8485 243.44506 180 273.78125 180 C 304.11744 180.00001 328.71875 154.8485 328.71875 123.84375 C 328.71875 92.839007 304.11742 67.71875 273.78125 67.71875 z M 387.5 67.71875 C 357.16384 67.718757 332.53125 92.83901 332.53125 123.84375 C 332.53124 154.8485 357.16381 180 387.5 180 C 417.8362 180.00001 442.4375 154.8485 442.4375 123.84375 C 442.43751 92.839007 417.83617 67.71875 387.5 67.71875 z M 667.71875 67.71875 C 636.41191 67.718757 610.96875 93.49863 610.96875 125.3125 C 610.96876 157.12638 636.4119 182.9375 667.71875 182.9375 C 692.23535 182.93751 713.1261 167.11354 721.03125 144.96875 L 689.375 144.96875 C 684.69128 154.41754 676.75216 160.65625 667.71875 160.65625 C 655.63101 160.65625 645.41853 149.5031 642.4375 134.40625 L 680 134.40625 L 680 132.65625 L 723.9375 132.65625 C 724.23931 130.24862 724.40625 127.80322 724.40625 125.3125 C 724.40624 93.498627 699.02558 67.71875 667.71875 67.71875 z M 35.96875 72.21875 C 35.636144 72.359367 35.337408 72.53623 35.09375 72.8125 C 34.993704 72.981097 34.881708 73.14415 34.78125 73.3125 C 34.709882 73.432107 34.89195 73.0537 34.96875 72.9375 C 35.002924 72.885797 35.054975 72.85647 35.09375 72.8125 C 35.205625 72.623977 35.326044 72.43878 35.4375 72.25 L 35.96875 72.21875 z M 501.4375 89.46875 C 512.81218 89.468747 522.38658 99.83888 525.25 113.90625 L 525.25 131.4375 C 522.38657 145.50487 512.81214 155.84375 501.4375 155.84375 C 487.80501 155.84374 476.75 140.96863 476.75 122.65625 C 476.75001 104.34388 487.80498 89.46875 501.4375 89.46875 z M 667.71875 90 C 679.18483 90.000007 688.90306 99.99825 692.40625 113.90625 L 642.96875 113.90625 C 646.48814 99.998257 656.25267 90 667.71875 90 z M 273.78125 91.125 C 286.49537 91.124997 296.8125 105.78118 296.8125 123.84375 C 296.81251 141.90633 286.49536 156.59375 273.78125 156.59375 C 261.06714 156.59374 250.71875 141.90633 250.71875 123.84375 C 250.71874 105.78119 261.06714 91.125 273.78125 91.125 z M 387.5 91.125 C 400.21413 91.124997 410.53125 105.78118 410.53125 123.84375 C 410.53124 141.90633 400.21411 156.59375 387.5 156.59375 C 374.7859 156.59374 364.46875 141.90633 364.46875 123.84375 C 364.46876 105.78119 374.78589 91.125 387.5 91.125 z "
       transform="translate(-0.1900293,428.7894)"
       id="path3414" />
    <path
       sodipodi:nodetypes="ccssscccccccccccsssccsssccssccsccsccccccccscccccsccccccscccccccssccccccsssccsssc"
       style="opacity:1;fill:#fb9c02;fill-opacity:1;stroke:none;stroke-width:5.29165649000000030;stroke-linejoin:round;stroke-miterlimit:4;stroke-dasharray:none;stroke-opacity:1"
       d="M 519.375,8.375 L 519.375,75.375 C 511.0626,67.666325 500.46308,63.031246 488.90625,63.03125 C 462.23293,63.031248 440.59375,87.64964 440.59375,118 C 440.59374,148.35035 462.23293,172.96876 488.90625,172.96875 C 500.46308,172.96875 511.06259,168.33367 519.375,160.625 L 519.375,170.15625 L 549.84375,170.15625 L 549.84375,8.375 L 519.375,8.375 z M 566.84375,8.375 L 566.84375,170.15625 L 597.34375,170.15625 L 597.34375,8.375 L 566.84375,8.375 z M 267.90625,62.4375 C 237.57007,62.437502 212.9375,87.55776 212.9375,118.5625 C 212.93751,149.56725 237.57006,174.71875 267.90625,174.71875 C 298.24243,174.71876 322.84375,149.56725 322.84375,118.5625 C 322.84374,87.557759 298.24242,62.4375 267.90625,62.4375 z M 381.625,62.4375 C 351.28883,62.437502 326.65625,87.55776 326.65625,118.5625 C 326.65623,149.56725 351.28881,174.71875 381.625,174.71875 C 411.96119,174.71876 436.5625,149.56725 436.5625,118.5625 C 436.5625,87.557759 411.96117,62.4375 381.625,62.4375 z M 661.84375,62.4375 C 630.5369,62.437502 605.09375,88.21738 605.09375,120.03125 C 605.09375,151.84513 630.5369,177.65625 661.84375,177.65625 C 686.36034,177.65626 707.2511,161.83229 715.15625,139.6875 L 683.5,139.6875 C 678.81627,149.13629 670.87716,155.375 661.84375,155.375 C 649.756,155.375 639.54353,144.22185 636.5625,129.125 L 717.4763,128.5474 C 717.7781,126.13977 718.53125,122.52197 718.53125,120.03125 C 718.53123,88.217379 693.15058,62.4375 661.84375,62.4375 z M 94.875,64.15625 C 64.45091,64.49593 53.84799,78.71241 51.6875,98.65625 L 52.1875,98.65625 L 52.1875,170.15625 L 82.65625,170.15625 L 82.65625,98.65625 L 83.8125,98.65625 C 87.42654,91.67994 92.84159,87.25 98.875,87.25 C 104.78875,87.25 110.09998,91.511773 113.71875,98.25 L 113.71875,170.15625 L 144.21875,170.15625 L 144.21875,98.65625 L 144.6875,98.65625 C 148.30911,91.679939 153.71659,87.25 159.75,87.25 C 165.78341,87.250001 171.19846,91.67994 174.8125,98.65625 L 175.875,98.65625 L 175.875,170.15625 L 206.34375,170.15625 L 206.34375,98.65625 L 206.9375,98.65625 C 204.77701,78.712412 194.17409,64.495926 163.75,64.15625 C 162.45229,64.141761 161.12068,64.150863 159.75,64.1875 C 148.13737,64.187501 137.52006,69.142274 129.3125,77.34375 C 121.10494,69.142273 110.48762,64.1875 98.875,64.1875 C 97.50432,64.15086 96.17271,64.14176 94.875,64.15625 z M 495.5625,84.1875 C 506.93717,84.187497 516.51158,94.557631 519.375,108.625 L 519.375,126.15625 C 516.51156,140.22362 506.93714,150.5625 495.5625,150.5625 C 481.93,150.56249 470.875,135.68738 470.875,117.375 C 470.875,99.062623 481.92998,84.1875 495.5625,84.1875 z M 661.84375,84.71875 C 673.30982,84.718752 683.02806,94.717 686.53125,108.625 L 637.09375,108.625 C 640.61313,94.717002 650.37767,84.71875 661.84375,84.71875 z M 267.90625,85.84375 C 280.62036,85.843748 290.9375,100.49993 290.9375,118.5625 C 290.9375,136.62508 280.62036,151.3125 267.90625,151.3125 C 255.19213,151.31249 244.84375,136.62508 244.84375,118.5625 C 244.84375,100.49994 255.19214,85.84375 267.90625,85.84375 z M 381.625,85.84375 C 394.33912,85.843748 404.65625,100.49993 404.65625,118.5625 C 404.65623,136.62508 394.33911,151.3125 381.625,151.3125 C 368.91089,151.31249 358.59375,136.62508 358.59375,118.5625 C 358.59375,100.49994 368.91089,85.84375 381.625,85.84375 z"
       id="path4152"
       transform="translate(-0.1900293,428.7894)" />
    <g
       id="g4159"
       clip-path="url(#clipPathd)"
       style="opacity:0.6">
      <g
         id="g4161">
        <path
           sodipodi:nodetypes="ccssscccccccccccsssccsssccssccsccsccccccccscccccsccccccscccccccssccccccsssccsssc"
           transform="translate(-0.1900293,428.7894)"
           style="fill:none;stroke:#ffffff;stroke-opacity:1;stroke-width:10;filter:url(#filterK)"
           d="M519.375 8.375L519.375 75.375M488.90625 63.03125C462.23293 63.031248 440.59375 87.64964 440.59375 118.0M440.59375 118.0C440.59374 148.35035 462.23293 172.96876 488.90625 172.96875M519.375 160.625L519.375 170.15625M549.84375 8.375L519.375 8.375M566.84375 8.375L566.84375 170.15625M597.34375 8.375L566.84375 8.375M267.90625 62.4375C237.57007 62.437502 212.9375 87.55776 212.9375 118.5625M212.9375 118.5625C212.93751 149.56725 237.57006 174.71875 267.90625 174.71875M381.625 62.4375C351.28883 62.437502 326.65625 87.55776 326.65625 118.5625M326.65625 118.5625C326.65623 149.56725 351.28881 174.71875 381.625 174.71875M661.84375 62.4375C630.5369 62.437502 605.09375 88.21738 605.09375 120.03125M605.09375 120.03125C605.09375 151.84513 630.5369 177.65625 661.84375 177.65625M715.15625 139.6875L683.5 139.6875M683.5 139.6875C678.81627 149.13629 670.87716 155.375 661.84375 155.375M94.875 64.15625C64.45091 64.49593 53.84799 78.71241 51.6875 98.65625M52.1875 98.65625L52.1875 170.15625M98.875 87.25C104.78875 87.25 110.09998 91.511773 113.71875 98.25M113.71875 98.25L113.71875 170.15625M159.75 87.25C165.78341 87.250001 171.19846 91.67994 174.8125 98.65625M175.875 98.65625L175.875 170.15625M163.75 64.15625C162.45229 64.141761 161.12068 64.150863 159.75 64.1875M159.75 64.1875C148.13737 64.187501 137.52006 69.142274 129.3125 77.34375M495.5625 84.1875C506.93717 84.187497 516.51158 94.557631 519.375 108.625M519.375 108.625L519.375 126.15625M519.375 126.15625C516.51156 140.22362 506.93714 150.5625 495.5625 150.5625M661.84375 84.71875C673.30982 84.718752 683.02806 94.717 686.53125 108.625M686.53125 108.625L637.09375 108.625M267.90625 85.84375C280.62036 85.843748 290.9375 100.49993 290.9375 118.5625M290.9375 118.5625C290.9375 136.62508 280.62036 151.3125 267.90625 151.3125M381.625 85.84375C394.33912 85.843748 404.65625 100.49993 404.65625 118.5625M404.65625 118.5625C404.65623 136.62508 394.33911 151.3125 381.625 151.3125"
           id="path4163" />
        <path
           sodipodi:nodetypes="ccssscccccccccccsssccsssccssccsccsccccccccscccccsccccccscccccccssccccccsssccsssc"
           transform="translate(-0.1900293,428.7894)"
           style="fill:none;stroke:#000000;stroke-opacity:1;stroke-width:10;filter:url(#filterK)"
           d="M519.375 75.375C511.0626 67.666325 500.46308 63.031246 488.90625 63.03125M488.90625 172.96875C500.46308 172.96875 511.06259 168.33367 519.375 160.625M519.375 170.15625L549.84375 170.15625M549.84375 170.15625L549.84375 8.375M566.84375 170.15625L597.34375 170.15625M597.34375 170.15625L597.34375 8.375M267.90625 174.71875C298.24243 174.71876 322.84375 149.56725 322.84375 118.5625M322.84375 118.5625C322.84374 87.557759 298.24242 62.4375 267.90625 62.4375M381.625 174.71875C411.96119 174.71876 436.5625 149.56725 436.5625 118.5625M436.5625 118.5625C436.5625 87.557759 411.96117 62.4375 381.625 62.4375M661.84375 177.65625C686.36034 177.65626 707.2511 161.83229 715.15625 139.6875M661.84375 155.375C649.756 155.375 639.54353 144.22185 636.5625 129.125M636.5625 129.125L717.4763 128.5474M717.4763 128.5474C717.7781 126.13977 718.53125 122.52197 718.53125 120.03125M718.53125 120.03125C718.53123 88.217379 693.15058 62.4375 661.84375 62.4375M51.6875 98.65625L52.1875 98.65625M52.1875 170.15625L82.65625 170.15625M82.65625 170.15625L82.65625 98.65625M82.65625 98.65625L83.8125 98.65625M83.8125 98.65625C87.42654 91.67994 92.84159 87.25 98.875 87.25M113.71875 170.15625L144.21875 170.15625M144.21875 170.15625L144.21875 98.65625M144.21875 98.65625L144.6875 98.65625M144.6875 98.65625C148.30911 91.679939 153.71659 87.25 159.75 87.25M174.8125 98.65625L175.875 98.65625M175.875 170.15625L206.34375 170.15625M206.34375 170.15625L206.34375 98.65625M206.34375 98.65625L206.9375 98.65625M206.9375 98.65625C204.77701 78.712412 194.17409 64.495926 163.75 64.15625M129.3125 77.34375C121.10494 69.142273 110.48762 64.1875 98.875 64.1875M98.875 64.1875C97.50432 64.15086 96.17271 64.14176 94.875 64.15625M495.5625 150.5625C481.93 150.56249 470.875 135.68738 470.875 117.375M470.875 117.375C470.875 99.062623 481.92998 84.1875 495.5625 84.1875M637.09375 108.625C640.61313 94.717002 650.37767 84.71875 661.84375 84.71875M267.90625 151.3125C255.19213 151.31249 244.84375 136.62508 244.84375 118.5625M244.84375 118.5625C244.84375 100.49994 255.19214 85.84375 267.90625 85.84375M381.625 151.3125C368.91089 151.31249 358.59375 136.62508 358.59375 118.5625M358.59375 118.5625C358.59375 100.49994 368.91089 85.84375 381.625 85.84375"
           id="path4165" />
      </g>
    </g>
    <path
       style="fill:url(#linearGradient3201);fill-opacity:1;fill-rule:evenodd;stroke:none;stroke-width:1px;stroke-linecap:butt;stroke-linejoin:miter;stroke-opacity:1"
       d="M 93.29126,526.49606 L 118.4593,494.7364 L 105.27604,478.55694 L 80.70724,497.73259 L 93.29126,526.49606 z"
       id="path3424" />
    <path
       style="fill:url(#linearGradient3209);fill-opacity:1;fill-rule:evenodd;stroke:none;stroke-width:1px;stroke-linecap:butt;stroke-linejoin:miter;stroke-opacity:1"
       d="M 54.340723,495.33563 L 50.745289,515.11052 L 93.890499,526.49606 L 83.104196,494.7364 L 54.340723,495.33563 z"
       id="path3422"
       sodipodi:nodetypes="ccccc" />
    <path
       style="fill:url(#radialGradient3193);fill-opacity:1;fill-rule:evenodd;stroke:none;stroke-width:1px;stroke-linecap:butt;stroke-linejoin:miter;stroke-opacity:1"
       d="M 11.794752,498.33183 L 84.302674,497.13335 L 139.43266,457.58357 L 67.523981,464.1752 L 11.794752,498.33183 z"
       id="path3420" />
    <path
       style="fill:#000000;fill-opacity:1;stroke:none;stroke-width:5;stroke-linejoin:round;stroke-miterlimit:4;stroke-dasharray:none;stroke-opacity:1"
       id="path3428"
       d="M 66.470386,481.47462 C 64.568291,482.43627 62.65714,483.41025 60.908984,484.63487 C 60.638469,484.81932 60.359701,484.99221 60.097438,485.18822 C 59.221753,485.84267 59.712416,485.58565 58.868596,486.17023 C 58.369996,486.51565 57.816063,486.72878 57.299444,487.04185 C 56.272221,487.65356 55.152391,488.06814 54.069772,488.56572 C 52.862896,488.95302 51.757483,489.55758 50.615768,490.09442 C 49.496752,490.60181 48.365065,490.99493 47.153119,491.20567 C 46.054414,491.587 44.92072,491.84628 43.834359,492.26298 C 42.577537,492.72235 41.288455,493.0946 40.038759,493.57195 C 38.759758,493.97032 37.639443,494.72729 36.45559,495.33448 C 35.416904,495.80479 34.279816,496.08431 33.278804,496.63193 C 32.468326,497.03397 31.585452,497.32733 30.821932,497.81514 C 30.306737,498.09624 29.710437,498.19373 29.365286,498.71593 C 29.288486,498.83212 29.10897,499.21022 29.180339,499.09061 C 30.106635,497.53825 31.013905,495.97463 31.930689,494.41664 C 31.512555,495.42563 31.521647,496.53959 31.49925,497.61418 C 31.435725,498.68006 31.743899,499.71148 31.907661,500.75521 C 32.098916,501.83794 32.083736,502.90158 31.886251,503.97723 C 31.46839,507.1933 29.989541,508.7206 28.11067,511.95531 C 27.459496,512.50644 26.599635,512.2039 25.985873,511.73489 C 24.477701,509.7808 25.518816,510.88263 29.234483,506.53167 C 29.311147,506.4419 29.399195,506.70085 29.483211,506.78378 C 29.697757,506.99555 29.784176,507.0682 30.021301,507.28253 C 30.705509,507.93926 31.320662,508.54822 31.538727,509.49239 C 31.707581,510.67585 31.40153,511.84699 31.21545,513.00945 C 30.990081,514.17413 30.965734,515.31817 31.15463,516.48362 C 31.361776,517.58319 31.435458,518.69926 31.480301,519.81518 C 31.48614,520.97429 31.187435,522.08131 30.827896,523.17071 C 30.425325,524.07629 30.060453,524.96457 29.878257,525.94277 C 29.651289,526.99598 29.799491,527.96092 30.153588,528.95736 C 30.587228,529.80135 30.993554,530.66429 31.543523,531.44058 C 32.15045,532.16231 32.681876,532.91095 33.12538,533.74521 C 33.664796,534.72978 33.657546,535.74387 33.547428,536.82185 C 33.41196,537.93683 33.362084,539.05881 33.331284,540.18071 C 33.25532,541.23926 33.552173,542.26675 33.710093,543.30433 C 33.791898,544.36839 33.897798,545.41085 34.129368,546.45296 C 34.357367,547.52649 34.476419,548.62408 34.446576,549.72118 C 34.01741,552.43189 32.792121,556.44012 29.770323,556.39331 C 29.271838,556.32174 28.773361,556.3134 28.548648,556.84132 C 28.499964,556.9557 28.37754,557.30491 28.442123,557.1987 C 29.3875,555.64394 30.278675,554.05687 31.196951,552.48595 C 30.83075,553.43572 31.047955,554.37341 31.217653,555.33364 C 31.414054,556.46119 31.461416,557.60591 31.493718,558.74762 C 31.46101,559.8596 31.523877,560.9431 31.741206,562.03247 C 31.889595,563.04864 32.051881,564.04792 32.307157,565.0429 C 32.525687,565.96774 32.821254,566.87684 33.117216,567.78021 C 33.598224,568.51989 33.431211,569.39516 33.649271,570.17561 C 34.069935,571.30498 34.2776,572.4855 34.403563,573.67882 C 34.511344,574.90526 34.55447,576.13094 34.381814,577.35151 L 30.827353,582.08161 C 31.047144,580.88877 31.084977,579.70958 30.969624,578.49726 C 30.879821,577.33871 30.737142,576.17877 30.31944,575.08534 C 30.197607,574.77174 29.942586,574.49121 29.927864,574.1551 C 29.923958,574.06593 30.080832,574.04174 30.107535,573.95658 C 30.239038,573.53718 29.911643,573.08232 29.803547,572.70362 C 29.432058,571.81657 29.219033,570.84096 28.939091,569.92488 C 28.696061,568.91795 28.425786,567.93729 28.35182,566.89741 C 28.126265,565.78099 27.931574,564.69332 28.025736,563.54445 C 28.005022,562.42369 27.979288,561.29933 27.814807,560.18851 C 27.647862,559.1833 27.319869,558.19867 27.551183,557.17463 C 28.560833,555.33338 29.541707,553.47605 30.580133,551.65087 C 30.944634,551.01021 31.816666,551.07349 32.433864,551.07779 C 32.694839,551.02975 32.792168,551.04767 33.002176,550.87366 C 33.102424,550.79059 33.33023,550.47333 33.268445,550.58792 C 28.160249,560.06237 30.445439,556.3333 30.911743,554.48107 C 31.10952,553.44108 30.901851,552.36142 30.748178,551.32448 C 30.519688,550.26782 30.291804,549.23672 30.293252,548.14661 C 30.159128,547.08018 29.828553,546.03746 29.841201,544.96166 C 29.861197,543.83353 29.889178,542.70399 30.010634,541.5813 C 30.1235,540.59054 30.341156,539.64028 29.870608,538.69971 C 29.470095,537.87403 28.967287,537.15032 28.370796,536.45824 C 27.742993,535.66425 27.361418,534.7343 26.84151,533.87074 C 26.444326,532.82248 26.104087,531.8271 26.323138,530.68472 C 26.440435,529.686 26.633904,528.71227 27.198935,527.85754 C 27.522347,526.78285 27.948796,525.75603 28.016655,524.61667 C 27.986336,523.52005 27.943068,522.42022 27.751699,521.33754 C 27.535748,520.12815 27.411664,518.95981 27.670442,517.7368 C 27.833529,516.60892 28.145192,515.4943 28.114628,514.35102 C 28.073751,513.44499 27.590968,512.97785 26.950616,512.36722 C 26.910136,512.33269 26.143513,511.7453 26.193444,511.65915 C 26.334024,511.4166 31.33025,506.15357 29.062131,506.63061 C 29.484912,507.08643 29.987233,506.92764 30.271439,506.43318 C 25.412413,515.02767 28.052654,511.22742 28.310931,508.70855 C 28.51674,507.66387 28.714538,506.66883 28.492895,505.59867 C 28.35425,504.5258 28.015398,503.48043 28.013739,502.39814 C 28.020303,501.28631 28.009561,500.16131 28.24334,499.0687 C 30.987585,494.22816 30.022312,494.02771 33.247616,492.39534 C 34.074093,492.00113 34.896115,491.60042 35.734421,491.23179 C 36.780987,490.79838 37.852458,490.42274 38.880121,489.94647 C 40.068037,489.30642 41.238503,488.61164 42.537136,488.21463 C 43.801044,487.7773 45.071052,487.35779 46.331042,486.90911 C 47.452442,486.52228 48.59087,486.18045 49.738905,485.88232 C 50.899264,485.63494 51.990093,485.2075 53.063632,484.70448 C 54.194709,484.14499 55.347838,483.64951 56.525364,483.19624 C 57.610536,482.71739 58.688403,482.2287 59.714058,481.62906 C 60.977274,480.95759 62.075824,480.0763 63.254003,479.26897 C 65.075726,478.09182 67.000521,477.08451 68.915903,476.06934 L 66.470386,481.47462 z" />
  </g>
</svg>
