<?xml version="1.0" encoding="UTF-8" standalone="no"?>
<!-- Created with Inkscape (http://www.inkscape.org/) -->

<svg
   xmlns:dc="http://purl.org/dc/elements/1.1/"
   xmlns:cc="http://creativecommons.org/ns#"
   xmlns:rdf="http://www.w3.org/1999/02/22-rdf-syntax-ns#"
   xmlns:svg="http://www.w3.org/2000/svg"
   xmlns="http://www.w3.org/2000/svg"
   xmlns:xlink="http://www.w3.org/1999/xlink"
   xmlns:sodipodi="http://sodipodi.sourceforge.net/DTD/sodipodi-0.dtd"
   xmlns:inkscape="http://www.inkscape.org/namespaces/inkscape"
   id="svg3201"
   version="1.1"
   inkscape:version="0.48.3.1 r9886"
   width="48"
   height="48"
   sodipodi:docname="DrupalMu.svg"
   inkscape:export-filename="/home/glic3rinu/orchestra/django-orchestra/orchestra/static/orchestra/icons/apps/DrupalMu.png"
   inkscape:export-xdpi="90"
   inkscape:export-ydpi="90">
  <metadata
     id="metadata3207">
    <rdf:RDF>
      <cc:Work
         rdf:about="">
        <dc:format>image/svg+xml</dc:format>
        <dc:type
           rdf:resource="http://purl.org/dc/dcmitype/StillImage" />
        <dc:title></dc:title>
      </cc:Work>
    </rdf:RDF>
  </metadata>
  <defs
     id="defs3205">
    <radialGradient
       r="10.625"
       fy="4.625"
       fx="62.625"
       cy="4.625"
       cx="62.625"
       gradientTransform="matrix(2.2657407,0,0,0.74122745,-117.89261,32.892968)"
       gradientUnits="userSpaceOnUse"
       id="radialGradient3610"
       xlink:href="#linearGradient8838-7"
       inkscape:collect="always" />
    <linearGradient
       id="linearGradient8838-7">
      <stop
         id="stop8840-0"
         style="stop-color:black;stop-opacity:1"
         offset="0" />
      <stop
         id="stop8842-7"
         style="stop-color:black;stop-opacity:0"
         offset="1" />
    </linearGradient>
    <radialGradient
       r="10.625"
       fy="4.625"
       fx="62.625"
       cy="4.625"
       cx="62.625"
       gradientTransform="matrix(2.2657407,0,0,0.74122745,-117.84341,35.950626)"
       gradientUnits="userSpaceOnUse"
       id="radialGradient3708"
       xlink:href="#linearGradient8838-7"
       inkscape:collect="always" />
  </defs>
  <sodipodi:namedview
     pagecolor="#ffffff"
     bordercolor="#666666"
     borderopacity="1"
     objecttolerance="10"
     gridtolerance="10"
     guidetolerance="10"
     inkscape:pageopacity="0"
     inkscape:pageshadow="2"
     inkscape:window-width="1920"
     inkscape:window-height="1024"
     id="namedview3203"
     showgrid="false"
     inkscape:zoom="3.8959303"
     inkscape:cx="0.68424809"
     inkscape:cy="43.440013"
     inkscape:window-x="0"
     inkscape:window-y="27"
     inkscape:window-maximized="1"
     inkscape:current-layer="svg3201" />
  <path
     inkscape:connector-curvature="0"
     d="m 48.122094,39.37881 c 0,4.34954 -10.77808,7.87555 -24.0735,7.87555 -13.29542,0 -24.07349952,-3.52601 -24.07349952,-7.87555 0,-4.34955 10.77807952,-7.87556 24.07349952,-7.87556 13.29542,0 24.0735,3.52601 24.0735,7.87556 l 0,0 z"
     id="path8836-9"
     style="opacity:0.3;fill:url(#radialGradient3708);fill-opacity:1;fill-rule:evenodd;stroke:none;stroke-width:0.99999988;marker:none;visibility:visible;display:inline;overflow:visible" />
  <rect
     style="fill:#eeeeec;stroke:#eeeeec"
     id="rect3747"
     width="31.308554"
     height="23.776344"
     x="8.3035679"
     y="14.241219"
     ry="11.888172" />
  <path
     style="fill:#93c5e4;fill-opacity:1"
     d="M 10.280293,40.441737 C 7.2051807,40.132052 4.8722076,39.06874 2.8990174,37.077535 -0.40380281,33.74456 -1.1067297,27.727676 1.1759893,23.645787 2.1196585,21.958348 3.8188126,20.299384 5.4807087,19.442889 l 0.7741857,-0.398994 0.011289,-1.226072 C 6.2971444,14.455434 7.6216401,10.77602 10.168688,8.3898403 14.089062,4.7170682 19.858239,3.8729229 24.794165,6.249841 c 2.531395,1.2190065 4.768749,3.4149697 5.824881,5.717118 0.134346,0.292851 0.276817,0.532457 0.316601,0.532457 0.0398,0 0.324958,-0.170005 0.633723,-0.377787 2.080065,-1.399783 5.000273,-1.351751 7.212027,0.118622 2.543639,1.69101 3.424188,5.866753 1.989066,8.518588 -0.156214,0.28865 -0.263577,0.53767 -0.238588,0.553375 0.02499,0.0157 0.483839,0.17317 1.019662,0.349919 2.556281,0.843227 4.816568,3.00377 5.753516,5.499616 0.314345,0.837359 0.611974,2.379682 0.611974,3.17129 0,0.28762 -0.07623,1.86758 -0.169403,2.401864 -0.631568,3.621676 -3.342607,6.462001 -7.126882,7.466741 l -0.926404,0.245964 -14.513874,0.01651 c -7.982628,0.0092 -14.687708,-9.84e-4 -14.900171,-0.02238 z"
     id="path3726"
     inkscape:connector-curvature="0"
     sodipodi:nodetypes="sssscsssssssscsssssccs" />
  <g
     id="g3003"
     transform="matrix(0.64828664,0,0,0.64828664,7.5527918,8.5331199)"
     inkscape:transform-center-x="-1.0664281"
     inkscape:transform-center-y="-3.7324978">
    <path
       inkscape:connector-curvature="0"
       id="path6"
       d="M 34.090098,9.1797034 C 31.767567,7.7335672 29.576496,7.1638982 27.385409,5.7178032 26.026937,4.7975404 24.142593,2.6064525 22.565038,0.72214222 22.25828,3.7458125 21.33801,4.9728263 20.286308,5.8492663 18.05144,7.6020962 16.649147,8.1279792 14.721005,9.1797034 13.099587,10.012281 4.2914557,15.27086 4.2914557,26.576856 c 0,11.305933 9.5092553,19.632018 20.0702633,19.632018 10.560964,0 19.719685,-7.668772 19.719685,-19.281495 0,-11.612658 -8.589013,-16.871239 -9.991306,-17.7476756 z"
       style="fill:#00598e" />
    <path
       inkscape:connector-curvature="0"
       id="path8"
       d="m 30.530787,36.388028 c 0.701163,0 1.44609,0.0438 1.97197,0.394389 0.525883,0.350543 0.832613,1.139364 1.007874,1.577551 0.175326,0.438212 0,0.701153 -0.350524,0.87644 -0.306789,0.175265 -0.35059,0.08764 -0.65735,-0.482051 -0.306753,-0.569651 -0.569681,-1.139366 -2.103434,-1.139366 -1.533754,0 -2.015805,0.525853 -2.760753,1.139366 -0.744944,0.613515 -1.007869,0.832642 -1.270808,0.482051 -0.262941,-0.350587 -0.175315,-0.701169 0.306737,-1.139365 0.482055,-0.4382 1.270828,-1.139365 2.015808,-1.44609 0.744953,-0.306791 1.139366,-0.262925 1.84048,-0.262925 l 0,0 z"
       style="fill:#ffffff" />
    <path
       inkscape:connector-curvature="0"
       id="path10"
       d="m 23.256403,41.383671 c 0.876441,0.701124 2.191068,1.270827 4.995651,1.270827 2.804586,0 4.776586,-0.78882 5.652982,-1.446142 0.394412,-0.306731 0.569698,-0.04382 0.613499,0.131465 0.04386,0.175314 0.131464,0.43824 -0.175262,0.744974 -0.219127,0.21912 -2.234927,1.62141 -4.601264,1.840515 -2.366381,0.219093 -5.565349,0.350557 -7.493509,-1.402279 -0.306727,-0.306772 -0.219064,-0.74497 0,-0.920281 0.219126,-0.175272 0.394411,-0.306735 0.657352,-0.306735 0.262941,0 0.219087,0 0.350551,0.08764 l 0,0 z"
       style="fill:#ffffff" />
    <path
       inkscape:connector-curvature="0"
       id="path12"
       d="m 12.520122,38.053242 c 3.33044,-0.04387 3.943947,-0.613513 6.879994,-1.928148 15.863396,-7.099116 18.799442,-13.584698 19.369108,-15.074612 0.569699,-1.489957 1.402279,-3.900151 0.525882,-6.573243 -0.169228,-0.516053 -0.29251,-0.930415 -0.381545,-1.263793 C 36.805518,10.856247 34.712656,9.5700024 34.080346,9.1748343 31.801615,7.728743 29.566731,7.159029 27.375628,5.7129375 26.017185,4.8365024 24.132844,2.6016154 22.555289,0.71728498 22.2485,3.7409777 21.372104,5.0118054 20.276556,5.8444006 18.041664,7.5972796 16.639386,8.1231321 14.711225,9.1748343 13.089836,10.051274 4.2816978,15.266054 4.2816978,26.571983 c 0,3.609719 0.9695098,6.915694 2.6329705,9.743944 l 0.4345376,-0.01556 c 0.920247,0.832595 2.3663601,1.796678 5.1709161,1.752879 z"
       style="fill:#0073ba" />
    <path
       inkscape:connector-curvature="0"
       id="path14"
       d="M 34.080346,9.1748343 C 31.801615,7.728743 29.566731,7.159029 27.375628,5.7129375 26.017185,4.8365024 24.132844,2.6016154 22.555289,0.71728498 22.2485,3.7409777 21.372104,5.0118054 20.276556,5.8444006 18.041664,7.5972796 16.639386,8.1231321 14.711225,9.1748343 13.089836,10.051274 4.2816978,15.266054 4.2816978,26.571983 c 0,3.609719 0.9695098,6.915694 2.6329705,9.743944 3.5466277,6.029889 10.2482267,9.888084 17.4372997,9.888084 10.560956,0 19.719684,-7.668772 19.719684,-19.281437 0,-6.377263 -2.590255,-10.837861 -5.158091,-13.709128 -2.108043,-2.357199 -4.201049,-3.6434436 -4.833215,-4.0386117 z m 5.326588,5.1298647 c 2.877156,3.597128 4.336061,7.842377 4.336061,12.617875 0,2.771148 -0.527811,5.388863 -1.568747,7.780659 -0.987459,2.26883 -2.4094,4.278898 -4.226366,5.974547 -3.591569,3.351706 -8.41997,5.197573 -13.595914,5.197573 -2.560687,0 -5.073487,-0.489081 -7.468591,-1.453807 -2.352527,-0.94753 -4.472551,-2.3043 -6.30115,-4.032752 -3.8510202,-3.639797 -5.9718669,-8.546757 -5.9718669,-13.816811 0,-4.693944 1.5235887,-8.864822 4.5283833,-12.396626 2.2956266,-2.698273 4.7710076,-4.1936671 5.7287516,-4.7113412 0.46499,-0.2536462 0.901182,-0.4774924 1.323031,-0.6939519 1.32225,-0.678689 2.571148,-1.3196827 4.288889,-2.6669881 0.915988,-0.6961406 1.891737,-1.7987311 2.307277,-4.5984547 1.447515,1.7216416 3.127255,3.6563963 4.410821,4.484523 1.139353,0.7519791 2.307987,1.2788589 3.438159,1.7885041 1.069149,0.482029 2.174638,0.9804706 3.268631,1.674732 0.0018,0.00136 0.04099,0.025553 0.04099,0.025553 3.197924,1.9966268 4.901719,4.1267468 5.461639,4.8267578 z"
       style="fill:#004975" />
    <path
       inkscape:connector-curvature="0"
       id="path16"
       d="m 22.774381,1.5937182 c 0.613483,1.7966831 0.525884,2.7169311 0.525884,3.1113198 0,0.394389 -0.219126,1.4461034 -0.920295,1.9719862 -0.306733,0.2190788 -0.394395,0.3944051 -0.394395,0.4382036 0,0.1752646 0.394395,0.3067268 0.394395,0.7011334 0,0.4820332 -0.21907,1.4461351 -2.541615,3.7686668 -2.322573,2.322534 -5.653013,4.382137 -8.238475,5.652966 C 9.0144231,18.508823 7.7874103,18.421161 7.4368549,17.807679 7.0862773,17.194197 7.5683179,15.835704 9.1896923,14.039023 10.811103,12.242345 15.93822,9.6568851 15.93822,9.6568851 L 22.336162,5.1870844 22.68675,3.4780508"
       style="fill:#93c5e4" />
    <path
       inkscape:connector-curvature="0"
       id="path18"
       d="m 22.774381,1.5498967 c -0.394411,2.8922154 -1.270807,3.7686495 -2.454025,4.6888929 -1.971942,1.4899534 -3.900084,2.4101952 -4.338323,2.6293198 -1.139337,0.56965 -5.258593,2.8483826 -7.4058104,6.1350136 -0.6573465,1.007866 0,1.402277 0.1314641,1.489895 0.131463,0.08765 1.6213643,0.262925 4.8203393,-1.665218 3.198971,-1.928143 4.601261,-3.067507 6.397943,-4.951807 0.964103,-1.0078836 1.095567,-1.5775986 1.095567,-1.8405239 0,-0.3067261 -0.219128,-0.4381895 -0.569719,-0.5258525 -0.175261,-0.043802 -0.219059,-0.1314622 0,-0.2629256 0.219128,-0.1314632 1.139369,-0.5696668 1.358493,-0.744977 0.219126,-0.1752639 1.270829,-0.8764349 1.314629,-2.0157916 0.04386,-1.1393393 -0.04381,-1.9281403 -0.350558,-2.9360257 l 0,0 z"
       style="fill:#ffffff" />
    <path
       inkscape:connector-curvature="0"
       id="path20"
       d="m 12.914535,33.408116 c 0.04385,-3.418034 3.242809,-6.617006 7.274359,-6.660868 5.127116,-0.04381 8.676675,5.083317 11.26213,5.039515 2.191071,-0.04387 6.397946,-4.338339 8.457552,-4.338339 2.191088,0 2.804583,2.278733 2.804583,3.637161 0,1.358492 -0.438189,3.812486 -1.489891,5.346241 -1.051765,1.533753 -1.709079,2.103413 -2.936046,2.015805 -1.577616,-0.131461 -4.732726,-5.039515 -6.748531,-5.127114 -2.541658,-0.08765 -8.063164,5.302379 -12.4015,5.302379 -2.629275,0 -3.418098,-0.394389 -4.294495,-0.964053 -1.31467,-0.920292 -1.971987,-2.322573 -1.928161,-4.250727 l 0,0 z"
       style="fill:#ffffff" />
    <path
       inkscape:connector-curvature="0"
       id="path22"
       d="m 39.295106,14.477239 c 0.876397,2.673092 0.04383,5.083286 -0.525882,6.573243 -0.569666,1.489914 -3.505712,7.975496 -19.369108,15.074612 -2.936047,1.314635 -3.549554,1.884286 -6.879994,1.928148 -2.804556,0.04381 -4.2506691,-0.920282 -5.1709161,-1.752877 l -0.4345376,0.01555 C 10.461296,42.345805 17.162895,46.204 24.351968,46.204 c 10.560956,0 19.719684,-7.668772 19.719684,-19.281438 0,-6.377263 -2.590255,-10.83786 -5.158091,-13.709127 0.08902,0.333378 0.212317,0.74774 0.381545,1.263793 z"
       style="fill:none" />
  </g>
</svg>
