<?xml version="1.0" encoding="UTF-8" standalone="no"?>
<!-- Created with Inkscape (http://www.inkscape.org/) -->

<svg
   xmlns:dc="http://purl.org/dc/elements/1.1/"
   xmlns:cc="http://creativecommons.org/ns#"
   xmlns:rdf="http://www.w3.org/1999/02/22-rdf-syntax-ns#"
   xmlns:svg="http://www.w3.org/2000/svg"
   xmlns="http://www.w3.org/2000/svg"
   xmlns:xlink="http://www.w3.org/1999/xlink"
   xmlns:sodipodi="http://sodipodi.sourceforge.net/DTD/sodipodi-0.dtd"
   xmlns:inkscape="http://www.inkscape.org/namespaces/inkscape"
   id="svg3201"
   version="1.1"
   inkscape:version="0.48.3.1 r9886"
   width="48"
   height="48"
   sodipodi:docname="MoodleMu.svg"
   inkscape:export-filename="/home/glic3rinu/orchestra/django-orchestra/orchestra/static/orchestra/icons/apps/MoodleMu.png"
   inkscape:export-xdpi="90"
   inkscape:export-ydpi="90">
  <metadata
     id="metadata3207">
    <rdf:RDF>
      <cc:Work
         rdf:about="">
        <dc:format>image/svg+xml</dc:format>
        <dc:type
           rdf:resource="http://purl.org/dc/dcmitype/StillImage" />
        <dc:title></dc:title>
      </cc:Work>
    </rdf:RDF>
  </metadata>
  <defs
     id="defs3205">
    <radialGradient
       r="10.625"
       fy="4.625"
       fx="62.625"
       cy="4.625"
       cx="62.625"
       gradientTransform="matrix(2.2657407,0,0,0.74122745,-117.89261,32.892968)"
       gradientUnits="userSpaceOnUse"
       id="radialGradient3610"
       xlink:href="#linearGradient8838-7"
       inkscape:collect="always" />
    <linearGradient
       id="linearGradient8838-7">
      <stop
         id="stop8840-0"
         style="stop-color:black;stop-opacity:1"
         offset="0" />
      <stop
         id="stop8842-7"
         style="stop-color:black;stop-opacity:0"
         offset="1" />
    </linearGradient>
    <radialGradient
       r="10.625"
       fy="4.625"
       fx="62.625"
       cy="4.625"
       cx="62.625"
       gradientTransform="matrix(2.2657407,0,0,0.74122745,-117.84341,35.950626)"
       gradientUnits="userSpaceOnUse"
       id="radialGradient3708"
       xlink:href="#linearGradient8838-7"
       inkscape:collect="always" />
    <radialGradient
       gradientUnits="userSpaceOnUse"
       gradientTransform="matrix(1,0,0,0.984179,0,3.366635)"
       r="8.6813803"
       fy="212.80016"
       fx="224.41418"
       cy="212.80016"
       cx="224.41418"
       id="radialGradient2366"
       xlink:href="#linearGradient2360"
       inkscape:collect="always" />
    <linearGradient
       gradientUnits="userSpaceOnUse"
       y2="192.73286"
       x2="277.8761"
       y1="192.73286"
       x1="219.66267"
       id="linearGradient2350"
       xlink:href="#linearGradient2352"
       inkscape:collect="always" />
    <linearGradient
       gradientUnits="userSpaceOnUse"
       y2="189.01556"
       x2="286.22665"
       y1="189.01556"
       x1="219.21262"
       id="linearGradient2342"
       xlink:href="#linearGradient2336"
       inkscape:collect="always" />
    <linearGradient
       id="linearGradient2336">
      <stop
         id="stop2338"
         offset="0"
         style="stop-color:#8f2a15;stop-opacity:1;" />
      <stop
         id="stop2340"
         offset="1"
         style="stop-color:#c8381b;stop-opacity:1;" />
    </linearGradient>
    <linearGradient
       id="linearGradient2352">
      <stop
         style="stop-color:#ce411e;stop-opacity:1;"
         offset="0"
         id="stop2354" />
      <stop
         style="stop-color:#ecad8d;stop-opacity:1;"
         offset="1"
         id="stop2356" />
    </linearGradient>
    <linearGradient
       id="linearGradient2360">
      <stop
         id="stop2362"
         offset="0"
         style="stop-color:#d69c00;stop-opacity:1;" />
      <stop
         id="stop2364"
         offset="1"
         style="stop-color:#ffe658;stop-opacity:1;" />
    </linearGradient>
    <linearGradient
       id="linearGradient2213">
      <stop
         id="stop2215"
         offset="0"
         style="stop-color:#000000;stop-opacity:1;" />
      <stop
         id="stop2217"
         offset="1"
         style="stop-color:#000000;stop-opacity:0;" />
    </linearGradient>
    <linearGradient
       id="linearGradient2229">
      <stop
         style="stop-color:#00b62b;stop-opacity:1;"
         offset="0"
         id="stop2231" />
      <stop
         style="stop-color:#a1d784;stop-opacity:1;"
         offset="1"
         id="stop2233" />
    </linearGradient>
    <linearGradient
       id="linearGradient2249">
      <stop
         id="stop2251"
         offset="0"
         style="stop-color:#00a423;stop-opacity:1;" />
      <stop
         id="stop2253"
         offset="1"
         style="stop-color:#00b427;stop-opacity:1;" />
    </linearGradient>
    <linearGradient
       id="linearGradient2332">
      <stop
         id="stop2334"
         offset="0"
         style="stop-color:#ede1ae;stop-opacity:1;" />
      <stop
         id="stop2336"
         offset="1"
         style="stop-color:#fefdfa;stop-opacity:1;" />
    </linearGradient>
    <linearGradient
       id="linearGradient2348">
      <stop
         id="stop2350"
         offset="0"
         style="stop-color:#fbf6f0;stop-opacity:1;" />
      <stop
         id="stop2352"
         offset="1"
         style="stop-color:#e9dac7;stop-opacity:1;" />
    </linearGradient>
    <linearGradient
       id="linearGradient2364">
      <stop
         style="stop-color:#fbf6f0;stop-opacity:1;"
         offset="0"
         id="stop2366" />
      <stop
         style="stop-color:#e9dac7;stop-opacity:1;"
         offset="1"
         id="stop2368" />
    </linearGradient>
    <linearGradient
       id="linearGradient2370">
      <stop
         id="stop2372"
         offset="0"
         style="stop-color:#fbfaf9;stop-opacity:1;" />
      <stop
         id="stop2374"
         offset="1"
         style="stop-color:#e9dac7;stop-opacity:1;" />
    </linearGradient>
    <linearGradient
       id="linearGradient2389">
      <stop
         id="stop2391"
         offset="0"
         style="stop-color:#000000;stop-opacity:0.17346939;" />
      <stop
         id="stop2393"
         offset="1"
         style="stop-color:#c7cec2;stop-opacity:0;" />
    </linearGradient>
    <linearGradient
       id="linearGradient2408">
      <stop
         style="stop-color:#000000;stop-opacity:0.17346939;"
         offset="0"
         id="stop2410" />
      <stop
         style="stop-color:#c7cec2;stop-opacity:0;"
         offset="1"
         id="stop2412" />
    </linearGradient>
    <marker
       style="overflow:visible"
       id="Arrow2Lstart"
       refX="0"
       refY="0"
       orient="auto"
       inkscape:stockid="Arrow2Lstart">
      <path
         inkscape:connector-curvature="0"
         transform="matrix(1.1,0,0,1.1,-5.5,0)"
         d="M 8.7185878,4.0337352 -2.2072895,0.01601326 8.7185884,-4.0017078 c -1.7454984,2.3720609 -1.7354408,5.6174519 -6e-7,8.035443 z"
         style="font-size:12px;fill-rule:evenodd;stroke-width:0.625;stroke-linejoin:round"
         id="path2571" />
    </marker>
    <marker
       style="overflow:visible"
       id="TriangleOutL"
       refX="0"
       refY="0"
       orient="auto"
       inkscape:stockid="TriangleOutL">
      <path
         inkscape:connector-curvature="0"
         transform="scale(0.8,0.8)"
         style="fill-rule:evenodd;stroke:#000000;stroke-width:1pt;marker-start:none"
         d="m 5.77,0 -8.65,5 0,-10 8.65,5 z"
         id="path2488" />
    </marker>
    <linearGradient
       id="linearGradient2600">
      <stop
         id="stop2602"
         offset="0"
         style="stop-color:#e32525;stop-opacity:0.81632656;" />
      <stop
         id="stop2604"
         offset="1"
         style="stop-color:#e32525;stop-opacity:0.5714286;" />
    </linearGradient>
    <linearGradient
       id="linearGradient2612">
      <stop
         id="stop2614"
         offset="0"
         style="stop-color:#25901b;stop-opacity:0.83673471;" />
      <stop
         id="stop2616"
         offset="1"
         style="stop-color:#25901b;stop-opacity:0.37755102;" />
    </linearGradient>
    <linearGradient
       id="linearGradient2624">
      <stop
         id="stop2626"
         offset="0"
         style="stop-color:#3a9030;stop-opacity:0.83673471;" />
      <stop
         id="stop2628"
         offset="1"
         style="stop-color:#3d9c32;stop-opacity:0.79591835;" />
    </linearGradient>
    <inkscape:perspective
       id="perspective100"
       inkscape:persp3d-origin="372.04724 : 350.78739 : 1"
       inkscape:vp_z="744.09448 : 526.18109 : 1"
       inkscape:vp_y="0 : 1000 : 0"
       inkscape:vp_x="0 : 526.18109 : 1"
       sodipodi:type="inkscape:persp3d" />
    <radialGradient
       r="63.818954"
       fy="535.04962"
       fx="71.30822"
       cy="535.04962"
       cx="71.30822"
       gradientTransform="matrix(0.5223717,-0.00855412,0.0035725,0.2181606,32.349443,377.08216)"
       gradientUnits="userSpaceOnUse"
       id="radialGradient3034"
       xlink:href="#linearGradient3187"
       inkscape:collect="always" />
    <linearGradient
       y2="519.99542"
       x2="72.317894"
       y1="502.40942"
       x1="64.697289"
       gradientUnits="userSpaceOnUse"
       id="linearGradient3032"
       xlink:href="#linearGradient3203"
       inkscape:collect="always" />
    <linearGradient
       y2="502.52649"
       x2="103.21809"
       y1="511.9057"
       x1="94.776047"
       gradientUnits="userSpaceOnUse"
       id="linearGradient3030"
       xlink:href="#linearGradient3195"
       inkscape:collect="always" />
    <filter
       color-interpolation-filters="sRGB"
       id="filterK"
       height="2"
       width="2"
       x="-0.5"
       y="-0.5">
      <feGaussianBlur
         stdDeviation="5.0"
         id="feGaussianBlur4147" />
    </filter>
    <clipPath
       id="clipPathd">
      <path
         inkscape:connector-curvature="0"
         id="path2586"
         d="m 519.375,8.375 0,67 c -8.3124,-7.708675 -18.91192,-12.343754 -30.46875,-12.34375 -26.67332,-2e-6 -48.3125,24.61839 -48.3125,54.96875 -10e-6,30.35035 21.63918,54.96876 48.3125,54.96875 11.55683,0 22.15634,-4.63508 30.46875,-12.34375 l 0,9.53125 30.46875,0 0,-161.78125 -30.46875,0 z m 47.46875,0 0,161.78125 30.5,0 0,-161.78125 -30.5,0 z m -298.9375,54.0625 c -30.33618,2e-6 -54.96875,25.12026 -54.96875,56.125 1e-5,31.00475 24.63256,56.15625 54.96875,56.15625 30.33618,1e-5 54.9375,-25.1515 54.9375,-56.15625 -10e-6,-31.004741 -24.60133,-56.125 -54.9375,-56.125 z m 113.71875,0 c -30.33617,2e-6 -54.96875,25.12026 -54.96875,56.125 -2e-5,31.00475 24.63256,56.15625 54.96875,56.15625 30.33619,1e-5 54.9375,-25.1515 54.9375,-56.15625 0,-31.004741 -24.60133,-56.125 -54.9375,-56.125 z m 280.21875,0 c -31.30685,2e-6 -56.75,25.77988 -56.75,57.59375 0,31.81388 25.44315,57.625 56.75,57.625 24.51659,1e-5 45.40735,-15.82396 53.3125,-37.96875 l -31.65625,0 c -4.68373,9.44879 -12.62284,15.6875 -21.65625,15.6875 -12.08775,0 -22.30022,-11.15315 -25.28125,-26.25 l 80.9138,-0.5776 c 0.3018,-2.40763 1.05495,-6.02543 1.05495,-8.51615 -2e-5,-31.813871 -25.38067,-57.59375 -56.6875,-57.59375 z M 94.875,64.15625 c -30.42409,0.33968 -41.02701,14.55616 -43.1875,34.5 l 0.5,0 0,71.5 30.46875,0 0,-71.5 1.15625,0 C 87.42654,91.67994 92.84159,87.25 98.875,87.25 c 5.91375,0 11.22498,4.261773 14.84375,11 l 0,71.90625 30.5,0 0,-71.5 0.46875,0 C 148.30911,91.679939 153.71659,87.25 159.75,87.25 c 6.03341,10e-7 11.44846,4.42994 15.0625,11.40625 l 1.0625,0 0,71.5 30.46875,0 0,-71.5 0.59375,0 c -2.16049,-19.943838 -12.76341,-34.160324 -43.1875,-34.5 -1.29771,-0.01449 -2.62932,-0.0054 -4,0.03125 -11.61263,10e-7 -22.22994,4.954774 -30.4375,13.15625 C 121.10494,69.142273 110.48762,64.1875 98.875,64.1875 c -1.37068,-0.03664 -2.70229,-0.04574 -4,-0.03125 z M 495.5625,84.1875 c 11.37467,-3e-6 20.94908,10.370131 23.8125,24.4375 l 0,17.53125 c -2.86344,14.06737 -12.43786,24.40625 -23.8125,24.40625 -13.6325,-1e-5 -24.6875,-14.87512 -24.6875,-33.1875 0,-18.312377 11.05498,-33.1875 24.6875,-33.1875 z m 166.28125,0.53125 c 11.46607,2e-6 21.18431,9.99825 24.6875,23.90625 l -49.4375,0 c 3.51938,-13.907998 13.28392,-23.90625 24.75,-23.90625 z m -393.9375,1.125 c 12.71411,-2e-6 23.03125,14.65618 23.03125,32.71875 0,18.06258 -10.31714,32.75 -23.03125,32.75 -12.71412,-1e-5 -23.0625,-14.68742 -23.0625,-32.75 0,-18.06256 10.34839,-32.71875 23.0625,-32.71875 z m 113.71875,0 c 12.71412,-2e-6 23.03125,14.65618 23.03125,32.71875 -2e-5,18.06258 -10.31714,32.75 -23.03125,32.75 -12.71411,-1e-5 -23.03125,-14.68742 -23.03125,-32.75 0,-18.06256 10.31714,-32.71875 23.03125,-32.71875 z"
         style="fill:#fb9c02;fill-opacity:1;stroke:none"
         transform="translate(-0.1900293,428.7894)"
         sodipodi:nodetypes="ccssscccccccccccsssccsssccssccsccsccccccccscccccsccccccscccccccssccccccsssccsssc" />
    </clipPath>
    <filter
       color-interpolation-filters="sRGB"
       y="-0.5"
       x="-0.5"
       width="2"
       height="2"
       id="filter">
      <feGaussianBlur
         id="feGaussianBlur4083"
         stdDeviation="5.0" />
    </filter>
    <clipPath
       id="clipPath">
      <path
         inkscape:connector-curvature="0"
         style="fill:#fb9c02;fill-opacity:1;stroke:none"
         d="m 519.375,8.375 0,67 c -8.3124,-7.708675 -18.91192,-12.343754 -30.46875,-12.34375 -26.67332,-2e-6 -48.3125,24.61839 -48.3125,54.96875 -10e-6,30.35035 21.63918,54.96876 48.3125,54.96875 11.55683,0 22.15634,-4.63508 30.46875,-12.34375 l 0,9.53125 30.46875,0 0,-161.78125 -30.46875,0 z m 47.46875,0 0,161.78125 30.5,0 0,-161.78125 -30.5,0 z m -298.9375,54.0625 c -30.33618,2e-6 -54.96875,25.12026 -54.96875,56.125 1e-5,31.00475 24.63256,56.15625 54.96875,56.15625 30.33618,1e-5 54.9375,-25.1515 54.9375,-56.15625 -10e-6,-31.004741 -24.60133,-56.125 -54.9375,-56.125 z m 113.71875,0 c -30.33617,2e-6 -54.96875,25.12026 -54.96875,56.125 -2e-5,31.00475 24.63256,56.15625 54.96875,56.15625 30.33619,1e-5 54.9375,-25.1515 54.9375,-56.15625 0,-31.004741 -24.60133,-56.125 -54.9375,-56.125 z m 280.21875,0 c -31.30685,2e-6 -56.75,25.77988 -56.75,57.59375 0,31.81388 25.44315,57.625 56.75,57.625 24.51659,1e-5 45.40735,-15.82396 53.3125,-37.96875 l -31.65625,0 c -4.68373,9.44879 -12.62284,15.6875 -21.65625,15.6875 -12.08775,0 -22.30022,-11.15315 -25.28125,-26.25 l 37.5625,0 0,-1.75 43.9375,0 c 0.3018,-2.40763 0.46875,-4.85303 0.46875,-7.34375 -2e-5,-31.813871 -25.38067,-57.59375 -56.6875,-57.59375 z M 94.875,64.15625 c -30.42409,0.33968 -41.02701,14.55616 -43.1875,34.5 l 0.5,0 0,71.5 30.46875,0 0,-71.5 1.15625,0 C 87.42654,91.67994 92.84159,87.25 98.875,87.25 c 5.91375,0 11.22498,4.261773 14.84375,11 l 0,71.90625 30.5,0 0,-71.5 0.46875,0 C 148.30911,91.679939 153.71659,87.25 159.75,87.25 c 6.03341,10e-7 11.44846,4.42994 15.0625,11.40625 l 1.0625,0 0,71.5 30.46875,0 0,-71.5 0.59375,0 c -2.16049,-19.943838 -12.76341,-34.160324 -43.1875,-34.5 -1.29771,-0.01449 -2.62932,-0.0054 -4,0.03125 -11.61263,10e-7 -22.22994,4.954774 -30.4375,13.15625 C 121.10494,69.142273 110.48762,64.1875 98.875,64.1875 c -1.37068,-0.03664 -2.70229,-0.04574 -4,-0.03125 z M 495.5625,84.1875 c 11.37467,-3e-6 20.94908,10.370131 23.8125,24.4375 l 0,17.53125 c -2.86344,14.06737 -12.43786,24.40625 -23.8125,24.40625 -13.6325,-1e-5 -24.6875,-14.87512 -24.6875,-33.1875 0,-18.312377 11.05498,-33.1875 24.6875,-33.1875 z m 166.28125,0.53125 c 11.46607,2e-6 21.18431,9.99825 24.6875,23.90625 l -49.4375,0 c 3.51938,-13.907998 13.28392,-23.90625 24.75,-23.90625 z m -393.9375,1.125 c 12.71411,-2e-6 23.03125,14.65618 23.03125,32.71875 0,18.06258 -10.31714,32.75 -23.03125,32.75 -12.71412,-1e-5 -23.0625,-14.68742 -23.0625,-32.75 0,-18.06256 10.34839,-32.71875 23.0625,-32.71875 z m 113.71875,0 c 12.71412,-2e-6 23.03125,14.65618 23.03125,32.71875 -2e-5,18.06258 -10.31714,32.75 -23.03125,32.75 -12.71411,-1e-5 -23.03125,-14.68742 -23.03125,-32.75 0,-18.06256 10.31714,-32.71875 23.03125,-32.71875 z"
         transform="translate(-0.1900293,428.7894)"
         id="path3991" />
    </clipPath>
    <filter
       color-interpolation-filters="sRGB"
       id="filter3416"
       inkscape:collect="always">
      <feGaussianBlur
         id="feGaussianBlur3418"
         stdDeviation="4.180625"
         inkscape:collect="always" />
    </filter>
    <inkscape:perspective
       sodipodi:type="inkscape:persp3d"
       inkscape:vp_x="0 : 526.18109 : 1"
       inkscape:vp_y="0 : 1000 : 0"
       inkscape:vp_z="744.09448 : 526.18109 : 1"
       inkscape:persp3d-origin="372.04724 : 350.78739 : 1"
       id="perspective2390" />
    <clipPath
       clipPathUnits="userSpaceOnUse"
       id="clipPath2472">
      <path
         inkscape:connector-curvature="0"
         d="m 130.32,642 331.92,0 0,11.04 -331.92,0 0,-11.04 z"
         id="path2474" />
    </clipPath>
    <inkscape:perspective
       id="perspective10"
       inkscape:persp3d-origin="372.04724 : 350.78739 : 1"
       inkscape:vp_z="744.09448 : 526.18109 : 1"
       inkscape:vp_y="0 : 1000 : 0"
       inkscape:vp_x="0 : 526.18109 : 1"
       sodipodi:type="inkscape:persp3d" />
    <linearGradient
       id="linearGradient3187">
      <stop
         id="stop3189"
         offset="0"
         style="stop-color:#606060;stop-opacity:1;" />
      <stop
         id="stop3191"
         offset="1"
         style="stop-color:#404040;stop-opacity:1;" />
    </linearGradient>
    <linearGradient
       id="linearGradient3195">
      <stop
         id="stop3197"
         offset="0"
         style="stop-color:#404040;stop-opacity:1;" />
      <stop
         id="stop3199"
         offset="1"
         style="stop-color:#1a1a1a;stop-opacity:1;" />
    </linearGradient>
    <linearGradient
       id="linearGradient3203">
      <stop
         id="stop3205"
         offset="0"
         style="stop-color:#333333;stop-opacity:1;" />
      <stop
         id="stop3207"
         offset="1"
         style="stop-color:#606060;stop-opacity:1;" />
    </linearGradient>
  </defs>
  <sodipodi:namedview
     pagecolor="#ffffff"
     bordercolor="#666666"
     borderopacity="1"
     objecttolerance="10"
     gridtolerance="10"
     guidetolerance="10"
     inkscape:pageopacity="0"
     inkscape:pageshadow="2"
     inkscape:window-width="1920"
     inkscape:window-height="1024"
     id="namedview3203"
     showgrid="false"
     inkscape:zoom="7.7918606"
     inkscape:cx="38.025386"
     inkscape:cy="19.879202"
     inkscape:window-x="0"
     inkscape:window-y="27"
     inkscape:window-maximized="1"
     inkscape:current-layer="svg3201" />
  <path
     inkscape:connector-curvature="0"
     d="m 48.122094,39.37881 c 0,4.34954 -10.77808,7.87555 -24.0735,7.87555 -13.29542,0 -24.07349952,-3.52601 -24.07349952,-7.87555 0,-4.34955 10.77807952,-7.87556 24.07349952,-7.87556 13.29542,0 24.0735,3.52601 24.0735,7.87556 l 0,0 z"
     id="path8836-9"
     style="opacity:0.3;fill:url(#radialGradient3708);fill-opacity:1;fill-rule:evenodd;stroke:none;stroke-width:0.99999988;marker:none;visibility:visible;display:inline;overflow:visible" />
  <rect
     style="fill:#eeeeec;stroke:#eeeeec"
     id="rect3747"
     width="31.308554"
     height="23.776344"
     x="8.3035679"
     y="14.241219"
     ry="11.888172" />
  <path
     style="fill:#bbae99;fill-opacity:1"
     d="M 10.280293,40.441739 C 7.2051807,40.132054 4.8722076,39.068741 2.8990174,37.077537 -0.40380286,33.744562 -1.1067297,27.727678 1.1759893,23.645792 2.1196585,21.958353 3.8188126,20.299386 5.4807087,19.442893 l 0.7741857,-0.398997 0.011288,-1.226069 c 0.030962,-3.362392 1.3554573,-7.041803 3.9025052,-9.4279835 3.920374,-3.6727721 9.689551,-4.5169172 14.625477,-2.139999 2.531395,1.2190062 4.768749,3.4149696 5.824881,5.7171185 0.134346,0.29285 0.276817,0.532455 0.316601,0.532455 0.0398,0 0.324958,-0.170005 0.633723,-0.377784 2.080065,-1.399785 5.000273,-1.351753 7.212027,0.118622 2.543639,1.691007 3.424188,5.866753 1.989066,8.518585 -0.156214,0.28865 -0.263577,0.537672 -0.238588,0.553375 0.02499,0.0157 0.483839,0.173171 1.019662,0.349919 2.556281,0.843228 4.816568,3.003772 5.753516,5.499618 0.314345,0.837357 0.611974,2.379683 0.611974,3.171291 0,0.28762 -0.07623,1.867577 -0.169403,2.401863 -0.631568,3.621676 -3.342607,6.461999 -7.126882,7.466739 l -0.926404,0.245964 -14.513874,0.01651 c -7.982628,0.0092 -14.687708,-7.4e-4 -14.900171,-0.02236 z M 31.462046,14.76551 c -20.974697,22.156329 -10.487349,11.078164 0,0 z"
     id="path3726"
     inkscape:connector-curvature="0"
     sodipodi:nodetypes="sssscsssssssscsssssccscc" />
  <g
     transform="matrix(0.82321164,0,0,0.82321164,2.9026937,-468.48594)"
     id="layer1"
     inkscape:label="Ebene 1">
    <g
       transform="matrix(0.2611912,0,0,0.2611912,-6.7137518,460.28363)"
       id="g3018">
      <path
         style="fill:#b3b3b3;fill-opacity:1;stroke:none;filter:url(#filter3416)"
         d="M 145.03125,31.78125 73.125,38.375 17.40625,72.53125 l 17,-0.28125 c -0.175346,0.329427 -0.344172,0.64615 -0.5625,1.03125 -0.233778,1.092607 -0.212186,2.20068 -0.21875,3.3125 0.0017,1.082297 0.330105,2.14589 0.46875,3.21875 0.119562,0.577287 0.122461,1.13436 0.0625,1.6875 0.187561,-0.204203 0.358246,-0.3888 0.5625,-0.625 -0.0183,-0.01722 -0.04447,-0.01181 -0.0625,-0.03125 0.05113,-0.01075 0.08112,0.005 0.125,0 0.02719,-0.03158 0.03502,-0.06157 0.0625,-0.09375 0.03833,-0.04488 0.05165,-0.0014 0.09375,0.0625 0.211987,0.01129 0.316577,0.10449 0.3125,0.28125 0.238507,-0.02271 0.468827,-0.16579 0.625,-0.4375 -0.203083,0.359207 -0.228645,0.40185 -0.40625,0.71875 0.048,0.04316 0.09142,0.06641 0.15625,0.125 0.198915,0.190927 0.383319,0.37024 0.5625,0.5625 0.631431,-1.158613 1.077543,-2.30716 1.28125,-3.875 0.197486,-1.075643 0.222504,-2.13601 0.03125,-3.21875 -0.143321,-0.913453 -0.387677,-1.82404 -0.40625,-2.75 l 22.4375,-0.375 -3.1875,17.46875 4.46875,1.1875 c -1.694607,4.062718 -2.723381,8.576189 -3.25,13.4375 l 0.5,0 0,71.5 30.46875,0 0,-71.5 1.15625,0 c 0.956438,-1.84625 2.031957,-3.5141 3.21875,-4.96875 l 5.875,1.5625 0.09375,0.1875 0.09375,-0.125 0.53125,0.125 -0.1875,-0.5625 6.03125,-7.59375 c 5.67223,0.277575 10.75409,4.459305 14.25,10.96875 l 0,71.90625 30.5,0 0,-71.5 0.46875,0 c 3.6216,-6.976313 9.02909,-11.40625 15.0625,-11.40625 6.0334,-3e-6 11.44846,4.42994 15.0625,11.40625 l 1.0625,0 0,71.5 30.46875,0 0,-71.5 c -6.3167,-25.387177 -26.37331,-34.030601 -42.59375,-34.5 -1.29772,-0.01449 -2.62932,-0.0054 -4,0.03125 -11.61264,-3e-6 -22.22994,4.95478 -30.4375,13.15625 -4.17188,-4.168779 -8.98744,-7.514453 -14.21875,-9.78125 L 124.0625,68.9375 112.6875,55 z M 36.1875,82.0625 c -0.66381,1.218027 -1.505829,2.43597 -2.46875,4.09375 -0.468344,0.396397 -1.047456,0.35613 -1.5625,0.125 0.175551,0.147047 0.387652,0.26538 0.40625,0.28125 0.640353,0.610627 1.115373,1.09397 1.15625,2 0.03057,1.143277 -0.274414,2.24712 -0.4375,3.375 -0.258777,1.223007 -0.153452,2.41561 0.0625,3.625 0.19137,1.082677 0.250931,2.15339 0.28125,3.25 -0.06786,1.139367 -0.520338,2.17531 -0.84375,3.25 -0.56503,0.85473 -0.757702,1.84503 -0.875,2.84375 -0.219052,1.14238 0.134065,2.13924 0.53125,3.1875 0.519909,0.86356 0.903447,1.76851 1.53125,2.5625 0.596492,0.69208 1.099487,1.42432 1.5,2.25 0.470549,0.94057 0.237866,1.88424 0.125,2.875 -0.121455,1.12269 -0.136255,2.27812 -0.15625,3.40625 -0.01265,1.0758 0.303377,2.08982 0.4375,3.15625 -0.0014,1.09011 0.240259,2.13084 0.46875,3.1875 0.0059,0.0399 -0.006,0.085 0,0.125 0.419539,-0.41702 1.147452,-0.37876 1.6875,-0.375 0.260975,-0.048 0.352492,-0.0135 0.5625,-0.1875 0.10025,-0.0831 0.343035,-0.39584 0.28125,-0.28125 -1.072399,1.98904 -1.681568,3.09778 -2.1875,4.0625 0.03626,0.21785 0.08616,0.43645 0.125,0.65625 0.04097,0.2352 0.03329,0.48224 0.0625,0.71875 1.936414,-1.04459 2.807553,-4.11005 3.15625,-6.3125 0.02984,-1.0971 -0.0845,-2.20772 -0.3125,-3.28125 -0.231569,-1.04211 -0.324447,-2.09219 -0.40625,-3.15625 -0.157919,-1.03758 -0.450964,-2.0352 -0.375,-3.09375 0.0308,-1.1219 0.08328,-2.26002 0.21875,-3.375 0.110119,-1.07798 0.101914,-2.07793 -0.4375,-3.0625 -0.443503,-0.83426 -0.986824,-1.59077 -1.59375,-2.3125 -0.549968,-0.77629 -0.941359,-1.65601 -1.375,-2.5 -0.354096,-0.99644 -0.508219,-1.94679 -0.28125,-3 0.182197,-0.978193 0.566179,-1.87567 0.96875,-2.78125 0.35954,-1.089403 0.630839,-2.18464 0.625,-3.34375 -0.04484,-1.115923 -0.105355,-2.24417 -0.3125,-3.34375 -0.188895,-1.165443 -0.162869,-2.30407 0.0625,-3.46875 0.186081,-1.162453 0.481354,-2.34778 0.3125,-3.53125 -0.154668,-0.669683 -0.50035,-1.15593 -0.9375,-1.625 z M 36.875,130.25 c -0.324104,0.17484 -0.676369,0.26399 -1.0625,0.3125 -0.113373,0.22626 -0.151129,0.25633 -0.03125,0 -0.136461,0.0157 -0.261673,0.0335 -0.40625,0.0312 -0.346822,-0.0498 -0.682885,-0.0457 -0.9375,0.125 -0.13616,0.22855 -0.268026,0.46018 -0.40625,0.6875 -0.06458,0.10621 0.07632,-0.22938 0.125,-0.34375 0.06837,-0.16062 0.16991,-0.26909 0.28125,-0.34375 0.72108,-1.21037 1.416917,-2.43814 2.125,-3.65625 -0.04396,-0.46835 -0.149249,-0.94625 -0.21875,-1.40625 -0.05993,0.0596 -0.110687,0.13867 -0.15625,0.21875 -1.038425,1.82518 -2.021601,3.65876 -3.03125,5.5 -0.231313,1.02404 0.08306,2.02604 0.25,3.03125 0.164482,1.11082 0.198036,2.22299 0.21875,3.34375 -0.09416,1.14887 0.08695,2.22732 0.3125,3.34375 0.07397,1.03988 0.35072,2.02432 0.59375,3.03125 0.279943,0.91608 0.503511,1.8942 0.875,2.78125 0.108097,0.3787 0.444003,0.8306 0.3125,1.25 -0.0267,0.0852 -0.191406,0.12957 -0.1875,0.21875 0.01472,0.33611 0.253168,0.59265 0.375,0.90625 0.417703,1.09343 0.566447,2.27895 0.65625,3.4375 0.115354,1.21232 0.09479,2.36966 -0.125,3.5625 l 3.53125,-4.71875 c 0.172657,-1.22057 0.139029,-2.46106 0.03125,-3.6875 -0.125962,-1.19332 -0.329334,-2.37064 -0.75,-3.5 -0.218059,-0.78045 -0.05024,-1.63532 -0.53125,-2.375 -0.295961,-0.90337 -0.593969,-1.82515 -0.8125,-2.75 -0.255275,-0.99498 -0.41411,-1.98383 -0.5625,-3 -0.217328,-1.08937 -0.282707,-2.16927 -0.25,-3.28125 -0.02556,-0.90356 -0.10791,-1.82142 -0.21875,-2.71875 z m -0.3125,-3.1875 c 0.02676,0.28512 0.03765,0.55978 0.03125,0.84375 -0.0064,-0.40105 0.03221,-0.81599 0.1875,-1.21875 -0.07299,0.12487 -0.146059,0.24995 -0.21875,0.375 z m 0.03125,0.84375 c -0.0059,0.26367 -0.04431,0.52125 -0.09375,0.78125 -0.169461,0.67313 -0.479752,1.42992 -0.6875,1.875 0.110785,-0.22109 0.371203,-0.72685 0.875,-1.6875 -0.05497,-0.33029 -0.0885,-0.64053 -0.09375,-0.96875 z M 35.46875,81.375 c -0.07957,-0.07153 -0.143821,-0.17898 -0.21875,-0.25 -0.03248,0.487027 -0.719561,1.43867 -1.46875,2.375 -0.493479,2.327517 -2.067614,4.5753 1.6875,-2.125 z m -1.6875,2.125 c 0.04162,-0.196303 0.105751,-0.40602 0.125,-0.59375 0.09479,-0.481143 0.198805,-0.93397 0.25,-1.40625 -3.127311,3.404857 -3.968619,2.61563 -2.5625,4.4375 0.153439,0.117257 0.322903,0.2268 0.5,0.3125 -0.183654,-0.157133 -0.336685,-0.33327 -0.3125,-0.375 0.06234,-0.107563 1.084853,-1.23125 2,-2.375 z M 35.25,81.125 c 5.39e-4,-0.0081 -1.8e-4,-0.02345 0,-0.03125 -0.02149,0.002 -0.04078,3.9e-4 -0.0625,0 0.01626,0.01565 0.04733,0.01688 0.0625,0.03125 z M 35.1875,81.09375 C 35.155313,81.062777 35.132722,81.03847 35.09375,81 35.05174,80.95854 34.979597,80.87639 34.9375,80.8125 c -0.04463,-0.0024 -0.1004,0.02484 -0.15625,0.03125 -0.01601,0.0186 -0.04659,0.01286 -0.0625,0.03125 0.153739,0.144737 0.311541,0.21597 0.46875,0.21875 z m 0.78125,-8.875 c -0.332606,0.140617 -0.631342,0.31748 -0.875,0.59375 -0.100046,0.168597 -0.212042,0.33165 -0.3125,0.5 -0.07137,0.119607 0.1107,-0.2588 0.1875,-0.375 0.03417,-0.0517 0.08622,-0.08103 0.125,-0.125 0.111875,-0.188523 0.232294,-0.37372 0.34375,-0.5625 z"
         transform="translate(-0.1900293,428.7894)"
         id="path3414"
         inkscape:connector-curvature="0"
         sodipodi:nodetypes="ccccccccccccccccccccccccccccccccccccccccccsccccccccccccccccccccccccccccccccccccccccccccccccccccccccssccccccccccsscccccccccccccccccccccccccccccsccccccccccccscccccs" />
      <path
         sodipodi:nodetypes="cccccccscccccsccccccscccc"
         style="fill:#fb9c02;fill-opacity:1;stroke:none"
         d="m 94.875,64.15625 c -30.42409,0.33968 -41.02701,14.55616 -43.1875,34.5 l 0.5,0 0,71.5 30.46875,0 0,-71.5 1.15625,0 C 87.42654,91.67994 92.84159,87.25 98.875,87.25 c 5.91375,0 11.22498,4.261773 14.84375,11 l 0,71.90625 30.5,0 0,-71.5 0.46875,0 C 148.30911,91.679939 153.71659,87.25 159.75,87.25 c 6.03341,10e-7 11.44846,4.42994 15.0625,11.40625 l 1.0625,0 0,71.5 30.46875,0 0,-71.5 0.59375,0 c -2.16049,-19.943838 -12.76341,-34.160324 -43.1875,-34.5 -1.29771,-0.01449 -2.62932,-0.0054 -4,0.03125 -11.61263,10e-7 -22.22994,4.954774 -30.4375,13.15625 C 121.10494,69.142273 110.48762,64.1875 98.875,64.1875 c -1.37068,-0.03664 -2.70229,-0.04574 -4,-0.03125 z"
         id="path4152"
         transform="translate(-0.1900293,428.7894)"
         inkscape:connector-curvature="0" />
      <g
         id="g4159"
         clip-path="url(#clipPathd)"
         style="opacity:0.6">
        <g
           id="g4161">
          <path
             sodipodi:nodetypes="sccsccccccccsccc"
             transform="translate(-0.1900293,428.7894)"
             style="fill:none;stroke:#ffffff;stroke-width:10;stroke-opacity:1;filter:url(#filterK)"
             d="m 94.875,64.15625 c -30.42409,0.33968 -41.02701,14.55616 -43.1875,34.5 m 0.5,0 0,71.5 M 98.875,87.25 c 5.91375,0 11.22498,4.261773 14.84375,11 m 0,0 0,71.90625 M 159.75,87.25 c 6.03341,10e-7 11.44846,4.42994 15.0625,11.40625 m 1.0625,0 0,71.5 m -12.125,-106 c -1.29771,-0.01449 -2.62932,-0.0054 -4,0.03125 m 0,0 c -11.61263,10e-7 -22.22994,4.954774 -30.4375,13.15625"
             id="path4163"
             inkscape:connector-curvature="0" />
          <path
             sodipodi:nodetypes="sccsccccccccscccccsccccccscccccc"
             transform="translate(-0.1900293,428.7894)"
             style="fill:none;stroke:#000000;stroke-width:10;stroke-opacity:1;filter:url(#filterK)"
             d="m 51.6875,98.65625 0.5,0 m 0,71.5 30.46875,0 m 0,0 0,-71.5 m 0,0 1.15625,0 m 0,0 C 87.42654,91.67994 92.84159,87.25 98.875,87.25 m 14.84375,82.90625 30.5,0 m 0,0 0,-71.5 m 0,0 0.46875,0 m 0,0 C 148.30911,91.679939 153.71659,87.25 159.75,87.25 m 15.0625,11.40625 1.0625,0 m 0,71.5 30.46875,0 m 0,0 0,-71.5 m 0,0 0.59375,0 m 0,0 c -2.16049,-19.943838 -12.76341,-34.160324 -43.1875,-34.5 m -34.4375,13.1875 C 121.10494,69.142273 110.48762,64.1875 98.875,64.1875 m 0,0 c -1.37068,-0.03664 -2.70229,-0.04574 -4,-0.03125"
             id="path4165"
             inkscape:connector-curvature="0" />
        </g>
      </g>
      <path
         style="fill:url(#linearGradient3030);fill-opacity:1;fill-rule:evenodd;stroke:none"
         d="m 93.29126,526.49606 25.16804,-31.75966 -13.18326,-16.17946 -24.5688,19.17565 12.58402,28.76347 z"
         id="path3424"
         inkscape:connector-curvature="0" />
      <path
         style="fill:url(#linearGradient3032);fill-opacity:1;fill-rule:evenodd;stroke:none"
         d="m 54.340723,495.33563 -3.595434,19.77489 43.14521,11.38554 -10.786303,-31.75966 -28.763473,0.59923 z"
         id="path3422"
         sodipodi:nodetypes="ccccc"
         inkscape:connector-curvature="0" />
      <path
         style="fill:url(#radialGradient3034);fill-opacity:1;fill-rule:evenodd;stroke:none"
         d="m 11.794752,498.33183 72.507922,-1.19848 55.129986,-39.54978 -71.908679,6.59163 -55.729229,34.15663 z"
         id="path3420"
         inkscape:connector-curvature="0" />
      <path
         style="fill:#000000;fill-opacity:1;stroke:none"
         id="path3428"
         d="m 66.470386,481.47462 c -1.902095,0.96165 -3.813246,1.93563 -5.561402,3.16025 -0.270515,0.18445 -0.549283,0.35734 -0.811546,0.55335 -0.875685,0.65445 -0.385022,0.39743 -1.228842,0.98201 -0.4986,0.34542 -1.052533,0.55855 -1.569152,0.87162 -1.027223,0.61171 -2.147053,1.02629 -3.229672,1.52387 -1.206876,0.3873 -2.312289,0.99186 -3.454004,1.5287 -1.119016,0.50739 -2.250703,0.90051 -3.462649,1.11125 -1.098705,0.38133 -2.232399,0.64061 -3.31876,1.05731 -1.256822,0.45937 -2.545904,0.83162 -3.7956,1.30897 -1.279001,0.39837 -2.399316,1.15534 -3.583169,1.76253 -1.038686,0.47031 -2.175774,0.74983 -3.176786,1.29745 -0.810478,0.40204 -1.693352,0.6954 -2.456872,1.18321 -0.515195,0.2811 -1.111495,0.37859 -1.456646,0.90079 -0.0768,0.11619 -0.256316,0.49429 -0.184947,0.37468 0.926296,-1.55236 1.833566,-3.11598 2.75035,-4.67397 -0.418134,1.00899 -0.409042,2.12295 -0.431439,3.19754 -0.06352,1.06588 0.244649,2.0973 0.408411,3.14103 0.191255,1.08273 0.176075,2.14637 -0.02141,3.22202 -0.417861,3.21607 -1.89671,4.74337 -3.775581,7.97808 -0.651174,0.55113 -1.511035,0.24859 -2.124797,-0.22042 -1.508172,-1.95409 -0.467057,-0.85226 3.24861,-5.20322 0.07666,-0.0898 0.164712,0.16918 0.248728,0.25211 0.214546,0.21177 0.300965,0.28442 0.53809,0.49875 0.684208,0.65673 1.299361,1.26569 1.517426,2.20986 0.168854,1.18346 -0.137197,2.3546 -0.323277,3.51706 -0.225369,1.16468 -0.249716,2.30872 -0.06082,3.47417 0.207146,1.09957 0.280828,2.21564 0.325671,3.33156 0.0058,1.15911 -0.292866,2.26613 -0.652405,3.35553 -0.402571,0.90558 -0.767443,1.79386 -0.949639,2.77206 -0.226968,1.05321 -0.07877,2.01815 0.275331,3.01459 0.43364,0.84399 0.839966,1.70693 1.389935,2.48322 0.606927,0.72173 1.138353,1.47037 1.581857,2.30463 0.539416,0.98457 0.532166,1.99866 0.422048,3.07664 -0.135468,1.11498 -0.185344,2.23696 -0.216144,3.35886 -0.07596,1.05855 0.220889,2.08604 0.378809,3.12362 0.08181,1.06406 0.187705,2.10652 0.419275,3.14863 0.227999,1.07353 0.347051,2.17112 0.317208,3.26822 -0.429166,2.71071 -1.654455,6.71894 -4.676253,6.67213 -0.498485,-0.0716 -0.996962,-0.0799 -1.221675,0.44801 -0.04868,0.11438 -0.171108,0.46359 -0.106525,0.35738 0.945377,-1.55476 1.836552,-3.14183 2.754828,-4.71275 -0.366201,0.94977 -0.148996,1.88746 0.0207,2.84769 0.196401,1.12755 0.243763,2.27227 0.276065,3.41398 -0.03271,1.11198 0.03016,2.19548 0.247488,3.28485 0.148389,1.01617 0.310675,2.01545 0.565951,3.01043 0.21853,0.92484 0.514097,1.83394 0.810059,2.73731 0.481008,0.73968 0.313995,1.61495 0.532055,2.3954 0.420664,1.12937 0.628329,2.30989 0.754292,3.50321 0.107781,1.22644 0.150907,2.45212 -0.02175,3.67269 l -3.554461,4.7301 c 0.219791,-1.19284 0.257624,-2.37203 0.142271,-3.58435 -0.0898,-1.15855 -0.232482,-2.31849 -0.650184,-3.41192 -0.121833,-0.3136 -0.376854,-0.59413 -0.391576,-0.93024 -0.0039,-0.0892 0.152968,-0.11336 0.179671,-0.19852 0.131503,-0.4194 -0.195892,-0.87426 -0.303988,-1.25296 -0.371489,-0.88705 -0.584514,-1.86266 -0.864456,-2.77874 -0.24303,-1.00693 -0.513305,-1.98759 -0.587271,-3.02747 -0.225555,-1.11642 -0.420246,-2.20409 -0.326084,-3.35296 -0.02071,-1.12076 -0.04645,-2.24512 -0.210929,-3.35594 -0.166945,-1.00521 -0.494938,-1.98984 -0.263624,-3.01388 1.00965,-1.84125 1.990524,-3.69858 3.02895,-5.52376 0.364501,-0.64066 1.236533,-0.57738 1.853731,-0.57308 0.260975,-0.048 0.358304,-0.0301 0.568312,-0.20413 0.100248,-0.0831 0.328054,-0.40033 0.266269,-0.28574 -5.108196,9.47445 -2.823006,5.74538 -2.356702,3.89315 0.197777,-1.03999 -0.0099,-2.11965 -0.163565,-3.15659 -0.22849,-1.05666 -0.456374,-2.08776 -0.454926,-3.17787 -0.134124,-1.06643 -0.464699,-2.10915 -0.452051,-3.18495 0.02,-1.12813 0.04798,-2.25767 0.169433,-3.38036 0.112866,-0.99076 0.330522,-1.94102 -0.140026,-2.88159 -0.400513,-0.82568 -0.903321,-1.54939 -1.499812,-2.24147 -0.627803,-0.79399 -1.009378,-1.72394 -1.529286,-2.5875 -0.397184,-1.04826 -0.737423,-2.04364 -0.518372,-3.18602 0.117297,-0.99872 0.310766,-1.97245 0.875797,-2.82718 0.323412,-1.07469 0.749861,-2.10151 0.81772,-3.24087 -0.03032,-1.09662 -0.07359,-2.19645 -0.264956,-3.27913 -0.215951,-1.20939 -0.340035,-2.37773 -0.08126,-3.60074 0.163087,-1.12788 0.47475,-2.2425 0.444186,-3.38578 -0.04088,-0.90603 -0.52366,-1.37317 -1.164012,-1.9838 -0.04048,-0.0345 -0.807103,-0.62192 -0.757172,-0.70807 0.14058,-0.24255 5.136806,-5.50558 2.868687,-5.02854 0.422781,0.45582 0.925102,0.29703 1.209308,-0.19743 -4.859026,8.59449 -2.218785,4.79424 -1.960508,2.27537 0.205809,-1.04468 0.403607,-2.03972 0.181964,-3.10988 -0.138645,-1.07287 -0.477497,-2.11824 -0.479156,-3.20053 0.0066,-1.11183 -0.0042,-2.23683 0.229601,-3.32944 2.744245,-4.84054 1.778972,-5.04099 5.004276,-6.67336 0.826477,-0.39421 1.648499,-0.79492 2.486805,-1.16355 1.046566,-0.43341 2.118037,-0.80905 3.1457,-1.28532 1.187916,-0.64005 2.358382,-1.33483 3.657015,-1.73184 1.263908,-0.43733 2.533916,-0.85684 3.793906,-1.30552 1.1214,-0.38683 2.259828,-0.72866 3.407863,-1.02679 1.160359,-0.24738 2.251188,-0.67482 3.324727,-1.17784 1.131077,-0.55949 2.284206,-1.05497 3.461732,-1.50824 1.085172,-0.47885 2.163039,-0.96754 3.188694,-1.56718 1.263216,-0.67147 2.361766,-1.55276 3.539945,-2.36009 1.821723,-1.17715 3.746518,-2.18446 5.6619,-3.19963 l -2.445517,5.40528 z"
         inkscape:connector-curvature="0" />
    </g>
  </g>
</svg>
