<?xml version="1.0" encoding="UTF-8" standalone="no"?>
<svg
   xmlns:dc="http://purl.org/dc/elements/1.1/"
   xmlns:cc="http://creativecommons.org/ns#"
   xmlns:rdf="http://www.w3.org/1999/02/22-rdf-syntax-ns#"
   xmlns:svg="http://www.w3.org/2000/svg"
   xmlns="http://www.w3.org/2000/svg"
   xmlns:sodipodi="http://sodipodi.sourceforge.net/DTD/sodipodi-0.dtd"
   xmlns:inkscape="http://www.inkscape.org/namespaces/inkscape"
   enable-background="new 0 0 24 24"
   id="Layer_1"
   version="1.0"
   viewBox="0 0 48 48"
   xml:space="preserve"
   inkscape:version="0.48.3.1 r9886"
   width="100%"
   height="100%"
   sodipodi:docname="card_in_use.svg"
   inkscape:export-filename="/home/glic3rinu/orchestra/django-orchestra/orchestra/static/orchestra/icons/card_in_use.png"
   inkscape:export-xdpi="90"
   inkscape:export-ydpi="90"><metadata
     id="metadata11"><rdf:RDF><cc:Work
         rdf:about=""><dc:format>image/svg+xml</dc:format><dc:type
           rdf:resource="http://purl.org/dc/dcmitype/StillImage" /><dc:title></dc:title></cc:Work></rdf:RDF></metadata><defs
     id="defs9" /><sodipodi:namedview
     pagecolor="#ffffff"
     bordercolor="#666666"
     borderopacity="1"
     objecttolerance="10"
     gridtolerance="10"
     guidetolerance="10"
     inkscape:pageopacity="0"
     inkscape:pageshadow="2"
     inkscape:window-width="1920"
     inkscape:window-height="1024"
     id="namedview7"
     showgrid="false"
     inkscape:zoom="6.9532167"
     inkscape:cx="8.2115642"
     inkscape:cy="-0.18909649"
     inkscape:window-x="0"
     inkscape:window-y="27"
     inkscape:window-maximized="1"
     inkscape:current-layer="Layer_1" /><path
     d="m 40.305084,9.1949147 h -20 c -2.2,0 -4,1.8000003 -4,4.0000003 v 14 c 0,0 10.6,-6.6 13.2,-4 2.6,2.6 -2.6,8 -2.6,8 h 13.4 c 2.2,0 4,-1.8 4,-4 v -14 c 0,-2.2 -1.8,-4.0000003 -4,-4.0000003 z m 0,8.0000003 h -20 v -4 h 20 v 4 z"
     id="path3"
     inkscape:connector-curvature="0"
     style="fill:#2e3436" /><path
     d="m 17.905084,13.194915 c -1.2,0 -3.2,0.6 -5.4,2.6 l -6.1999996,5.4 v 16 h 7.5999996 c 6.8,0 8.4,-2 11.4,-4.8 3,-2.8 7.2,-5.8 4.2,-9.2 -1.8,-2.2 -4.2,-1.8 -8.4,1.2 -2.2,1.4 -4.2,2.8 -4.2,2.8"
     stroke-miterlimit="10"
     id="path5"
     inkscape:connector-curvature="0"
     style="fill:none;stroke:#2e3436;stroke-width:4.00000047999999975;stroke-linecap:round;stroke-miterlimit:10" /></svg>