<?xml version="1.0" encoding="UTF-8" standalone="no"?>
<!-- Created with Inkscape (http://www.inkscape.org/) -->

<svg
   xmlns:dc="http://purl.org/dc/elements/1.1/"
   xmlns:cc="http://creativecommons.org/ns#"
   xmlns:rdf="http://www.w3.org/1999/02/22-rdf-syntax-ns#"
   xmlns:svg="http://www.w3.org/2000/svg"
   xmlns="http://www.w3.org/2000/svg"
   xmlns:sodipodi="http://sodipodi.sourceforge.net/DTD/sodipodi-0.dtd"
   xmlns:inkscape="http://www.inkscape.org/namespaces/inkscape"
   id="svg1306"
   height="48px"
   width="48px"
   version="1.1"
   inkscape:version="0.48.3.1 r9886"
   sodipodi:docname="Dialog-accept.svg"
   inkscape:export-filename="/home/glic3/orchestra/django-orchestra/orchestra/static/orchestra/icons/Dialog-accept.png"
   inkscape:export-xdpi="90"
   inkscape:export-ydpi="90">
  <sodipodi:namedview
     pagecolor="#ffffff"
     bordercolor="#666666"
     borderopacity="1"
     objecttolerance="10"
     gridtolerance="10"
     guidetolerance="10"
     inkscape:pageopacity="0"
     inkscape:pageshadow="2"
     inkscape:window-width="1920"
     inkscape:window-height="1024"
     id="namedview25"
     showgrid="false"
     inkscape:zoom="4.9166667"
     inkscape:cx="24"
     inkscape:cy="24"
     inkscape:window-x="0"
     inkscape:window-y="27"
     inkscape:window-maximized="1"
     inkscape:current-layer="layer4" />
  <defs
     id="defs1308">
    <radialGradient
       id="radialGradient3976"
       gradientUnits="userSpaceOnUse"
       cy="40"
       cx="23.857"
       gradientTransform="matrix(1,0,0,0.5,0,20)"
       r="17.143">
      <stop
         id="stop4128"
         offset="0" />
      <stop
         id="stop4130"
         stop-opacity="0"
         offset="1" />
    </radialGradient>
    <linearGradient
       id="linearGradient3980"
       y2="-8.5627"
       gradientUnits="userSpaceOnUse"
       x2="20.065"
       y1="53.836"
       x1="43.936">
      <stop
         id="stop2481"
         stop-color="#ffe69b"
         offset="0" />
      <stop
         id="stop2483"
         stop-color="#fff"
         offset="1" />
    </linearGradient>
    <linearGradient
       id="linearGradient3982"
       y2="15.815"
       gradientUnits="userSpaceOnUse"
       x2="20.917"
       gradientTransform="matrix(0.9176372,0,0,0.9176372,1.9768375,2.1031664)"
       y1="33.955"
       x1="21.994">
      <stop
         id="stop3959"
         stop-color="#fffeff"
         stop-opacity=".33333"
         offset="0" />
      <stop
         id="stop3961"
         stop-color="#fffeff"
         stop-opacity=".21569"
         offset="1" />
    </linearGradient>
  </defs>
  <metadata
     id="metadata1311">
    <rdf:RDF>
      <cc:Work
         rdf:about="">
        <dc:format>image/svg+xml</dc:format>
        <dc:type
           rdf:resource="http://purl.org/dc/dcmitype/StillImage" />
        <dc:creator>
          <cc:Agent>
            <dc:title>Rodney Dawes</dc:title>
          </cc:Agent>
        </dc:creator>
        <dc:contributor>
          <cc:Agent>
            <dc:title>Jakub Steiner, Garrett LeSage</dc:title>
          </cc:Agent>
        </dc:contributor>
        <cc:license
           rdf:resource="http://creativecommons.org/licenses/by-sa/2.0/" />
        <dc:title></dc:title>
      </cc:Work>
      <cc:License
         rdf:about="http://creativecommons.org/licenses/by-sa/2.0/">
        <cc:permits
           rdf:resource="http://web.resource.org/cc/Reproduction" />
        <cc:permits
           rdf:resource="http://web.resource.org/cc/Distribution" />
        <cc:requires
           rdf:resource="http://web.resource.org/cc/Notice" />
        <cc:requires
           rdf:resource="http://web.resource.org/cc/Attribution" />
        <cc:permits
           rdf:resource="http://web.resource.org/cc/DerivativeWorks" />
        <cc:requires
           rdf:resource="http://web.resource.org/cc/ShareAlike" />
      </cc:License>
    </rdf:RDF>
  </metadata>
  <g
     id="layer2"
     transform="matrix(0.91489252,0,0,0.91489252,2.0425808,2.0851578)">
    <path
       id="path6548"
       style="opacity:0.6;color:#000000;fill:url(#radialGradient3976);display:block"
       d="M 41,40 A 17.143,8.5714 0 1 1 6.714,40 17.143,8.5714 0 1 1 41,40 z"
       transform="matrix(1.0706,0,0,0.525,-0.89276,22.5)"
       display="block"
       inkscape:connector-curvature="0" />
  </g>
  <g
     id="layer1"
     transform="matrix(0.91489252,0,0,0.91489252,2.0425808,2.0851578)">
    <g
       id="g4006">
      <path
         id="path1314"
         d="M 46.857,23.929 C 46.857,36.829 36.4,47.286 23.5,47.286 10.6,47.286 0.143,36.829 0.143,23.929 0.143,11.029 10.6,0.572 23.5,0.572 c 12.9,0 23.357,10.457 23.357,23.357 z"
         transform="matrix(0.92049,0,0,0.92049,2.3685,0.97408)"
         inkscape:connector-curvature="0"
         style="fill:#73d216;stroke:#4e9a06;stroke-width:1.08640003" />
      <path
         id="path3560"
         d="m 49.902,26.635 c 0,13.25 -10.741,23.991 -23.991,23.991 -13.25,0 -23.991,-10.741 -23.991,-23.991 0,-13.25 10.741,-23.991 23.991,-23.991 13.25,0 23.991,10.741 23.991,23.991 z"
         transform="matrix(0.85609,0,0,0.85609,1.8183,0.19777)"
         style="opacity:0.34659005;fill-opacity:0;stroke:url(#linearGradient3980);stroke-width:1.1681"
         inkscape:connector-curvature="0" />
    </g>
  </g>
  <g
     id="layer3"
     transform="matrix(0.91489252,0,0,0.91489252,2.0425808,2.0851578)">
    <g
       id="text4967"
       style="fill:#eeeeec;stroke:#eeeeec">
      <path
         id="path4984"
         d="m 14.707,25.178 c 0.62921,1.5e-5 1.1052,0.5163 1.4278,1.5489 0.64534,1.9361 1.1052,2.9041 1.3794,2.9041 0.20973,1.2e-5 0.42753,-0.16133 0.65342,-0.48402 4.5336,-7.2602 8.7284,-13.133 12.584,-17.618 1.0003,-1.1616 2.5895,-1.7424 4.7676,-1.7425 0.51625,3.13e-5 0.86313,0.048433 1.0406,0.1452 0.17744,0.096834 0.26618,0.21784 0.26621,0.36301 -3.3e-5,0.2259 -0.26624,0.66959 -0.79863,1.331 -6.2277,7.4861 -12.004,15.392 -17.328,23.717 -0.37109,0.58082 -1.1294,0.87124 -2.2749,0.87123 -1.1617,5e-6 -1.8473,-0.0484 -2.0571,-0.1452 -0.54856,-0.242 -1.1939,-1.4762 -1.9361,-3.7027 -0.83897,-2.4685 -1.2585,-4.0173 -1.2584,-4.6466 -8e-6,-0.67761 0.56468,-1.331 1.6941,-1.9603 0.69375,-0.3872 1.3068,-0.5808 1.8393,-0.58082"
         inkscape:connector-curvature="0" />
    </g>
  </g>
  <g
     id="layer4">
    <path
       id="path3955"
       d="m 41.775448,22.029814 c 0,9.938478 -9.502074,-5.750098 -17.136852,0.354979 C 17.181308,28.347148 5.7378316,33.571184 5.7378316,23.632706 5.7381976,13.460932 13.717524,4.0256448 23.656002,4.0256448 33.59448,4.0254618 41.775448,12.091338 41.775448,22.029814 z"
       style="fill:url(#linearGradient3982)"
       inkscape:connector-curvature="0" />
  </g>
</svg>
