<?xml version="1.0" encoding="UTF-8" standalone="no"?>
<svg
   xmlns:dc="http://purl.org/dc/elements/1.1/"
   xmlns:cc="http://creativecommons.org/ns#"
   xmlns:rdf="http://www.w3.org/1999/02/22-rdf-syntax-ns#"
   xmlns:svg="http://www.w3.org/2000/svg"
   xmlns="http://www.w3.org/2000/svg"
   xmlns:xlink="http://www.w3.org/1999/xlink"
   xmlns:sodipodi="http://sodipodi.sourceforge.net/DTD/sodipodi-0.dtd"
   xmlns:inkscape="http://www.inkscape.org/namespaces/inkscape"
   height="48px"
   width="48px"
   id="svg2"
   version="1.1"
   inkscape:version="0.48.3.1 r9886"
   sodipodi:docname="Edit-check-sheet.svg"
   inkscape:export-filename="/home/glic3/orchestra/django-orchestra/orchestra/static/orchestra/icons/Edit-check-sheet.png"
   inkscape:export-xdpi="503.74228"
   inkscape:export-ydpi="503.74228">
  <metadata
     id="metadata112">
    <rdf:RDF>
      <cc:Work
         rdf:about="">
        <dc:format>image/svg+xml</dc:format>
        <dc:type
           rdf:resource="http://purl.org/dc/dcmitype/StillImage" />
        <dc:title></dc:title>
      </cc:Work>
    </rdf:RDF>
  </metadata>
  <sodipodi:namedview
     pagecolor="#ffffff"
     bordercolor="#666666"
     borderopacity="1"
     objecttolerance="10"
     gridtolerance="10"
     guidetolerance="10"
     inkscape:pageopacity="0"
     inkscape:pageshadow="2"
     inkscape:window-width="640"
     inkscape:window-height="480"
     id="namedview110"
     showgrid="false"
     inkscape:zoom="4.9166667"
     inkscape:cx="24"
     inkscape:cy="24"
     inkscape:window-x="945"
     inkscape:window-y="165"
     inkscape:window-maximized="0"
     inkscape:current-layer="svg2" />
  <defs
     id="defs4">
    <linearGradient
       id="i"
       y2="-.2"
       gradientUnits="userSpaceOnUse"
       y1="12.17"
       x2="25.69"
       x1="25.68">
      <stop
         stop-color="#fff"
         offset="0"
         id="stop7" />
      <stop
         stop-opacity="0"
         stop-color="#fff"
         offset="1"
         id="stop9" />
    </linearGradient>
    <linearGradient
       id="e"
       x1="25.4"
       xlink:href="#b"
       gradientUnits="userSpaceOnUse"
       y1="3.82"
       gradientTransform="matrix(1 0 0 .884-.63.84)"
       x2="25.46"
       y2="9.32" />
    <linearGradient
       id="h"
       x1="33.4"
       xlink:href="#i"
       gradientUnits="userSpaceOnUse"
       x2="34.2"
       y1="36.92"
       y2="38.1" />
    <linearGradient
       id="f"
       xlink:href="#b"
       gradientUnits="userSpaceOnUse"
       y1="3.82"
       gradientTransform="matrix(.539 0 0 .512 10.8-.58)"
       x2="0"
       y2="6.48" />
    <linearGradient
       id="g"
       x1="26.1"
       xlink:href="#i"
       gradientUnits="userSpaceOnUse"
       x2="30.81"
       y1="26.7"
       y2="42" />
    <linearGradient
       id="j"
       y2="37.77"
       gradientUnits="userSpaceOnUse"
       y1="40.46"
       x2="33.66"
       x1="36">
      <stop
         stop-color="#7c7c7c"
         offset="0"
         id="stop16" />
      <stop
         stop-color="#b8b8b8"
         offset="1"
         id="stop18" />
    </linearGradient>
    <linearGradient
       id="b">
      <stop
         stop-color="#97978a"
         offset="0"
         id="stop21" />
      <stop
         stop-color="#c2c2b9"
         offset=".5"
         id="stop23" />
      <stop
         stop-color="#7d7d6f"
         offset="1"
         id="stop25" />
    </linearGradient>
    <linearGradient
       id="n"
       y2="37.88"
       gradientUnits="userSpaceOnUse"
       y1="10.45"
       x2="33.86"
       x1="6.11">
      <stop
         stop-color="#c68827"
         offset="0"
         id="stop28" />
      <stop
         stop-color="#89601f"
         offset="1"
         id="stop30" />
    </linearGradient>
    <linearGradient
       id="k"
       y2="42.1"
       gradientUnits="userSpaceOnUse"
       y1="39.2"
       x2="39.1"
       x1="36.81">
      <stop
         offset="0"
         id="stop33" />
      <stop
         stop-opacity="0"
         offset="1"
         id="stop35" />
    </linearGradient>
    <linearGradient
       id="m"
       y2="39.5"
       gradientUnits="userSpaceOnUse"
       y1="18.99"
       gradientTransform="matrix(1.066 0 0 .988-1.56.07)"
       x2="35.79"
       x1="22.31">
      <stop
         stop-color="#f0f0ef"
         offset="0"
         id="stop38" />
      <stop
         stop-color="#e8e8e8"
         offset=".6"
         id="stop40" />
      <stop
         stop-color="#fff"
         offset=".83"
         id="stop42" />
      <stop
         stop-color="#d8d8d3"
         offset="1"
         id="stop44" />
    </linearGradient>
    <linearGradient
       id="l"
       x1="25.4"
       xlink:href="#b"
       gradientUnits="userSpaceOnUse"
       y1="3.82"
       gradientTransform="matrix(1.053 0 0 1-1.79 0)"
       x2="25.46"
       y2="9.32" />
    <radialGradient
       id="d"
       gradientUnits="userSpaceOnUse"
       cy="45.3"
       cx="24.65"
       gradientTransform="matrix(1 0 0 .111 0 40.3)"
       r="21">
      <stop
         stop-color="#646459"
         offset="0"
         id="stop48" />
      <stop
         stop-opacity="0"
         stop-color="#646459"
         offset="1"
         id="stop50" />
    </radialGradient>
  </defs>
  <path
     fill="url(#d)"
     d="m45.66 45.27a21.01 2.323 0 1 1 -42.02 0 21.01 2.323 0 1 1 42.02 0"
     transform="matrix(.913 0 0 1.179 1.92-8.11)"
     id="path52" />
  <rect
     rx="1.39"
     height="41"
     width="39"
     stroke="#714c16"
     y="4.5"
     x="4.46"
     fill="url(#n)"
     id="rect54" />
  <rect
     rx=".57"
     height="35.98"
     width="30.95"
     stroke="#888a85"
     y="6.53"
     x="8.53"
     fill="url(#m)"
     id="rect56" />
  <rect
     rx="1"
     height="4"
     width="12"
     x="18"
     fill="#5c5c5c"
     id="rect58" />
  <rect
     id="a"
     opacity=".4"
     rx="1"
     height="3.7"
     width="3.7"
     stroke="#2e3436"
     y="14.4"
     x="11.7"
     stroke-width=".8"
     fill="none" />
  <use
     y="6.48"
     xlink:href="#a"
     id="use61" />
  <rect
     opacity=".5"
     rx="1"
     height="5"
     width="5"
     stroke="#2e3436"
     y="34.37"
     x="11.64"
     stroke-width=".8"
     fill="none"
     id="rect63" />
  <use
     y="12.96"
     xlink:href="#a"
     id="use65" />
  <g
     fill="none"
     id="g67">
    <path
       stroke="url(#g)"
       d="m9.52 7.47h29v34h-29z"
       id="path69" />
    <rect
       rx=".5"
       height="39.1"
       width="37.1"
       stroke="#c68827"
       y="5.43"
       x="5.44"
       id="rect71" />
  </g>
  <rect
     opacity=".11"
     rx="1.39"
     height="7"
     width="18.95"
     stroke="#000"
     y="4.47"
     x="14.79"
     id="rect73" />
  <rect
     rx="1.39"
     height="7"
     width="18.95"
     stroke="#5c5c5c"
     y="3.5"
     x="14.53"
     fill="url(#l)"
     id="rect75" />
  <rect
     rx=".33"
     height="3.58"
     width="9.7"
     y="1.21"
     x="19.1"
     fill="url(#f)"
     id="rect77" />
  <rect
     rx="1"
     height="6.19"
     width="18.1"
     y="3.94"
     x="14.95"
     fill="url(#e)"
     id="rect79" />
  <path
     opacity=".5"
     d="m39 36.3l0.04 5.81-8.5-0.04 8.46-5.77"
     fill="url(#k)"
     id="path81" />
  <path
     stroke="#868a84"
     d="m30.1 42.1c1.79 0.16 8.99-4.37 9.48-8.39-1.56 2.42-4.96 1.97-9.1 2.13 0 0 0.39 5.76-0.42 6.26z"
     fill="url(#j)"
     id="path83" />
  <g
     fill="none"
     id="g85">
    <path
       opacity=".32"
       stroke="url(#i)"
       d="m19.47 1.47v0.03h-0.03v2.88c0 0.001 0.03 0.03 0.03 0.03v0.03h-3.59c-0.04 0-0.1 0.02-0.13 0.03-0.14 0.06-0.27 0.2-0.31 0.34-0.001 0.04 0 0.11 0 0.16v4.22c0 0.03 0.02 0.09 0.03 0.12 0.001 0.02 0.02 0.07 0.03 0.09 0 0.001 0.03 0.03 0.03 0.03 0.02 0.03 0.07 0.07 0.09 0.09 0.02 0.001 0.05 0.02 0.07 0.03 0.001 0.001 0.04 0.03 0.06 0.03 0.03 0.001 0.09 0.03 0.13 0.03h16.22c0.04-0.001 0.1-0.02 0.13-0.03 0.02-0.001 0.05-0.02 0.06-0.03 0.02-0.001 0.05-0.02 0.07-0.03l0.09-0.09c0-0.001 0.03-0.03 0.03-0.03 0.001-0.02 0.02-0.07 0.03-0.09 0.001-0.03 0.03-0.09 0.03-0.12v-4.22c0-0.04 0.001-0.12 0-0.16-0.04-0.14-0.17-0.29-0.31-0.34-0.03-0.001-0.09-0.03-0.13-0.03h-3.59v-0.03l0.03-0.03v-2.88h-0.03v-0.03h-9.03s-0.03 0-0.03 0z"
       id="path87" />
    <path
       opacity=".37"
       stroke="url(#h)"
       d="m31.51 40.69c1.37-0.69 4.53-2.6 5.83-4.48-1.79 0.37-2.99 0.58-5.73 0.69 0 0 0.09 3-0.1 3.79z"
       id="path89" />
  </g>
  <g
     opacity=".17"
     id="g91">
    <path
       d="m19.76 15h16.34v2h-16.34z"
       id="path93" />
    <path
       d="m19.76 19h15.56v2h-15.56z"
       id="path95" />
    <path
       d="m19.76 23h14v2h-14z"
       id="path97" />
    <path
       d="m19.76 27h16.34v2h-16.34z"
       id="path99" />
    <path
       d="m19.76 31h10.12v2h-10.12z"
       id="path101" />
  </g>
  <path
     id="c"
     d="m18.57 28.81c3.909-6.26 4.744-6.495 9.012-11.93 1.32-1.47 5.119-5.149 6.888-4.447 1.351 0.537-0.8798 2.34-1.53 3.17-5.72 7.3-9.097 12.28-14.4 19.89-0.817 1.172-2.128 1.514-3.407 1.241-1.3-0.28-2.07-2.68-2.5-3.82-0.6404-1.7-2.255-3.821-2.254-5.641 0.0004468-1.47 0.7726-2.205 2.074-2.305 1.675-0.1285 2.298 2.19 2.789 3.557 0.93 2.58 1.13 3.81 3.33 0.29z"
     transform="matrix(.292 0 0 .293 8.7 7.4)"
     fill="#4e9a06" />
  <use
     y="6.46"
     xlink:href="#c"
     id="use104" />
  <use
     y="12.92"
     xlink:href="#c"
     id="use106" />
  <use
     xlink:href="#c"
     transform="matrix(2.076 0 0 2.076 -13.72 1.792)"
     stroke="#555753"
     stroke-width=".3"
     id="use108" />
</svg>
