<?xml version="1.0" encoding="UTF-8" standalone="no"?>
<svg id="svg1800" xmlns="http://www.w3.org/2000/svg" height="48" width="48" version="1.0" xmlns:xlink="http://www.w3.org/1999/xlink">
 <defs id="defs3">
  <radialGradient id="radialGradient3107" gradientUnits="userSpaceOnUse" cy="25.531" cx="17.312" gradientTransform="matrix(1 0 0 .35161 0 16.554)" r="9.6875">
   <stop id="stop3103" offset="0"/>
   <stop id="stop3105" stop-opacity="0" offset="1"/>
  </radialGradient>
 </defs>
 <g id="layer1">
  <path id="path3099" opacity=".40909" style="color:#000000" d="m27 25.531a9.6875 3.4062 0 1 1 -19.375 0 9.6875 3.4062 0 1 1 19.375 0z" transform="matrix(2.1829 0 0 2.1829 -13.504 -14.35)" fill="url(#radialGradient3107)"/>
  <path id="path1650" stroke-linejoin="round" d="m46.139 23.428a22.009 21.213 0 1 1 -44.018 0 22.009 21.213 0 1 1 44.018 0z" transform="matrix(.94463 0 0 .98005 1.5042 -1.5569)" stroke="#914900" stroke-linecap="round" stroke-width=".98215" fill="#f57900"/>
  <path id="path3392" stroke-linejoin="round" d="m46.139 23.428a22.009 21.213 0 1 1 -44.018 0 22.009 21.213 0 1 1 44.018 0z" transform="matrix(.91409 0 0 .94836 2.3806 -.90582)" stroke="#fcaf3e" stroke-linecap="round" stroke-width=".98215" fill="none"/>
  <path id="rect1872" d="m21.465 10.373c-0.128 0-0.235 0.175-0.235 0.384l1.065 14.441c0 0.209 0.107 0.384 0.235 0.384 0 0 0.841 0.012 1.534 0 0.228-0.004 0.298 0.02 0.505 0 0.693 0.012 1.534 0 1.534 0 0.128 0 0.235-0.175 0.235-0.384l1.064-14.441c0-0.209-0.106-0.354-0.234-0.354h-2.581c-0.009-0.002-0.008-0.03-0.018-0.03h-3.104z" fill="#fff"/>
  <path id="path2062" d="m-11.875 34.062a4.5625 3.8125 0 1 1 -9.125 0 4.5625 3.8125 0 1 1 9.125 0z" transform="matrix(.50486 0 0 .60418 32.659 9.6088)" fill="#fff"/>
  <path id="path3068" d="m43.676 20.477c0 10.83-6.052-4.306-18.674 0.386-12.723 4.73-20.567 10.444-20.567-0.386 0.0001-10.831 8.79-19.621 19.621-19.621 10.83 0.0001 19.62 8.7902 19.62 19.621z" fill-opacity=".21390" fill="#fffeff"/>
 </g>
</svg>
