<?xml version="1.0" encoding="UTF-8" standalone="no"?>
<svg
   xmlns:dc="http://purl.org/dc/elements/1.1/"
   xmlns:cc="http://creativecommons.org/ns#"
   xmlns:rdf="http://www.w3.org/1999/02/22-rdf-syntax-ns#"
   xmlns:svg="http://www.w3.org/2000/svg"
   xmlns="http://www.w3.org/2000/svg"
   xmlns:xlink="http://www.w3.org/1999/xlink"
   xmlns:sodipodi="http://sodipodi.sourceforge.net/DTD/sodipodi-0.dtd"
   xmlns:inkscape="http://www.inkscape.org/namespaces/inkscape"
   id="svg1800"
   height="48"
   width="48"
   version="1.0"
   inkscape:version="0.48.3.1 r9886"
   sodipodi:docname="Emblem-important.svg"
   inkscape:export-filename="/home/glic3rinu/orchestra/django-orchestra/orchestra/static/orchestra/icons/Emblem-important.png"
   inkscape:export-xdpi="45"
   inkscape:export-ydpi="45">
  <metadata
     id="metadata16">
    <rdf:RDF>
      <cc:Work
         rdf:about="">
        <dc:format>image/svg+xml</dc:format>
        <dc:type
           rdf:resource="http://purl.org/dc/dcmitype/StillImage" />
        <dc:title></dc:title>
      </cc:Work>
    </rdf:RDF>
  </metadata>
  <sodipodi:namedview
     pagecolor="#ffffff"
     bordercolor="#666666"
     borderopacity="1"
     objecttolerance="10"
     gridtolerance="10"
     guidetolerance="10"
     inkscape:pageopacity="0"
     inkscape:pageshadow="2"
     inkscape:window-width="1280"
     inkscape:window-height="744"
     id="namedview14"
     showgrid="false"
     inkscape:zoom="13.906433"
     inkscape:cx="3.5418601"
     inkscape:cy="18.96013"
     inkscape:window-x="0"
     inkscape:window-y="27"
     inkscape:window-maximized="1"
     inkscape:current-layer="svg1800" />
  <defs
     id="defs3">
    <radialGradient
       id="radialGradient3107"
       gradientUnits="userSpaceOnUse"
       cy="25.531"
       cx="17.312"
       gradientTransform="matrix(1,0,0,0.35161,0,16.554)"
       r="9.6875">
      <stop
         id="stop3103"
         offset="0" />
      <stop
         id="stop3105"
         stop-opacity="0"
         offset="1" />
    </radialGradient>
    <radialGradient
       inkscape:collect="always"
       xlink:href="#radialGradient3107"
       id="radialGradient2999"
       gradientUnits="userSpaceOnUse"
       gradientTransform="matrix(2.1829,0,0,0.76752947,-13.504,21.785727)"
       cx="17.312"
       cy="25.531"
       r="9.6875" />
  </defs>
  <g
     id="g3001"
     transform="matrix(0.85890892,0,0,0.85890892,-2.6138151,11.364677)">
    <path
       id="path1650"
       d="m 45.088484,21.403711 a 20.790362,20.789801 0 0 1 -41.5807238,0 20.790362,20.789801 0 1 1 41.5807238,0 z"
       inkscape:connector-curvature="0"
       style="fill:#f57900;stroke:#914900;stroke-width:0.9450022;stroke-linecap:round;stroke-linejoin:round" />
    <path
       id="path3392"
       d="m 44.555799,21.312358 a 20.118207,20.117561 0 0 1 -40.2364141,0 20.118207,20.117561 0 1 1 40.2364141,0 z"
       inkscape:connector-curvature="0"
       style="fill:none;stroke:#fcaf3e;stroke-width:0.91444778;stroke-linecap:round;stroke-linejoin:round" />
    <path
       id="rect1872"
       d="m 21.465,10.373 c -0.128,0 -0.235,0.175 -0.235,0.384 l 1.065,14.441 c 0,0.209 0.107,0.384 0.235,0.384 0,0 0.841,0.012 1.534,0 0.228,-0.004 0.298,0.02 0.505,0 0.693,0.012 1.534,0 1.534,0 0.128,0 0.235,-0.175 0.235,-0.384 l 1.064,-14.441 c 0,-0.209 -0.106,-0.354 -0.234,-0.354 h -2.581 c -0.009,-0.002 -0.008,-0.03 -0.018,-0.03 h -3.104 z"
       inkscape:connector-curvature="0"
       style="fill:#ffffff" />
    <path
       id="path2062"
       d="m 26.663787,30.188379 a 2.3034238,2.3034363 0 0 1 -4.606847,0 2.3034238,2.3034363 0 1 1 4.606847,0 z"
       inkscape:connector-curvature="0"
       style="fill:#ffffff" />
    <path
       id="path3068"
       d="m 43.676,20.477 c 0,10.83 -6.052,-4.306 -18.674,0.386 C 12.279,25.593 4.435,31.307 4.435,20.477 4.4351,9.646 13.225,0.856 24.056,0.856 c 10.83,10e-5 19.62,8.7902 19.62,19.621 z"
       inkscape:connector-curvature="0"
       style="fill:#fffeff;fill-opacity:0.21389998" />
  </g>
</svg>
