<?xml version="1.0" encoding="UTF-8" standalone="no"?>
<svg
   xmlns:dc="http://purl.org/dc/elements/1.1/"
   xmlns:cc="http://creativecommons.org/ns#"
   xmlns:rdf="http://www.w3.org/1999/02/22-rdf-syntax-ns#"
   xmlns:svg="http://www.w3.org/2000/svg"
   xmlns="http://www.w3.org/2000/svg"
   xmlns:xlink="http://www.w3.org/1999/xlink"
   xmlns:sodipodi="http://sodipodi.sourceforge.net/DTD/sodipodi-0.dtd"
   xmlns:inkscape="http://www.inkscape.org/namespaces/inkscape"
   version="1.1"
   id="Your_Icon"
   x="0px"
   y="0px"
   width="48"
   height="48"
   viewBox="0 0 48 48"
   enable-background="new 0 0 100 100"
   xml:space="preserve"
   inkscape:version="0.48.3.1 r9886"
   sodipodi:docname="price.svg"
   inkscape:export-filename="/home/glic3rinu/orchestra/django-orchestra/orchestra/static/orchestra/icons/price.png"
   inkscape:export-xdpi="90"
   inkscape:export-ydpi="90"><metadata
   id="metadata11"><rdf:RDF><cc:Work
       rdf:about=""><dc:format>image/svg+xml</dc:format><dc:type
         rdf:resource="http://purl.org/dc/dcmitype/StillImage" /><dc:title></dc:title></cc:Work></rdf:RDF></metadata><defs
   id="defs9"><radialGradient
     inkscape:collect="always"
     xlink:href="#linearGradient2305"
     id="radialGradient2311"
     cx="-6"
     cy="37.75"
     fx="-6"
     fy="37.75"
     r="14"
     gradientTransform="matrix(1,0,0,0.267857,0,27.63839)"
     gradientUnits="userSpaceOnUse" /><linearGradient
     id="linearGradient2305"><stop
       style="stop-color:#595959;stop-opacity:1;"
       offset="0"
       id="stop2307" /><stop
       style="stop-color:#000000;stop-opacity:0;"
       offset="1"
       id="stop2309" /></linearGradient><radialGradient
     r="14"
     fy="37.75"
     fx="-6"
     cy="37.75"
     cx="-6"
     gradientTransform="matrix(1,0,0,0.267857,0,27.63839)"
     gradientUnits="userSpaceOnUse"
     id="radialGradient3043"
     xlink:href="#linearGradient2305"
     inkscape:collect="always" /></defs><sodipodi:namedview
   pagecolor="#ffffff"
   bordercolor="#666666"
   borderopacity="1"
   objecttolerance="10"
   gridtolerance="10"
   guidetolerance="10"
   inkscape:pageopacity="0"
   inkscape:pageshadow="2"
   inkscape:window-width="1920"
   inkscape:window-height="1024"
   id="namedview7"
   showgrid="false"
   inkscape:zoom="6.675088"
   inkscape:cx="-10.606581"
   inkscape:cy="22.890176"
   inkscape:window-x="0"
   inkscape:window-y="27"
   inkscape:window-maximized="1"
   inkscape:current-layer="Your_Icon" />
<path
   sodipodi:type="arc"
   style="opacity:0.48453608;color:#000000;fill:url(#radialGradient3043);fill-opacity:1;fill-rule:evenodd;stroke:none;stroke-width:1;marker:none;visibility:visible;display:inline;overflow:visible"
   id="path2303"
   sodipodi:cx="-6"
   sodipodi:cy="37.75"
   sodipodi:rx="14"
   sodipodi:ry="3.75"
   d="m 8,37.75 a 14,3.75 0 1 1 -28,0 14,3.75 0 1 1 28,0 z"
   transform="matrix(1.2681948,0,0,1.0735151,26.979648,4.3812391)" />
<g
   id="g3"
   style="fill:#555753"
   transform="matrix(0.56980085,-0.08926081,0.08926081,0.56980085,-7.4328135,-0.07503521)">
	<path
   d="m 92.489,14.705 c -0.77,-0.39 -1.696,-0.084 -2.085,0.679 -3.969,7.806 -7.123,7.317 -12.35,6.521 -3.248,-0.497 -7.289,-1.114 -12.139,0.37 -2.586,0.793 -4.882,2.757 -6.768,4.938 L 55.141,23.209 H 41.976 l -35.102,35.1 26.33,26.327 35.1,-35.098 V 36.371 l -6.948,-6.95 c 1.616,-1.921 3.495,-3.571 5.471,-4.178 4.172,-1.282 7.678,-0.745 10.76,-0.273 5.456,0.837 10.602,1.625 15.581,-8.181 0.388,-0.763 0.084,-1.696 -0.679,-2.084 M 45.114,52.634 c -0.743,-0.849 -2.128,-2.458 -4.824,-3.618 -2.424,-1.038 -3.673,-0.294 -4.118,0.755 -0.519,1.196 0.44,2.575 3.15,5.113 3.778,3.479 4.655,6.287 3.198,9.687 -1.431,3.325 -4.963,5.166 -9.566,4.036 l -1.654,3.848 -3.693,-1.588 1.521,-3.551 c -2.46,-1.185 -4.578,-2.939 -5.666,-4.334 l 2.998,-3.88 c 1.202,1.524 3.067,3.256 5.495,4.302 2.168,0.924 3.996,0.694 4.62,-0.763 0.612,-1.423 -0.206,-2.828 -2.601,-4.967 -3.423,-3.057 -5.349,-6.096 -3.793,-9.72 1.424,-3.325 4.849,-4.909 9.163,-3.938 l 1.521,-3.551 3.659,1.569 -1.404,3.286 c 2.43,1.136 3.872,2.417 4.926,3.574 l -2.932,3.74 z M 59.529,31.98 c 2.422,2.425 2.422,6.357 0,8.778 -1.215,1.209 -2.799,1.815 -4.387,1.815 -1.588,0 -3.178,-0.606 -4.388,-1.819 -2.423,-2.419 -2.423,-6.35 0,-8.775 1.21,-1.211 2.798,-1.813 4.383,-1.813 0.538,0 1.074,0.094 1.6,0.232 -0.703,1.054 -1.297,2.058 -1.768,2.903 -0.76,0.04 -1.479,0.33 -2.021,0.872 -0.588,0.585 -0.909,1.364 -0.909,2.194 0,0.832 0.321,1.606 0.903,2.193 0.591,0.589 1.369,0.91 2.199,0.91 0.831,0 1.606,-0.321 2.193,-0.91 0.586,-0.581 0.91,-1.362 0.91,-2.19 0,-0.594 -0.219,-1.136 -0.528,-1.623 0.485,-0.87 1.075,-1.839 1.743,-2.828 0.019,0.026 0.047,0.042 0.07,0.061"
   id="path5"
   style="fill:#555753"
   inkscape:connector-curvature="0" />
</g></svg>