<?xml version="1.0" encoding="UTF-8" standalone="no"?>
<!-- Created with Inkscape (http://www.inkscape.org/) -->

<svg
   xmlns:dc="http://purl.org/dc/elements/1.1/"
   xmlns:cc="http://creativecommons.org/ns#"
   xmlns:rdf="http://www.w3.org/1999/02/22-rdf-syntax-ns#"
   xmlns:svg="http://www.w3.org/2000/svg"
   xmlns="http://www.w3.org/2000/svg"
   xmlns:xlink="http://www.w3.org/1999/xlink"
   xmlns:sodipodi="http://sodipodi.sourceforge.net/DTD/sodipodi-0.dtd"
   xmlns:inkscape="http://www.inkscape.org/namespaces/inkscape"
   id="svg3201"
   version="1.1"
   inkscape:version="0.48.3.1 r9886"
   width="48"
   height="48"
   sodipodi:docname="saas.svg"
   inkscape:export-filename="/home/glic3rinu/orchestra/django-orchestra/orchestra/static/orchestra/icons/saas.png"
   inkscape:export-xdpi="90"
   inkscape:export-ydpi="90">
  <metadata
     id="metadata3207">
    <rdf:RDF>
      <cc:Work
         rdf:about="">
        <dc:format>image/svg+xml</dc:format>
        <dc:type
           rdf:resource="http://purl.org/dc/dcmitype/StillImage" />
        <dc:title></dc:title>
      </cc:Work>
    </rdf:RDF>
  </metadata>
  <defs
     id="defs3205">
    <radialGradient
       r="10.625"
       fy="4.625"
       fx="62.625"
       cy="4.625"
       cx="62.625"
       gradientTransform="matrix(2.2657407,0,0,0.74122745,-117.89261,32.892968)"
       gradientUnits="userSpaceOnUse"
       id="radialGradient3610"
       xlink:href="#linearGradient8838-7"
       inkscape:collect="always" />
    <linearGradient
       id="linearGradient8838-7">
      <stop
         id="stop8840-0"
         style="stop-color:black;stop-opacity:1"
         offset="0" />
      <stop
         id="stop8842-7"
         style="stop-color:black;stop-opacity:0"
         offset="1" />
    </linearGradient>
    <radialGradient
       r="10.625"
       fy="4.625"
       fx="62.625"
       cy="4.625"
       cx="62.625"
       gradientTransform="matrix(2.2657407,0,0,0.74122745,-117.84341,35.950626)"
       gradientUnits="userSpaceOnUse"
       id="radialGradient3708"
       xlink:href="#linearGradient8838-7"
       inkscape:collect="always" />
  </defs>
  <sodipodi:namedview
     pagecolor="#ffffff"
     bordercolor="#666666"
     borderopacity="1"
     objecttolerance="10"
     gridtolerance="10"
     guidetolerance="10"
     inkscape:pageopacity="0"
     inkscape:pageshadow="2"
     inkscape:window-width="1920"
     inkscape:window-height="1024"
     id="namedview3203"
     showgrid="false"
     inkscape:zoom="3.8959303"
     inkscape:cx="8.0734221"
     inkscape:cy="40.866409"
     inkscape:window-x="0"
     inkscape:window-y="27"
     inkscape:window-maximized="1"
     inkscape:current-layer="svg3201" />
  <path
     inkscape:connector-curvature="0"
     d="m 48.122094,39.37881 c 0,4.34954 -10.77808,7.87555 -24.0735,7.87555 -13.29542,0 -24.07349952,-3.52601 -24.07349952,-7.87555 0,-4.34955 10.77807952,-7.87556 24.07349952,-7.87556 13.29542,0 24.0735,3.52601 24.0735,7.87556 l 0,0 z"
     id="path8836-9"
     style="opacity:0.3;fill:url(#radialGradient3708);fill-opacity:1;fill-rule:evenodd;stroke:none;stroke-width:0.99999988;marker:none;visibility:visible;display:inline;overflow:visible" />
  <rect
     style="fill:#eeeeec;stroke:#eeeeec"
     id="rect3747"
     width="31.308554"
     height="23.776344"
     x="8.3035679"
     y="14.241219"
     ry="11.888172" />
  <path
     style="fill:#555753;fill-opacity:1"
     d="M 10.280293,40.441737 C 7.2051807,40.132052 4.8722076,39.06874 2.8990174,37.077535 -0.40380281,33.74456 -1.1067297,27.727676 1.1759893,23.645787 2.1196585,21.958348 3.8188126,20.299384 5.4807087,19.442889 l 0.7741857,-0.398994 0.011289,-1.226072 C 6.2971444,14.455434 7.6216401,10.77602 10.168688,8.3898403 14.089062,4.7170682 19.858239,3.8729229 24.794165,6.249841 c 2.531395,1.2190065 4.768749,3.4149697 5.824881,5.717118 0.134346,0.292851 0.276817,0.532457 0.316601,0.532457 0.0398,0 0.324958,-0.170005 0.633723,-0.377787 2.080065,-1.399783 5.000273,-1.351751 7.212027,0.118622 2.543639,1.69101 3.424188,5.866753 1.989066,8.518588 -0.156214,0.28865 -0.263577,0.53767 -0.238588,0.553375 0.02499,0.0157 0.483839,0.17317 1.019662,0.349919 2.556281,0.843227 4.816568,3.00377 5.753516,5.499616 0.314345,0.837359 0.611974,2.379682 0.611974,3.17129 0,0.28762 -0.07623,1.86758 -0.169403,2.401864 -0.631568,3.621676 -3.342607,6.462001 -7.126882,7.466741 l -0.926404,0.245964 -14.513874,0.01651 c -7.982628,0.0092 -14.687708,-9.84e-4 -14.900171,-0.02238 z m 18.661139,-4.287194 c 0.491105,-0.605297 0.635887,-0.717416 0.926421,-0.717416 0.28175,0 0.418011,0.09659 0.749543,0.531326 0.761764,0.99889 0.733433,0.989643 1.594466,0.520494 1.122579,-0.611652 1.095268,-0.552571 0.711878,-1.539921 -0.314918,-0.811018 -0.321908,-0.864586 -0.151536,-1.161441 0.157126,-0.273778 0.262382,-0.319792 0.87509,-0.382565 1.240115,-0.127055 1.245878,-0.132672 1.245878,-1.214616 0,-0.513908 -0.04741,-0.963683 -0.105367,-0.999498 -0.05795,-0.03581 -0.49675,-0.122166 -0.975106,-0.191886 -0.770373,-0.112283 -0.889698,-0.161541 -1.044422,-0.431132 -0.165275,-0.287976 -0.156929,-0.350083 0.155022,-1.15346 0.181338,-0.467003 0.288987,-0.888705 0.239222,-0.937116 -0.205419,-0.199833 -1.5057,-0.876583 -1.684232,-0.876583 -0.106095,0 -0.431918,0.298005 -0.724054,0.662231 -0.444752,0.554505 -0.587197,0.66223 -0.875662,0.66223 -0.282713,0 -0.449061,-0.118781 -0.927425,-0.66223 -0.320605,-0.364226 -0.652782,-0.662231 -0.73817,-0.662231 -0.222441,0 -1.606449,0.777402 -1.66757,0.936679 -0.02819,0.07347 0.09303,0.497187 0.269385,0.941599 0.29869,0.752695 0.309145,0.828057 0.152709,1.100634 -0.146711,0.255628 -0.277865,0.308634 -1.037678,0.419379 -0.478357,0.06972 -0.917155,0.156069 -0.975107,0.191886 -0.05795,0.03581 -0.105366,0.48559 -0.105366,0.999498 0,1.082852 0.0047,1.087459 1.254584,1.215507 0.648129,0.0664 0.718118,0.09955 0.865002,0.409702 0.148623,0.313819 0.137399,0.390804 -0.160282,1.099302 -0.176051,0.419019 -0.294377,0.828871 -0.262944,0.910782 0.05118,0.133351 1.564672,1.041207 1.741813,1.044804 0.03951,7.73e-4 0.333769,-0.321379 0.653908,-0.715958 z m 0.562216,-2.49066 c -0.728777,-0.156296 -1.317798,-0.994909 -1.187318,-1.690432 0.27636,-1.473126 2.273501,-1.740406 2.967451,-0.397138 0.553619,1.07163 -0.539575,2.353623 -1.780133,2.08757 z m -9.698118,0.09007 c 0.167505,-0.124354 0.273671,-0.526945 0.46149,-1.749995 0.0526,-0.342513 0.124477,-0.422833 0.516054,-0.576649 l 0.454945,-0.178707 0.680643,0.541605 c 1.06463,0.847154 1.0958,0.843999 2.207704,-0.223476 0.521537,-0.500696 0.977507,-1.026938 1.013269,-1.169427 0.05089,-0.202746 -0.07034,-0.424523 -0.557601,-1.020101 L 23.95941,28.61617 24.152773,28.191227 c 0.10635,-0.23372 0.197881,-0.436269 0.203404,-0.45011 0.0055,-0.01385 0.404335,-0.07913 0.886246,-0.145095 1.461529,-0.200045 1.372875,-0.08629 1.372875,-1.761609 0,-1.663043 0.06654,-1.571419 -1.242998,-1.711658 -0.849843,-0.09101 -1.007497,-0.183945 -1.230583,-0.7254 l -0.162967,-0.39554 0.530199,-0.655266 c 0.831022,-1.027049 0.832977,-1.008936 -0.225826,-2.093693 -0.503264,-0.515601 -1.033119,-0.967096 -1.177455,-1.003322 -0.252943,-0.06348 -0.492562,0.06885 -1.579347,0.872189 -0.255678,0.188995 -0.338259,0.19763 -0.739727,0.07735 -0.491249,-0.147181 -0.477112,-0.117694 -0.676745,-1.411527 -0.05948,-0.385471 -0.165847,-0.770393 -0.236382,-0.855381 -0.188599,-0.227249 -2.777922,-0.221334 -3.006126,0.0069 -0.08877,0.08876 -0.224732,0.587156 -0.302152,1.107539 l -0.140764,0.946151 -0.45074,0.198711 -0.45074,0.198713 -0.756291,-0.588834 c -0.415962,-0.323874 -0.843099,-0.588851 -0.949194,-0.588851 -0.473353,0 -2.212708,1.665312 -2.212708,2.118516 0,0.144235 0.248783,0.559187 0.571553,0.953309 l 0.571552,0.6979 -0.167183,0.460537 -0.167183,0.460539 -1.094192,0.186127 c -0.601805,0.10237 -1.108011,0.189287 -1.1249,0.193151 -0.01689,0.0039 -0.01689,0.689949 0,1.524636 l 0.03071,1.517611 1.047625,0.166775 1.047625,0.166774 0.233624,0.493081 0.233625,0.493082 -0.591427,0.731999 c -0.325284,0.402599 -0.591426,0.819492 -0.591426,0.926427 0,0.22172 1.698326,2.007442 2.000368,2.103306 0.243431,0.07728 0.523701,-0.06584 1.312923,-0.670359 l 0.609186,-0.466618 0.439345,0.17024 c 0.241638,0.09363 0.451813,0.178828 0.46705,0.189326 0.01524,0.01051 0.08633,0.433664 0.157991,0.940371 0.182533,1.290727 0.225581,1.322719 1.779899,1.322719 0.825847,0 1.311058,-0.04668 1.434015,-0.137965 z m -2.571271,-5.02125 c -0.742528,-0.261999 -1.6993,-1.265609 -1.922244,-2.016344 -0.217609,-0.732763 -0.219386,-1.024416 -0.01051,-1.727715 0.684712,-2.305679 3.710807,-3.032789 5.375888,-1.291718 1.504177,1.572826 1.036181,3.970284 -0.959302,4.91432 -0.771843,0.365149 -1.668862,0.409013 -2.483814,0.121457 z m 11.747435,-5.384155 c 0.460821,-0.548818 0.618612,-0.665558 0.902559,-0.66775 0.262132,-0.0021 0.39974,0.07854 0.577639,0.338164 0.128444,0.187451 0.411724,0.512773 0.629513,0.722935 l 0.395983,0.382116 0.84751,-0.456757 c 0.97105,-0.523338 0.989108,-0.582012 0.511494,-1.661985 -0.257472,-0.582189 -0.261262,-0.623022 -0.08542,-0.920692 0.150704,-0.255123 0.285366,-0.324458 0.744207,-0.383185 0.308115,-0.03944 0.746461,-0.119321 0.974103,-0.177523 l 0.413893,-0.105816 0,-0.930022 c 0,-1.060381 -0.02236,-1.089195 -0.938158,-1.208852 -0.934074,-0.122045 -1.039451,-0.163799 -1.200181,-0.475547 -0.142124,-0.27566 -0.127128,-0.373739 0.172386,-1.127537 l 0.32805,-0.825615 -0.281945,-0.222918 c -0.15507,-0.122605 -0.558547,-0.366721 -0.896614,-0.542485 l -0.614667,-0.319571 -0.324228,0.31063 c -0.178323,0.170845 -0.456086,0.500903 -0.61725,0.733463 -0.234184,0.33793 -0.362037,0.422539 -0.636721,0.421358 -0.288372,-0.0011 -0.438045,-0.116722 -0.929812,-0.717416 -0.322365,-0.393767 -0.632773,-0.715942 -0.689795,-0.715942 -0.198531,0 -1.759284,0.926787 -1.755511,1.042439 0.0021,0.06405 0.143742,0.471091 0.314783,0.904522 0.292526,0.741283 0.300619,0.805138 0.136335,1.075893 -0.116316,0.1917 -0.304396,0.308924 -0.563119,0.350974 -0.213659,0.03472 -0.649224,0.112852 -0.967922,0.173615 l -0.579451,0.110478 0,0.981267 0,0.981266 0.413894,0.105816 c 0.227642,0.05821 0.663084,0.137688 0.967651,0.176636 0.449755,0.05751 0.586433,0.127748 0.727743,0.373965 0.164108,0.285942 0.156351,0.346645 -0.136647,1.069302 -0.170846,0.421383 -0.312079,0.824176 -0.313849,0.895098 -0.0044,0.177219 1.436108,1.0198 1.70095,0.994902 0.117782,-0.01107 0.465452,-0.319424 0.772597,-0.685226 z m 0.179998,-2.55726 c -1.167874,-0.614622 -1.152149,-2.059722 0.02903,-2.66793 0.629268,-0.324021 1.12691,-0.259307 1.669505,0.217097 0.543068,0.476821 0.684474,0.980005 0.448813,1.597075 -0.334789,0.876634 -1.342548,1.277306 -2.147348,0.853758 z"
     id="path3726"
     inkscape:connector-curvature="0"
     sodipodi:nodetypes="sssscsssssssscsssssccssssssssssssssssssscssscssssccssssscsscsscscscsssscsscsssscsccccssscccscscccccsscscscsscccscssccscsscssccccsssscsscsscsscsscscccccssccssssss" />
</svg>
